<?xml version="1.0" encoding="utf-8"?>
<!-- Generator: Adobe Illustrator 16.0.0, SVG Export Plug-In . SVG Version: 6.00 Build 0)  -->
<!DOCTYPE svg PUBLIC "-//W3C//DTD SVG 1.1//EN" "http://www.w3.org/Graphics/SVG/1.1/DTD/svg11.dtd">
<svg version="1.1" id="Layer_1" xmlns="http://www.w3.org/2000/svg" xmlns:xlink="http://www.w3.org/1999/xlink" x="0px" y="0px"
	 width="94.922px" height="101.38px" viewBox="0 0 94.922 101.38" enable-background="new 0 0 94.922 101.38" xml:space="preserve">
<path fill="#D5C2A2" d="M92.893,18.374c-7.799,0-14.144,6.345-14.144,14.144v42.604c0,4.95-3.688,9.237-8.58,9.973l-1.028,0.155
	L64.84,46.382l0.713-0.28c3.122-1.228,5.139-4.183,5.139-7.528c0-3.481-2.222-6.563-5.53-7.669l-0.6-0.2l-0.076-0.628
	c-0.884-7.316-5.696-13.569-12.56-16.32l-1.073-0.43l0.58-1c0.711-1.226,1.087-2.623,1.087-4.04V2.028C52.52,0.909,51.609,0,50.49,0
	H38.375c-1.118,0-2.028,0.91-2.028,2.029v6.259c0,1.418,0.376,2.815,1.087,4.04l0.579,1l-1.072,0.43
	c-6.864,2.751-11.677,9.005-12.562,16.32l-0.076,0.628l-0.6,0.2c-3.307,1.106-5.529,4.188-5.529,7.669
	c0,3.346,2.017,6.301,5.138,7.529l0.713,0.279l-0.921,8.336H8.088c-2.432,0-4.712,1.077-6.254,2.96
	c-1.542,1.881-2.153,4.324-1.676,6.705l3.635,18.382c0.754,3.766,4.088,6.499,7.93,6.499h7.558l-0.347,3.135
	c-0.254,2.283,0.481,4.575,2.014,6.288c1.531,1.711,3.726,2.691,6.022,2.691h34.924c2.296,0,4.492-0.981,6.023-2.693
	c1.533-1.713,2.268-4.003,2.014-6.283l-0.347-3.137l0.969-0.131c6.985-0.938,12.253-6.964,12.253-14.014V32.518
	c0-5.562,4.525-10.086,10.086-10.086c1.119,0,2.029-0.91,2.029-2.029S94.012,18.374,92.893,18.374 M40.405,4.058h8.057v4.23
	c0,2.222-1.807,4.029-4.028,4.029c-2.222,0-4.029-1.807-4.029-4.029V4.058z M28.614,29.289c1.526-7.483,8.179-12.915,15.82-12.915
	c7.64,0,14.292,5.432,15.818,12.915l0.245,1.2H28.37L28.614,29.289z M22.232,38.574c0-2.221,1.807-4.029,4.028-4.029h36.345
	c2.222,0,4.029,1.808,4.029,4.029c0,2.222-1.808,4.029-4.029,4.029H26.261C24.04,42.604,22.232,40.796,22.232,38.574 M19.729,85.207
	h-8.005c-1.914,0-3.575-1.359-3.95-3.233L4.138,63.592c-0.238-1.187,0.066-2.403,0.834-3.341c0.769-0.938,1.905-1.476,3.117-1.476
	h14.566L19.729,85.207z M64.895,95.983c-0.761,0.851-1.854,1.339-3,1.339H26.971c-1.146,0-2.241-0.489-3.003-1.341
	c-0.762-0.853-1.127-1.994-1.001-3.135c0.332-2.99,4.854-43.869,5.012-45.296l0.098-0.89h32.712l0.023,0.223l5.087,45.966
	C66.025,93.987,65.659,95.129,64.895,95.983"/>
</svg>
