<?xml version="1.0" encoding="utf-8"?>
<!-- Generator: Adobe Illustrator 16.0.0, SVG Export Plug-In . SVG Version: 6.00 Build 0)  -->
<!DOCTYPE svg PUBLIC "-//W3C//DTD SVG 1.1//EN" "http://www.w3.org/Graphics/SVG/1.1/DTD/svg11.dtd">
<svg version="1.1" id="Layer_1" xmlns="http://www.w3.org/2000/svg" xmlns:xlink="http://www.w3.org/1999/xlink" x="0px" y="0px"
	 width="459.988px" height="455.983px" viewBox="0 0 459.988 455.983" enable-background="new 0 0 459.988 455.983"
	 xml:space="preserve">
<path fill="#D5C2A2" d="M454.595,80.438l-221.992-80c-1.69-0.583-3.526-0.583-5.216,0l-221.994,80
	C2.166,81.55,0.001,84.586,0,87.997v359.986c0,4.418,3.582,8,8,8s8-3.582,8-8v-248h427.988v248c0,4.418,3.582,8,8,8s8-3.582,8-8
	V87.997C459.987,84.586,457.821,81.55,454.595,80.438 M0,191.983v248h16v-304H0V191.983z M443.988,183.983H16v-16h427.988V183.983z
	 M443.988,151.983H16v-16h427.988V151.983z M443.988,439.983h16v-304h-16V439.983z M443.988,119.983H16V93.701l213.994-77.239
	l213.994,77.239V119.983z"/>
<path fill="#D5C2A2" d="M341.994,455.983h32c8.837,0,16-7.163,16-16v-112c0.017-3.047-1.698-5.838-4.424-7.2l-29.601-14.8
	l-26.399-59.804c-4.061-8.126-12.381-13.242-21.464-13.2H151.882c-9.097-0.03-17.421,5.113-21.464,13.264l-26.4,59.805l-29.6,14.8
	c-2.705,1.352-4.416,4.112-4.424,7.136v112c0,8.837,7.164,16,16,16h32c8.836,0,16-7.163,16-16v-24h192v24
	C325.994,448.82,333.157,455.983,341.994,455.983 M373.994,439.983h-32v-24h32V439.983z M144.73,253.403
	c1.346-2.718,4.119-4.434,7.152-4.424h156.225c3.032-0.01,5.807,1.706,7.151,4.424l21.792,50.58H122.938L144.73,253.403z
	 M117.994,439.983h-32v-24h32V439.983z M125.994,399.983h-40v-67.056l25.888-12.944h236.225l25.888,12.944v67.056H125.994z"/>
<path fill="#D5C2A2" d="M141.994,335.983h-24c-8.836,0-16,7.163-16,16v16c0,8.837,7.164,16,16,16h24c8.836,0,16-7.163,16-16v-16
	C157.994,343.146,150.83,335.983,141.994,335.983 M117.994,351.983h24v16h-24V351.983z"/>
<path fill="#D5C2A2" d="M357.994,367.983v-16c0-8.837-7.163-16-16-16h-24c-8.837,0-16,7.163-16,16v16c0,8.837,7.163,16,16,16h24
	C350.831,383.983,357.994,376.82,357.994,367.983 M317.994,351.983h24v16h-24V351.983z"/>
<path fill="#D5C2A2" d="M269.994,335.983h-80c-8.836,0-16,7.163-16,16v16c0,8.837,7.164,16,16,16h80c8.837,0,16-7.163,16-16v-16
	C285.994,343.146,278.831,335.983,269.994,335.983 M189.994,351.983h80v16h-80V351.983z"/>
</svg>
