<?xml version="1.0" encoding="utf-8"?>
<!-- Generator: Adobe Illustrator 16.0.0, SVG Export Plug-In . SVG Version: 6.00 Build 0)  -->
<!DOCTYPE svg PUBLIC "-//W3C//DTD SVG 1.1//EN" "http://www.w3.org/Graphics/SVG/1.1/DTD/svg11.dtd">
<svg version="1.1" id="Layer_1" xmlns="http://www.w3.org/2000/svg" xmlns:xlink="http://www.w3.org/1999/xlink" x="0px" y="0px"
	 width="480px" height="480.002px" viewBox="0 0 480 480.002" enable-background="new 0 0 480 480.002" xml:space="preserve">
<path fill="#D5C2A2" d="M472,392H163.312L53.656,282.344c-3.069-3.178-8.134-3.266-11.312-0.196
	c-3.178,3.069-3.266,8.135-0.196,11.313c0.064,0.065,0.129,0.131,0.196,0.195l38.528,38.527L36,392H8c-4.418,0-8,3.582-8,8
	c0,4.419,3.582,8,8,8h41.056L9.344,467.56c-2.452,3.677-1.46,8.645,2.216,11.097c3.676,2.452,8.644,1.46,11.096-2.216L68.28,408H168
	v64c0,4.418,3.582,8,8,8c4.419,0,8-3.582,8-8v-64h219.72l45.601,68.44c2.452,3.676,7.42,4.668,11.096,2.216s4.668-7.42,2.216-11.097
	L422.944,408H472c4.418,0,8-3.581,8-8C480,395.582,476.418,392,472,392 M92.296,343.608L140.688,392H56L92.296,343.608z"/>
<path fill="#D5C2A2" d="M200,168c6.407-0.036,12.636-2.113,17.784-5.928c3.718-2.655,8.714-2.655,12.432,0
	c10.534,7.917,25.034,7.917,35.568,0c3.719-2.655,8.713-2.655,12.432,0c11.28,8.443,26.937,7.808,37.496-1.52
	c2.744-2.291,4.286-5.715,4.185-9.288C317.064,80.536,254.168,24,176,24C90.024,24,34.584,80.528,32.088,151.248
	c-0.089,3.581,1.456,7.008,4.2,9.312c5.477,4.746,12.465,7.383,19.712,7.44c6.407-0.036,12.636-2.113,17.784-5.928
	c3.718-2.655,8.714-2.655,12.432,0c10.534,7.917,25.034,7.917,35.568,0c3.718-2.655,8.714-2.655,12.432,0
	c9.886,7.492,23.42,7.944,33.784,1.128v145.52l-58.344-58.344c-3.124-3.123-8.188-3.123-11.312,0l-24,24
	c-3.123,3.124-3.123,8.188,0,11.312l96,96c1.505,1.488,3.539,2.319,5.656,2.312h272c4.418,0,8-3.582,8-8v-32c0-4.418-3.582-8-8-8
	H195.312L184,324.688V163.2C188.769,166.288,194.319,167.953,200,168 M192,352h248v16H179.312l-88-88L104,267.313l66.336,66.335
	l16,16C187.836,351.153,189.875,352,192,352 M152,152c-3.022-0.043-5.953-1.046-8.368-2.864c-9.333-6.736-21.931-6.736-31.264,0
	c-4.923,3.824-11.813,3.824-16.736,0c-9.333-6.736-21.931-6.736-31.264,0C61.955,150.957,59.023,151.96,56,152
	c-2.795-0.031-5.517-0.898-7.816-2.488C51.64,84.912,103.864,40,176,40c68.336,0,124,47.92,127.792,109.536
	c-2.296,1.576-5.008,2.434-7.792,2.464c-3.022-0.043-5.953-1.046-8.368-2.864c-9.333-6.736-21.931-6.736-31.264,0
	c-4.923,3.824-11.813,3.824-16.736,0c-9.333-6.736-21.931-6.736-31.264,0c-4.923,3.824-11.813,3.824-16.736,0
	c-9.333-6.736-21.931-6.736-31.264,0C157.955,150.957,155.023,151.96,152,152"/>
<path fill="#D5C2A2" d="M371.552,72c0,20.13,16.318,36.448,36.448,36.448S444.448,92.13,444.448,72S428.13,35.552,408,35.552
	C387.88,35.574,371.574,51.88,371.552,72 M408,51.552c11.293,0,20.448,9.155,20.448,20.448S419.293,92.448,408,92.448
	S387.552,83.293,387.552,72C387.565,60.713,396.712,51.566,408,51.552"/>
<path fill="#D5C2A2" d="M336,72c0,4.418,3.582,8,8,8h14.216c4.419,0,8-3.582,8-8s-3.581-8-8-8H344C339.582,64,336,67.582,336,72"/>
<path fill="#D5C2A2" d="M368.4,21.088c-3.179-3.069-8.243-2.981-11.313,0.197c-2.993,3.1-2.993,8.015,0,11.115l10.065,10.064
	c3.178,3.07,8.242,2.982,11.311-0.196c2.996-3.1,2.996-8.015,0-11.116L368.4,21.088z"/>
<path fill="#D5C2A2" d="M416,22.216V8c0-4.418-3.582-8-8-8s-8,3.582-8,8v14.216c0,4.418,3.582,8,8,8S416,26.634,416,22.216"/>
<path fill="#D5C2A2" d="M458.912,21.088c-3.124-3.123-8.188-3.123-11.313,0l-10.062,10.064c-3.178,3.07-3.266,8.134-0.196,11.312
	c3.069,3.178,8.134,3.266,11.312,0.196c0.067-0.064,0.133-0.129,0.196-0.196L458.912,32.4
	C462.035,29.276,462.035,24.212,458.912,21.088"/>
<path fill="#D5C2A2" d="M472,64h-14.216c-4.419,0-8,3.582-8,8s3.581,8,8,8H472c4.418,0,8-3.582,8-8S476.418,64,472,64"/>
<path fill="#D5C2A2" d="M437.536,101.536c-3.123,3.124-3.123,8.188,0,11.312l10.062,10.064c3.18,3.069,8.244,2.981,11.313-0.196
	c2.994-3.101,2.994-8.016,0-11.116l-10.064-10.064C445.724,98.413,440.66,98.413,437.536,101.536"/>
<path fill="#D5C2A2" d="M400,121.784V136c0,4.418,3.582,8,8,8s8-3.582,8-8v-14.216c0-4.418-3.582-8-8-8S400,117.366,400,121.784"/>
<path fill="#D5C2A2" d="M367.152,101.536L357.088,111.6c-3.178,3.069-3.266,8.134-0.196,11.312
	c3.069,3.178,8.135,3.266,11.312,0.196c0.066-0.064,0.132-0.13,0.196-0.196l10.063-10.064c3.069-3.178,2.981-8.243-0.196-11.312
	C375.167,98.541,370.252,98.541,367.152,101.536"/>
</svg>
