<?xml version="1.0" encoding="utf-8"?>
<!-- Generator: Adobe Illustrator 16.0.0, SVG Export Plug-In . SVG Version: 6.00 Build 0)  -->
<!DOCTYPE svg PUBLIC "-//W3C//DTD SVG 1.1//EN" "http://www.w3.org/Graphics/SVG/1.1/DTD/svg11.dtd">
<svg version="1.1" id="Layer_1" xmlns="http://www.w3.org/2000/svg" xmlns:xlink="http://www.w3.org/1999/xlink" x="0px" y="0px"
	 width="420px" height="512px" viewBox="0 0 420 512" enable-background="new 0 0 420 512" xml:space="preserve">
<path fill="#D5C2A2" d="M209.031,66.062c5.739,0.57,10.645-3.9,10.645-9.625c0-5.365-4.319-9.677-9.676-9.677
	c-5.365,0-9.677,4.32-9.677,9.677C200.323,61.422,204.074,65.57,209.031,66.062"/>
<path fill="#D5C2A2" d="M410,60c-27.57,0-50-22.43-50-50c0-5.522-4.479-10-10-10H70c-5.522,0-10,4.478-10,10c0,27.57-22.43,50-50,50
	C4.478,60,0,64.478,0,70v163.19c0,127.177,82.895,241.135,207.128,278.389c0.937,0.28,1.904,0.421,2.872,0.421
	s1.938-0.141,2.873-0.422C334.415,475.119,420,363.148,420,233.19V70C420,64.478,415.521,60,410,60 M400,233.19
	c0,119.448-76.221,222.892-190,258.353C97.128,456.365,20,351.984,20,233.19V79.288C50.611,74.89,74.89,50.611,79.288,20h261.424
	C345.11,50.611,369.389,74.89,400,79.288V233.19z"/>
<path fill="#D5C2A2" d="M323.819,52.551c-1.544-3.524-5.024-5.8-8.872-5.8h-66.223c-5.349,0-9.687,4.338-9.687,9.686
	c0,5.348,4.338,9.686,9.687,9.686h60.099c10.232,20.032,26.434,36.232,46.466,46.467v121.284
	c0,94.789-56.903,176.578-145.289,209.317c-88.386-32.74-145.29-114.528-145.29-209.317V112.59
	c20.032-10.235,36.233-26.435,46.467-46.467h60.098c5.349,0,9.686-4.338,9.686-9.686c0-5.348-4.337-9.686-9.686-9.686h-66.223
	c-3.847,0-7.328,2.277-8.872,5.8C87.334,72.75,71.338,88.746,51.138,97.593c-3.523,1.543-5.799,5.026-5.799,8.872v127.409
	c0,103.846,64.228,194.352,161.429,228.749c1.046,0.37,2.138,0.555,3.232,0.555s2.187-0.185,3.231-0.555
	c97.12-34.368,161.43-124.819,161.43-228.749V106.465c0-3.847-2.278-7.329-5.8-8.872C348.662,88.746,332.666,72.75,323.819,52.551"
	/>
<path fill="#D5C2A2" d="M120,236c0,49.626,40.374,90,90,90s90-40.374,90-90s-40.374-90-90-90S120,186.374,120,236 M280,236
	c0,38.598-31.402,70-70,70c-38.598,0-70-31.402-70-70c0-38.598,31.402-70,70-70C248.598,166,280,197.402,280,236"/>
<path fill="#D5C2A2" d="M187.071,238.929c-3.906-3.904-10.236-3.904-14.143,0c-3.905,3.905-3.905,10.237,0,14.143l20,20
	C194.882,275.023,197.44,276,200,276c2.56,0,5.118-0.977,7.071-2.929l50-50c3.905-3.905,3.905-10.237,0-14.143
	c-3.905-3.904-10.235-3.904-14.143,0L200,251.857L187.071,238.929z"/>
</svg>
