<?xml version="1.0" encoding="utf-8"?>
<!-- Generator: Adobe Illustrator 16.0.0, SVG Export Plug-In . SVG Version: 6.00 Build 0)  -->
<!DOCTYPE svg PUBLIC "-//W3C//DTD SVG 1.1//EN" "http://www.w3.org/Graphics/SVG/1.1/DTD/svg11.dtd">
<svg version="1.1" id="Layer_1" xmlns="http://www.w3.org/2000/svg" xmlns:xlink="http://www.w3.org/1999/xlink" x="0px" y="0px"
	 width="511.004px" height="391.799px" viewBox="0 0 511.004 391.799" enable-background="new 0 0 511.004 391.799"
	 xml:space="preserve">
<path fill="#D5C2A2" d="M357.699,46.844c0-26.124-21.374-47.247-47.587-46.838c-25.714,0.4-46.097,21.941-46.097,47.658v20.469
	c0,4.705,3.814,8.519,8.52,8.519s8.52-3.814,8.52-8.519V47.505c0-16.271,12.759-30.049,29.024-30.464
	c16.821-0.429,30.589,13.079,30.589,29.803v55.302c0,0.03-0.023,0.053-0.053,0.053H170.388c-0.029,0-0.052-0.023-0.052-0.053V47.661
	c0-25.715-20.38-47.254-46.092-47.655C98.031-0.404,76.652,20.72,76.652,46.844v21.29c0,4.704,3.814,8.518,8.518,8.518
	c4.704,0,8.518-3.814,8.518-8.518V47.511c0-16.266,12.748-30.043,29.009-30.47c16.821-0.44,30.604,13.072,30.604,29.803v208.603
	c0,0.029-0.024,0.054-0.053,0.054H8.515C3.812,255.5,0,259.312,0,264.015s3.812,8.516,8.515,8.516h144.737
	c0.029,0,0.053,0.023,0.053,0.054v35.01c0,0.027-0.02,0.048-0.045,0.052c-9.902,1.354-19.567,4.071-28.729,8.076
	c-12.367,5.543-25.816,8.246-39.363,7.911c-13.555,0.343-27.023-2.364-39.395-7.911c-11.635-5.161-24.074-8.184-36.728-8.957
	C4.143,306.466,0,310.36,0,315.271v0.018c0,4.463,3.442,8.214,7.897,8.489c10.862,0.675,21.534,3.298,31.505,7.769
	c14.395,6.381,30.024,9.496,45.766,9.117c15.73,0.371,31.348-2.738,45.734-9.117c12.368-5.543,25.817-8.246,39.364-7.914
	c13.566-0.34,27.043,2.363,39.422,7.914c14.394,6.379,30.015,9.492,45.757,9.117c15.73,0.375,31.352-2.738,45.742-9.117
	c12.375-5.551,25.844-8.254,39.406-7.914c13.57-0.34,27.047,2.363,39.438,7.914c14.41,6.381,30.051,9.496,45.805,9.117
	c15.738,0.371,31.363-2.742,45.758-9.117c9.976-4.468,20.649-7.091,31.515-7.768c4.454-0.275,7.896-4.026,7.896-8.488v-0.016
	c0-4.912-4.145-8.808-9.047-8.507c-12.655,0.777-25.092,3.799-36.727,8.953c-12.375,5.543-25.84,8.246-39.395,7.911
	c-13.575,0.343-27.055-2.364-39.45-7.911c-9.13-3.982-18.771-6.691-28.642-8.052c-0.026-0.003-0.045-0.026-0.045-0.051v-35.035
	c0-0.03,0.023-0.054,0.053-0.054h144.736c4.703,0,8.516-3.812,8.516-8.516s-3.812-8.515-8.516-8.515H357.752
	c-0.029,0-0.053-0.024-0.053-0.054V46.844z M340.668,306.596h-0.074c-15.73-0.366-31.352,2.747-45.734,9.126
	c-12.383,5.547-25.852,8.25-39.414,7.911c-13.57,0.339-27.043-2.364-39.429-7.911c-14.352-6.364-29.934-9.477-45.627-9.127
	c-0.029,0.001-0.053-0.022-0.053-0.051v-33.96c0-0.03,0.023-0.054,0.052-0.054h170.227c0.029,0,0.053,0.023,0.053,0.054V306.596z
	 M340.615,255.5H170.388c-0.029,0-0.052-0.024-0.052-0.054v-33.962c0-0.027,0.023-0.052,0.052-0.052h170.227
	c0.029,0,0.053,0.024,0.053,0.052v33.962C340.668,255.476,340.645,255.5,340.615,255.5 M340.615,204.401H170.388
	c-0.029,0-0.052-0.022-0.052-0.053v-33.961c0-0.028,0.023-0.052,0.052-0.052h170.227c0.029,0,0.053,0.024,0.053,0.052v33.961
	C340.668,204.379,340.645,204.401,340.615,204.401 M340.615,153.301H170.388c-0.029,0-0.052-0.023-0.052-0.053v-33.966
	c0-0.029,0.023-0.052,0.052-0.052h170.227c0.029,0,0.053,0.023,0.053,0.052v33.966C340.668,153.278,340.645,153.301,340.615,153.301
	"/>
<path fill="#D5C2A2" d="M425.836,374.729c-13.578,0.345-27.055-2.362-39.449-7.909c-14.406-6.388-30.043-9.5-45.793-9.121
	c-15.73-0.371-31.352,2.742-45.734,9.121c-12.383,5.547-25.852,8.254-39.414,7.909c-13.57,0.345-27.043-2.362-39.429-7.909
	c-14.391-6.379-30.012-9.492-45.75-9.121c-15.731-0.371-31.348,2.742-45.735,9.121c-12.367,5.543-25.816,8.246-39.363,7.909
	c-13.559,0.345-27.023-2.362-39.395-7.909c-11.652-5.166-24.11-8.19-36.784-8.957C4.117,357.569,0,361.437,0,366.318v0.116
	c0,4.436,3.421,8.165,7.847,8.438c10.88,0.669,21.569,3.296,31.555,7.771c14.395,6.384,30.024,9.5,45.766,9.125
	c15.73,0.371,31.348-2.746,45.734-9.125c12.368-5.543,25.817-8.246,39.364-7.914c13.566-0.34,27.043,2.363,39.422,7.914
	c14.394,6.379,30.015,9.496,45.757,9.125c15.73,0.371,31.352-2.746,45.742-9.125c12.375-5.551,25.844-8.254,39.406-7.914
	c13.57-0.34,27.047,2.367,39.438,7.914c14.409,6.384,30.051,9.5,45.805,9.125c15.738,0.371,31.363-2.746,45.758-9.125
	c9.99-4.473,20.682-7.099,31.564-7.769c4.426-0.274,7.846-4.003,7.846-8.438v-0.116c0-4.882-4.118-8.75-8.99-8.455
	c-12.673,0.769-25.131,3.793-36.783,8.955C452.855,372.363,439.391,375.07,425.836,374.729"/>
</svg>
