<?xml version="1.0" encoding="utf-8"?>
<!-- Generator: Adobe Illustrator 16.0.0, SVG Export Plug-In . SVG Version: 6.00 Build 0)  -->
<!DOCTYPE svg PUBLIC "-//W3C//DTD SVG 1.1//EN" "http://www.w3.org/Graphics/SVG/1.1/DTD/svg11.dtd">
<svg version="1.1" id="Layer_1" xmlns="http://www.w3.org/2000/svg" xmlns:xlink="http://www.w3.org/1999/xlink" x="0px" y="0px"
	 width="1144.58px" height="1170.28px" viewBox="0 0 1144.58 1170.28" enable-background="new 0 0 1144.58 1170.28"
	 xml:space="preserve">
<g>
	<defs>
		<rect id="SVGID_1_" y="0.003" width="1144.575" height="1170.277"/>
	</defs>
	<clipPath id="SVGID_2_">
		<use xlink:href="#SVGID_1_"  overflow="visible"/>
	</clipPath>
	<path clip-path="url(#SVGID_2_)" fill-rule="evenodd" clip-rule="evenodd" fill="#002F5F" d="M711.438,1124.395
		c-0.287-0.804-0.152-1.64-0.153-2.458c-0.007-31.798-0.002-63.597,0-95.396c0.001-1.905,0.001-1.901-1.949-1.901
		c-4.371-0.001-8.744-0.006-13.115-0.009c0.384-0.382,0.872-0.213,1.313-0.214c4.277-0.015,8.557,0.017,12.836-0.03
		c0.923-0.011,1.264,0.17,1.262,1.188c-0.039,32.3-0.045,64.601-0.062,96.901C711.567,1123.115,711.483,1123.755,711.438,1124.395"
		/>
	<path clip-path="url(#SVGID_2_)" fill-rule="evenodd" clip-rule="evenodd" fill="#009CD7" d="M987.064,1025.178
		c0.208-0.251,0.494-0.202,0.767-0.197c5.012,0.083,10.04-0.286,15.033,0.261c4.965,0.545,10.047,3.278,11.347,9.32
		c0.153,0.709,0.406,1.404,0.572,2.121c0.166,0.72,0.349,1.221,1.18,0.316c2.804-3.05,5.73-5.981,9.254-8.234
		c4.788-3.061,9.919-5.085,15.612-5.842c3.934-0.523,7.825-0.424,11.666,0.197c9.77,1.579,17.194,6.62,21.825,15.52
		c1.111,2.139,1.213,2.186,2.644,0.299c4.042-5.328,9.069-9.423,15.097-12.292c4.028-1.917,8.251-3.093,12.69-3.711
		c4.062-0.566,8.095-0.439,12.083,0.143c11.743,1.712,20.223,7.707,24.514,19.104c1.696,4.506,2.493,9.166,3.007,13.907
		c0.023,0.226-0.001,0.464,0.222,0.617v72.952c-5.02-0.011-10.04,0.082-15.056-0.064c-4.058-0.117-7.92-1.021-10.714-4.333
		c-2.029-2.404-2.933-5.298-2.947-8.375c-0.069-15.839-0.062-31.678-0.073-47.517c-0.004-3.911-0.169-7.812-1.052-11.637
		c-1.046-4.539-3.765-7.951-9.501-8.267c-8.654-0.475-14.679,3.7-19.216,10.589c-2.702,4.102-4.039,8.73-5.081,13.475
		c-0.795,3.612-1.027,7.262-1.025,10.945c0.006,14.55-0.018,29.1,0.036,43.649c0.006,1.31-0.389,1.559-1.603,1.552
		c-8.563-0.05-17.128-0.046-25.692-0.003c-1.133,0.006-1.568-0.159-1.564-1.465c0.052-20.028,0.073-40.057,0.018-60.086
		c-0.011-4.028-0.331-8.051-1.972-11.844c-2.348-5.431-6.872-7.24-12.335-6.905c-6.041,0.37-10.381,3.636-13.816,8.311
		c-3.115,4.243-5.001,9.038-6.195,14.157c-1.115,4.775-1.505,9.595-1.495,14.48c0.026,13.949-0.007,27.901,0.043,41.852
		c0.004,1.235-0.32,1.513-1.523,1.506c-8.562-0.054-17.129-0.049-25.69-0.004c-1.149,0.006-1.574-0.194-1.569-1.48
		c0.053-12.893,0.031-25.785,0.039-38.678c0-0.448-0.113-0.923,0.153-1.348c0.185,0.179,0.178,0.408,0.178,0.64
		c0.003,13.205,0,26.411-0.016,39.616c-0.017,0.186,0.296,0.007,0.112,0.034c-0.044,0.007-0.063-0.015-0.068-0.065
		c-0.043-0.408-0.018-0.819-0.018-1.229c-0.002-33.453-0.002-66.906,0.005-100.359
		C986.938,1026.264,986.803,1025.702,987.064,1025.178"/>
	<path clip-path="url(#SVGID_2_)" fill-rule="evenodd" clip-rule="evenodd" fill="#009CD7" d="M858.334,1052.456
		c0,2.487-0.033,4.976,0.019,7.461c0.016,0.865-0.172,1.211-1.128,1.202c-4.789-0.047-9.583,0.104-14.368-0.058
		c-5.151-0.172-9.07-2.806-10.564-8.301c-0.583-2.151-2.502-3.099-4.402-3.764c-10.021-3.505-22.236-0.278-29.05,7.913
		c-2.934,3.524-4.823,7.573-5.887,12.062c-1.166,4.919-1.343,9.849-0.37,14.765c1.746,8.818,6.534,15.439,14.731,19.382
		c6.142,2.954,12.684,3.738,19.326,2.681c6.634-1.058,12.559-3.984,17.945-8.016c2.312-1.731,4.536-3.544,6.433-5.726
		c0.498-0.574,0.747-0.681,1.187,0.054c3.818,6.366,7.664,12.716,11.508,19.068c0.45,0.745,0.241,1.279-0.321,1.921
		c-3.58,4.069-7.839,7.301-12.415,10.137c-5.038,3.124-10.47,5.393-16.194,6.843c-7.917,2.007-15.947,2.323-24.071,1.302
		c-8.619-1.083-16.633-3.812-23.893-8.544c-9.532-6.215-16.351-14.654-20.338-25.384c-2.61-7.022-3.757-14.265-3.528-21.709
		c0.444-14.493,5.393-27.147,15.85-37.397c6.053-5.935,13.202-10.074,21.294-12.67c5.906-1.896,11.937-2.852,18.112-3.036
		c8.402-0.252,16.558,1.084,24.305,4.335c5.719,2.401,10.758,5.797,13.786,11.504c1.424,2.684,2.105,5.544,2.054,8.587
		c-0.032,1.795-0.006,3.592-0.006,5.388H858.334z"/>
	<path clip-path="url(#SVGID_2_)" fill-rule="evenodd" clip-rule="evenodd" fill="#009CD7" d="M740.744,1130.768
		c-9.256,0.337-17.529-7.585-17.503-17.477c0.029-9.835,8.156-17.417,17.412-17.482c9.591-0.069,17.648,8.115,17.62,17.538
		C758.248,1122.693,750.38,1131.08,740.744,1130.768"/>
	<path clip-path="url(#SVGID_2_)" fill-rule="evenodd" clip-rule="evenodd" fill="#009CD7" d="M987.064,1025.178v104.203
		c-0.412-0.735-0.268-1.243-0.269-1.725c-0.01-12.565-0.008-25.128-0.011-37.693c-0.001-0.597-0.027-1.195-0.041-1.793
		c-0.013-12.43-0.025-24.862-0.032-37.294c-0.004-7.92-0.005-15.84,0.016-23.76C986.729,1026.469,986.466,1025.737,987.064,1025.178
		"/>
	<path clip-path="url(#SVGID_2_)" fill="#009CD7" d="M974.714,1062.834c-0.995-4.406-2.642-8.614-4.78-12.62
		c-4.689-8.779-11.362-15.632-20.017-20.506c-6.811-3.835-14.143-5.993-21.938-6.843c-5.311-0.578-10.567-0.469-15.805,0.267
		c-5.628,0.789-11.054,2.4-16.192,4.892c-8.74,4.236-15.85,10.356-21.041,18.578c-5.842,9.255-8.539,19.423-8.374,30.356
		c0.061,2.714,0.119,5.404,0.476,8.116c0.789,5.999,2.466,11.695,5.107,17.109c3.917,8.025,9.58,14.589,16.949,19.616
		c7.975,5.44,16.881,8.372,26.457,9.259c9.511,0.879,18.8-0.297,27.694-3.787c8.64-3.387,15.934-8.714,21.688-16.049
		c4.063-5.179,7.028-10.917,8.906-17.239c1.218-4.107,1.896-8.276,2.287-12.543C976.704,1075.137,976.095,1068.946,974.714,1062.834
		 M946.787,1076.083c-0.014,7.798-1.5,14.16-5.527,19.749c-3.38,4.688-7.89,7.73-13.54,9.07c-5.721,1.356-11.349,1.04-16.701-1.334
		c-5.405-2.397-9.289-6.5-11.852-11.838c-2.409-5.018-3.415-10.366-3.203-15.866c0.311-8.082,2.534-15.522,8.616-21.284
		c5.458-5.171,12.091-7.062,19.463-6.284c10.565,1.114,17.252,7.242,20.882,16.899
		C946.348,1068.979,946.982,1072.996,946.787,1076.083"/>
	<path clip-path="url(#SVGID_2_)" fill-rule="evenodd" clip-rule="evenodd" fill="#013177" d="M468.938,979.886
		c2.076,0.668,4.2,1.168,6.123,2.287c6.233,3.625,9.683,10.938,8.463,18.083c-1.208,7.071-6.7,12.778-13.663,14.197
		c-9.707,1.979-18.857-4.109-20.702-14.083c-1.769-9.558,4.474-18.338,13.782-20.222c0.261-0.053,0.561,0.006,0.747-0.263H468.938z"
		/>
	<path clip-path="url(#SVGID_2_)" fill-rule="evenodd" clip-rule="evenodd" fill="#013177" d="M443.9,1129.663
		c-9.482-0.217-18.686,0.284-27.878-0.271c-5.143-0.312-9.042-2.849-11.744-7.185c-2.962-4.755-5.348-9.829-7.996-14.757
		c-3.279-6.1-6.535-12.216-9.711-18.37c-0.905-1.754-2.255-2.564-4.105-2.796c-1.326-0.165-2.652-0.28-3.992-0.245
		c-2.115,0.057-1.851-0.329-1.853,1.795c-0.01,12.387-0.005,24.773-0.004,37.16c0,1.15-0.043,2.305,0.015,3.452
		c0.043,0.859-0.166,1.202-1.13,1.197c-9.348-0.036-18.695-0.034-28.043-0.001c-0.867,0.002-1.122-0.25-1.087-1.084
		c0.058-1.334,0.021-2.673,0.021-4.007c0-46.14-0.001-92.279,0.004-138.418c0-2.056-0.21-1.803,1.738-1.779
		c5.476,0.064,10.956-0.199,16.429,0.199c6.289,0.458,10.048,3.286,11.457,8.732c0.474,1.831,0.588,3.724,0.59,5.609
		c0.01,19.708,0.006,39.416,0.006,59.124c0,1.872,0.001,1.893,1.94,1.866c1.564-0.021,3.13-0.051,4.688-0.168
		c2.516-0.19,4.461-1.225,5.894-3.474c6.516-10.225,13.145-20.378,19.703-30.576c0.449-0.698,0.894-1.002,1.744-1
		c10.683,0.029,21.366,0.02,32.049,0.021c0.216,0,0.433,0.02,0.873,0.041c-0.847,1.28-1.59,2.417-2.347,3.544
		c-8.564,12.734-17.125,25.47-25.698,38.196c-1.363,2.024-2.881,3.933-4.61,5.662c-0.344,0.344-0.701,0.608-0.193,1.104
		c3.937,3.85,6.036,8.873,8.439,13.649c6.657,13.227,14.531,25.738,22.167,38.392C442.092,1126.648,442.913,1128.021,443.9,1129.663
		"/>
	<path clip-path="url(#SVGID_2_)" fill-rule="evenodd" clip-rule="evenodd" fill="#013177" d="M528.997,1036.553
		c1.744-1.63,3.274-3.341,5.048-4.806c7.213-5.955,15.534-8.934,24.817-9.344c6.39-0.284,12.683,0.294,18.717,2.562
		c9.638,3.622,15.621,10.652,18.701,20.322c1.702,5.347,2.363,10.855,2.382,16.443c0.032,9.763-0.005,19.525,0.016,29.288
		c0.022,12.291,0.077,24.584,0.108,36.876c0.006,1.99,0.207,1.744-1.797,1.721c-5.108-0.062-10.221,0.187-15.325-0.183
		c-7.952-0.572-12.636-5.314-12.977-13.3c-0.329-7.729-0.101-15.467-0.13-23.2c-0.031-8.703,0.031-17.405-0.018-26.108
		c-0.014-2.616-0.244-5.225-0.902-7.786c-1.47-5.717-5.104-8.496-11.011-8.689c-11.733-0.383-22.256,6.375-25.752,20.279
		c-0.845,3.365-1.26,6.781-1.268,10.236c-0.031,15.702-0.032,31.405,0.01,47.107c0.004,1.288-0.251,1.698-1.635,1.687
		c-8.979-0.071-17.959-0.061-26.938-0.01c-1.172,0.008-1.418-0.337-1.417-1.458c0.018-30.529,0-61.06-0.015-91.59
		c-0.003-3.637-0.028-7.274-0.046-10.912c-0.003-0.553-0.119-1.078,0.787-1.053c5.336,0.153,10.687-0.308,16.009,0.252
		c5.84,0.614,10.933,3.582,12.302,10.692C528.721,1035.878,528.859,1036.162,528.997,1036.553"/>
	<path clip-path="url(#SVGID_2_)" fill-rule="evenodd" clip-rule="evenodd" fill="#013177" d="M452.498,1077.164
		c0-17.077-0.001-34.153,0.004-51.229c0-0.604-0.21-1.293,0.889-1.265c5.472,0.147,10.955-0.251,16.42,0.214
		c7.273,0.619,11.71,5.102,12.44,12.391c0.134,1.331,0.195,2.659,0.195,3.994c-0.005,28.954-0.011,57.907,0.026,86.861
		c0.002,1.206-0.26,1.53-1.504,1.522c-8.976-0.062-17.952-0.063-26.928,0.002c-1.274,0.009-1.48-0.371-1.478-1.535
		c0.038-16.985,0.026-33.971,0.026-50.957C452.559,1077.164,452.527,1077.164,452.498,1077.164"/>
	<path clip-path="url(#SVGID_2_)" fill="#013177" d="M82.069,1054.449c-1.022-0.545-2.011-1.154-3.102-1.783
		c0.745-0.646,1.359-1.197,1.995-1.726c2.339-1.944,4.558-4.004,6.406-6.442c5.55-7.328,7.677-15.646,7.181-24.721
		c-0.712-13.026-6.767-22.766-18.125-29.145c-7.971-4.476-16.698-6.089-25.715-6.179c-11.878-0.117-23.758-0.075-35.637-0.008
		c-4.822,0.026-8.775,2.042-11.845,5.796c-1.699,2.08-2.509,4.539-3.227,7.053v131.812c0.506-0.013,1.011-0.036,1.517-0.036
		c16.484-0.001,32.967,0.01,49.45-0.007c7.126-0.007,14.116-0.988,20.869-3.307c9.935-3.408,18.132-9.118,23.343-18.457
		c5.168-9.262,6.314-19.209,4.135-29.492C97.122,1067.466,91.532,1059.496,82.069,1054.449 M27.886,1029.254h0.034
		c0-3.957-0.097-7.916,0.023-11.87c0.175-5.757,2.847-8.753,8.569-9.049c5.545-0.287,11.139-0.562,16.665,0.26
		c6.885,1.022,11.388,5.341,12.712,12.146c1.161,5.974,0.379,11.655-3.464,16.585c-3.078,3.95-7.399,5.48-12.247,5.541
		c-7.038,0.087-14.079,0.003-21.119,0.046c-0.986,0.006-1.208-0.293-1.196-1.236C27.915,1037.536,27.886,1033.395,27.886,1029.254
		 M67.527,1097.971c-3.515,4.481-8.393,6.368-13.891,6.479c-8.238,0.164-16.483,0.027-24.724,0.066
		c-0.897,0.003-1.048-0.298-1.043-1.102c0.033-4.973,0.017-9.947,0.017-14.92h0.037c0-4.742-0.092-9.487,0.023-14.228
		c0.143-5.912,3.344-8.934,9.216-8.934c5.204,0,10.41-0.099,15.61,0.024c6.669,0.159,12.328,2.464,15.992,8.383
		C73.042,1080.652,72.484,1091.65,67.527,1097.971"/>
	<path clip-path="url(#SVGID_2_)" fill="#013177" d="M710.149,1024.492c-3.313,0.071-6.627,0.009-9.941,0.036
		c-1.329,0.01-2.666-0.146-3.988,0.103c-5.482,0.083-9.263,2.749-11.556,7.714c-2.078-1.869-4.207-3.543-6.586-4.872
		c-9.119-5.09-18.974-6.311-29.111-4.912c-17.662,2.438-29.668,12.352-35.979,28.885c-5.18,13.566-5.318,27.508-1.44,41.441
		c2.636,9.464,7.531,17.632,15.11,24.011c9.443,7.945,20.496,10.995,32.67,10.418c8.004-0.38,15.356-2.613,21.623-7.822
		c0.158-0.13,0.317-0.359,0.654-0.191c0.147,1.843,0.052,3.71-0.149,5.57c-0.786,7.262-4.193,12.767-10.962,15.854
		c-7.361,3.358-15.088,3.192-22.872,2.044c-4.328-0.64-8.45-2.071-12.634-3.288c-5.105-1.485-8.551,0.148-10.899,4.891
		c-0.224,0.452-0.45,0.906-0.638,1.374c-1.782,4.47-3.531,8.954-5.353,13.409c-0.379,0.924-0.19,1.302,0.678,1.77
		c7.712,4.158,15.928,6.802,24.541,8.27c2.472,0.42,4.965,0.727,7.449,1.086h11.33c0.184-0.285,0.481-0.218,0.745-0.236
		c3.629-0.255,7.202-0.858,10.728-1.735c9.335-2.32,17.817-6.317,24.742-13.143c8.566-8.444,12.489-18.92,13.126-30.772
		c-0.039-0.552-0.02-1.104-0.02-1.654c-0.001-32.033-0.001-64.064-0.001-96.097c0-0.276-0.034-0.558,0.006-0.828
		C711.577,1024.803,711.211,1024.47,710.149,1024.492 M680.008,1088.802c-2.858,7.759-9.174,12.225-17.486,12.333
		c-10.393,0.138-17.623-4.924-20.894-14.813c-2.861-8.661-2.972-17.373,0.404-25.912c3.034-7.671,8.91-11.564,17.123-11.843
		c4.306-0.146,8.558,0.271,12.483,2.264c5.428,2.757,8.074,7.551,9.463,13.208c0.847,3.457,1.091,6.988,1.119,10.842
		C682.163,1079.423,681.701,1084.204,680.008,1088.802"/>
	<path clip-path="url(#SVGID_2_)" fill="#013177" d="M306.712,1028.395c-14.338-7.022-29.381-7.765-44.521-2.915
		c-15.527,4.974-26.389,15.217-32.355,30.445c-4.171,10.645-4.851,21.656-2.649,32.811c2.546,12.887,8.886,23.545,19.416,31.532
		c10.078,7.645,21.614,10.864,34.134,10.95c4.759,0.028,9.461-0.452,14.081-1.573c15.952-3.87,28.014-12.852,35.312-27.654
		c5.917-12,7.075-24.717,4.26-37.745C330.866,1047.935,321.708,1035.74,306.712,1028.395 M306.307,1077.06
		c-0.042,7.212-1.617,13.979-6.22,19.719c-5.286,6.593-12.348,9.244-20.675,8.901c-11.74-0.483-20.695-8.791-23.174-21.082
		c-1.774-8.794-0.966-17.337,3.834-25.133c5.305-8.617,14.22-12.524,24.215-11.138c11.126,1.543,17.659,8.441,20.78,18.91
		C306.019,1070.431,306.375,1073.721,306.307,1077.06"/>
	<path clip-path="url(#SVGID_2_)" fill="#013177" d="M189.587,1028.51c-12.88-6.454-26.53-7.591-40.42-4.274
		c-16.554,3.953-28.664,13.691-35.703,29.314c-4.673,10.374-5.722,21.296-4.069,32.497c1.823,12.34,7.114,22.927,16.391,31.341
		c10.659,9.667,23.452,13.709,37.647,13.835c5.512,0.035,10.936-0.624,16.225-2.131c15.335-4.366,26.758-13.528,33.555-28.052
		c5.38-11.495,6.469-23.603,3.978-35.966C213.855,1048.521,204.754,1036.11,189.587,1028.51 M185.018,1093.308
		c-4.062,7.54-10.653,11.56-19.196,12.309c-13.781,1.208-23.853-7.552-26.791-20.264c-0.226-0.982-0.387-1.982-0.553-2.977
		c-0.304-1.821-0.405-3.655-0.358-5.505c0.028-7.407,1.725-14.308,6.544-20.128c5.803-7.011,13.46-9.573,22.288-8.414
		c9.959,1.31,16.581,7.134,19.919,16.436C190.348,1074.459,189.949,1084.154,185.018,1093.308"/>
	<path clip-path="url(#SVGID_2_)" fill="#DDC3A2" d="M978.861,441.754c0-224.545-182.028-406.574-406.573-406.574
		c-224.545,0-406.574,182.029-406.574,406.574c0,224.544,182.029,406.573,406.574,406.573
		C796.833,848.327,978.861,666.298,978.861,441.754"/>
	
		<circle clip-path="url(#SVGID_2_)" fill="none" stroke="#DDC3A2" stroke-width="5" stroke-miterlimit="10" cx="572.287" cy="441.754" r="439.25"/>
</g>
<text transform="matrix(1 0 0 1 329.8364 536.9922)"><tspan x="0" y="0" fill="#FFFFFF" font-family="'Gilroy-Bold'" font-size="361.9457" letter-spacing="-32">9</tspan><tspan x="153.459" y="0" fill="#FFFFFF" font-family="'Gilroy-Bold'" font-size="361.9457" letter-spacing="18">,</tspan><tspan x="246.474" y="0" fill="#FFFFFF" font-family="'Gilroy-Bold'" font-size="361.9457">5</tspan></text>
<text transform="matrix(1 0 0 1 380.8247 685.8848)"><tspan x="0" y="0" fill="#FFFFFF" font-family="'Gilroy-Medium'" font-size="87.3073" letter-spacing="4">o</tspan><tspan x="52.297" y="0" fill="#FFFFFF" font-family="'Gilroy-Medium'" font-size="87.3073" letter-spacing="4">u</tspan><tspan x="104.681" y="0" fill="#FFFFFF" font-family="'Gilroy-Medium'" font-size="87.3073" letter-spacing="4">t</tspan><tspan x="137.944" y="0" fill="#FFFFFF" font-family="'Gilroy-Medium'" font-size="87.3073" letter-spacing="4"> </tspan><tspan x="160.73" y="0" fill="#FFFFFF" font-family="'Gilroy-Medium'" font-size="87.3073" letter-spacing="2">o</tspan><tspan x="211.281" y="0" fill="#FFFFFF" font-family="'Gilroy-Medium'" font-size="87.3073" letter-spacing="4">f</tspan><tspan x="241.052" y="0" fill="#FFFFFF" font-family="'Gilroy-Medium'" font-size="87.3073" letter-spacing="4"> 1</tspan><tspan x="313.079" y="0" fill="#FFFFFF" font-family="'Gilroy-Medium'" font-size="87.3073">0</tspan></text>
</svg>
