<?xml version="1.0" encoding="utf-8"?>
<!-- Generator: Adobe Illustrator 16.0.0, SVG Export Plug-In . SVG Version: 6.00 Build 0)  -->
<!DOCTYPE svg PUBLIC "-//W3C//DTD SVG 1.1//EN" "http://www.w3.org/Graphics/SVG/1.1/DTD/svg11.dtd">
<svg version="1.1" id="Layer_1" xmlns="http://www.w3.org/2000/svg" xmlns:xlink="http://www.w3.org/1999/xlink" x="0px" y="0px"
	 width="170.657px" height="65.322px" viewBox="0 0 170.657 65.322" enable-background="new 0 0 170.657 65.322"
	 xml:space="preserve">
<path fill-rule="evenodd" clip-rule="evenodd" fill="#FFFFFF" d="M26.076,50.857c-1.356,0.914-2.996,1.304-4.904,1.154
	c-1.908-0.15-3.61-0.438-5.095-0.849c-5.946-1.646-10.119-4.397-12.42-7.991c-2.306-3.601-2.828-6.967-1.729-10.058
	c0.512-1.443,1.435-2.74,2.748-3.904c1.314-1.165,2.869-2.074,4.663-2.745s3.838-1.04,6.138-1.131
	c2.301-0.09,4.719,0.227,7.286,0.939c5.011,1.391,9.669,3.309,14.093,5.818c4.423,2.507,8.751,5.243,13.033,8.228
	c4.282,2.985,8.708,6.056,13.308,9.199c4.598,3.144,9.576,5.996,14.912,8.505c5.335,2.51,11.105,4.49,17.246,5.874
	c6.14,1.385,12.894,1.786,20.089,1.09c3.526-0.34,7.074-1.191,10.594-2.554s6.601-3.07,9.227-5.08
	c2.627-2.008,4.668-4.242,6.137-6.657c1.47-2.417,2.111-4.907,1.975-7.451c0.522-0.111,1.044-0.226,1.565-0.341
	c5.215-1.152,9.684-2.923,13.331-5.19c3.649-2.269,6.477-4.805,8.488-7.523c2.014-2.72,3.229-5.572,3.685-8.513
	c0.457-2.945,0.171-5.752-0.793-8.429c-1.262-3.501-3.201-6.17-5.741-8.068c-2.54-1.899-5.319-3.243-8.349-4.068
	c-3.03-0.826-6.144-1.186-9.388-1.099c-3.246,0.087-6.264,0.44-9.098,1.085c-5.121,1.164-9.466,2.832-13.147,5.145
	c-3.681,2.313-6.54,4.803-8.545,7.575c-0.192,0.354-0.189,0.629,0.009,0.826c0.2,0.197,0.459,0.166,0.78-0.093
	c2.196-3.134,5.161-5.6,8.919-7.5c3.76-1.902,7.847-3.329,12.349-4.353c3.075-0.699,6.126-1.014,9.206-0.942
	c3.078,0.071,5.899,0.549,8.486,1.468c2.587,0.917,4.896,2.232,6.925,3.976c2.028,1.742,3.552,3.992,4.517,6.785
	c1.287,3.722,1.518,7.151,0.599,10.283c-0.918,3.13-2.521,5.921-4.812,8.328c-2.291,2.406-5.074,4.394-8.311,5.919
	c-3.238,1.523-6.372,2.607-9.357,3.267c-0.454,0.101-0.909,0.199-1.364,0.298c-0.022-0.106-0.045-0.214-0.067-0.321
	c-0.3-1.391-0.883-2.831-1.733-4.329c-0.85-1.497-1.961-2.858-3.318-4.091c-1.359-1.232-2.965-2.17-4.813-2.831
	c-1.851-0.66-3.932-0.794-6.278-0.421c-2.098,0.333-3.508,1.03-4.245,2.128c-0.733,1.097-1.028,2.24-0.868,3.433
	c0.378,2.815,2.391,5.076,6.157,6.654c3.762,1.573,8.483,2.021,14.039,1.191c0.165,2.09-0.412,4.254-1.779,6.479
	c-1.368,2.221-3.257,4.307-5.676,6.221c-2.419,1.915-5.314,3.567-8.677,4.911c-3.361,1.343-6.962,2.21-10.752,2.577
	c-4.913,0.475-10.015,0.063-15.176-1.256c-5.159-1.317-10.324-3.189-15.417-5.617c-5.091-2.43-10.215-5.17-15.321-8.238
	s-10.151-6.13-15.147-9.19c-4.997-3.062-10.012-5.883-15.104-8.488c-5.093-2.605-10.365-4.652-15.95-6.201
	c-5.098-1.415-9.671-1.407-13.919,0.111c-4.239,1.515-7.136,4.145-8.549,8.061c-0.815,2.264-0.959,4.453-0.391,6.569
	c0.567,2.113,1.595,4.033,3.087,5.739c1.492,1.707,3.341,3.192,5.535,4.435c2.194,1.244,4.455,2.186,6.762,2.824
	c1.899,0.524,4.042,0.696,6.4,0.502c2.361-0.197,3.985-0.717,4.884-1.517c0.209-0.287,0.185-0.49-0.071-0.606
	C26.683,50.693,26.395,50.708,26.076,50.857 M142.159,42.329c-4.987,0.825-9.304,0.496-12.838-0.875
	c-3.537-1.376-5.424-3.309-5.758-5.688c-0.122-0.868,0.086-1.67,0.617-2.41c0.533-0.741,1.479-1.211,2.848-1.426
	c1.865-0.293,3.638-0.179,5.341,0.35c1.704,0.529,3.21,1.3,4.523,2.325c1.312,1.026,2.441,2.192,3.378,3.507
	c0.938,1.314,1.562,2.665,1.854,4.057L142.159,42.329z"/>
</svg>
