<?xml version="1.0" encoding="utf-8"?>
<!-- Generator: Adobe Illustrator 16.0.0, SVG Export Plug-In . SVG Version: 6.00 Build 0)  -->
<!DOCTYPE svg PUBLIC "-//W3C//DTD SVG 1.1//EN" "http://www.w3.org/Graphics/SVG/1.1/DTD/svg11.dtd">
<svg version="1.1" id="Layer_1" xmlns="http://www.w3.org/2000/svg" xmlns:xlink="http://www.w3.org/1999/xlink" x="0px" y="0px"
	 width="17.953px" height="7.311px" viewBox="0 0 17.953 7.311" enable-background="new 0 0 17.953 7.311" xml:space="preserve">
<path fill="#FFFFFF" d="M15.596,5.484c0.629-0.055,1.203-0.207,1.717-0.462l0.642-0.391l-0.013-0.03l-0.022,0.011
	c-0.571,0.279-1.271,0.431-2.096,0.462c0.069-0.147,0.14-0.307,0.215-0.483c0.215-0.884,0.16-1.655-0.163-2.313
	c-0.488-1.022-1.211-1.722-2.173-2.103c-0.79-0.252-1.574-0.231-2.347,0.059l-0.108,0.035c-0.64,0.236-1.124,0.658-1.454,1.272
	l0.02-0.013c0.338-0.372,0.803-0.669,1.392-0.888l0.269-0.107c0.654-0.171,1.313-0.174,1.979-0.012
	c0.601,0.208,0.963,0.385,1.091,0.533c0.348,0.237,0.633,0.521,0.852,0.857l0.229,0.384c0.294,0.615,0.396,1.29,0.311,2.024
	c-0.092,0.351-0.172,0.604-0.24,0.761c-0.362,0.002-0.748-0.018-1.153-0.054c-0.649-0.069-1.407-0.249-2.278-0.534L7.669,2.895
	C6.38,2.498,5.276,2.119,4.358,1.76C3.444,1.402,2.593,1.368,1.806,1.656c-0.785,0.287-1.33,0.817-1.625,1.592
	c-0.297,0.773-0.228,1.523,0.205,2.25c0.438,0.728,1.189,1.054,2.262,0.98C1.735,6.243,1.12,5.832,0.81,5.242
	S0.455,4.052,0.677,3.447c0.225-0.61,0.672-1.074,1.354-1.396c0.679-0.319,2.42,0.076,5.223,1.184
	c3.823,1.368,5.815,2.051,5.966,2.048c0.81,0.186,1.56,0.258,2.248,0.218c-0.166,0.257-0.373,0.488-0.613,0.692
	c-0.317,0.249-0.57,0.407-0.756,0.477l-0.334,0.12C13.01,7.07,12.135,7.07,11.143,6.788c-0.455-0.069-1.811-0.625-4.073-1.672
	C4.804,4.066,3.155,3.9,2.125,4.612c1.024-0.38,2.567-0.093,4.616,0.855c2.051,0.949,3.375,1.486,3.972,1.615
	c0.586,0.134,1.088,0.21,1.51,0.228c0.5-0.006,0.832-0.041,0.998-0.104l0.439-0.164c0.531-0.198,1.089-0.593,1.676-1.191
	C15.428,5.747,15.512,5.626,15.596,5.484"/>
</svg>
