<?xml version="1.0" encoding="utf-8"?>
<!-- Generator: Adobe Illustrator 16.0.0, SVG Export Plug-In . SVG Version: 6.00 Build 0)  -->
<!DOCTYPE svg PUBLIC "-//W3C//DTD SVG 1.1//EN" "http://www.w3.org/Graphics/SVG/1.1/DTD/svg11.dtd">
<svg version="1.1" id="Layer_1" xmlns="http://www.w3.org/2000/svg" xmlns:xlink="http://www.w3.org/1999/xlink" x="0px" y="0px"
	 width="105.434px" height="27.066px" viewBox="0 0 105.434 27.066" enable-background="new 0 0 105.434 27.066"
	 xml:space="preserve">
<path fill="#FFFFFF" d="M0.5,14.693c0,1.764,0.502,3.262,1.505,4.498c1.004,1.232,2.244,2.248,3.721,3.041
	c1.476,0.793,3.04,1.365,4.692,1.719c1.654,0.352,3.189,0.529,4.605,0.529c0.944,0,2.392-0.133,4.34-0.396
	c1.949-0.264,4.074-0.838,6.377-1.719c2.302-0.883,4.694-2.074,7.173-3.572c2.48-1.5,4.723-3.482,6.731-5.952
	c3.069,1.411,6.257,2.909,9.563,4.497s6.612,3.041,9.918,4.365c3.308,1.322,6.524,2.381,9.654,3.174
	c3.129,0.793,6.11,1.191,8.944,1.191c2.008,0,4.486-0.311,7.438-0.928c2.952-0.615,5.875-1.852,8.767-3.701
	c2.894-1.854,5.492-4.498,7.795-7.938c1.274-1.902,2.322-4.144,3.146-6.724c0.207-0.649-0.116-1.381-0.597-1.387h-0.014h-0.006
	c-0.248-0.007-0.478,0.197-0.59,0.527c-0.867,2.551-2.015,4.684-3.445,6.393c-2.361,2.822-4.959,4.939-7.793,6.349
	c-2.834,1.412-5.58,2.295-8.236,2.646c-2.657,0.352-4.635,0.529-5.934,0.529c-6.73,0-13.107-1.236-19.13-3.705
	c-6.021-2.467-11.926-4.938-17.711-7.406c0.945-1.41,1.771-2.82,2.479-4.23c0.709-1.412,1.357-3.087,1.947-5.027
	c0.118-0.882,0.03-1.367-0.265-1.455c-0.295-0.088-0.561,0.309-0.798,1.191c-0.708,3.173-2.243,6.171-4.605,8.992
	c-3.896-1.586-7.763-2.996-11.601-4.231c-3.838-1.233-7.763-1.851-11.778-1.851c-5.668,0-9.801,1.189-12.398,3.57
	C1.798,10.064,0.5,12.4,0.5,14.693z M3.157,14.958c0-2.47,1.327-4.586,3.984-6.349c2.657-1.764,6.819-2.646,12.486-2.646
	c2.363,0,5.138,0.617,8.326,1.853c3.188,1.233,6.611,2.732,10.273,4.494c-3.071,3-6.644,5.38-10.717,7.144
	c-4.073,1.762-8,2.645-11.779,2.645c-3.424,0-6.375-0.75-8.855-2.25C4.396,18.351,3.157,16.72,3.157,14.958z"/>
</svg>
