<?xml version="1.0" encoding="utf-8"?>
<!-- Generator: Adobe Illustrator 16.0.0, SVG Export Plug-In . SVG Version: 6.00 Build 0)  -->
<!DOCTYPE svg PUBLIC "-//W3C//DTD SVG 1.1//EN" "http://www.w3.org/Graphics/SVG/1.1/DTD/svg11.dtd">
<svg version="1.1" id="Layer_1" xmlns="http://www.w3.org/2000/svg" xmlns:xlink="http://www.w3.org/1999/xlink" x="0px" y="0px"
	 width="105.434px" height="27.066px" viewBox="0 0 105.434 27.066" enable-background="new 0 0 105.434 27.066"
	 xml:space="preserve">
<path fill="#FFFFFF" d="M101.037,7.684c-2.598-2.381-6.73-3.57-12.398-3.57c-4.016,0-7.94,0.617-11.778,1.851
	c-3.838,1.235-7.705,2.646-11.601,4.231c-2.362-2.821-3.897-5.819-4.605-8.992c-0.237-0.882-0.503-1.279-0.798-1.191
	c-0.295,0.088-0.383,0.573-0.265,1.455c0.59,1.94,1.238,3.615,1.947,5.027c0.709,1.41,1.534,2.82,2.479,4.23
	c-5.785,2.468-11.69,4.939-17.711,7.406c-6.022,2.469-12.399,3.705-19.13,3.705c-1.298,0-3.276-0.178-5.933-0.529
	c-2.657-0.352-5.402-1.234-8.236-2.646c-2.834-1.41-5.432-3.527-7.794-6.349c-1.43-1.709-2.577-3.842-3.445-6.393
	C1.657,5.588,1.428,5.384,1.18,5.391H1.173H1.16C0.679,5.396,0.356,6.128,0.563,6.777c0.823,2.58,1.871,4.822,3.146,6.724
	c2.303,3.439,4.901,6.084,7.794,7.938c2.892,1.85,5.815,3.086,8.767,3.701c2.952,0.617,5.431,0.928,7.438,0.928
	c2.835,0,5.816-0.398,8.945-1.191c3.13-0.793,6.347-1.852,9.654-3.174c3.306-1.324,6.611-2.777,9.918-4.365s6.494-3.086,9.563-4.497
	c2.009,2.469,4.251,4.452,6.731,5.952c2.479,1.498,4.871,2.689,7.173,3.572c2.303,0.881,4.428,1.455,6.377,1.719
	c1.948,0.264,3.396,0.396,4.34,0.396c1.416,0,2.951-0.178,4.605-0.529c1.652-0.354,3.217-0.926,4.692-1.719
	c1.477-0.793,2.717-1.809,3.721-3.041c1.003-1.236,1.505-2.734,1.505-4.498C104.934,12.4,103.636,10.064,101.037,7.684z
	 M98.558,19.849c-2.48,1.5-5.432,2.25-8.855,2.25c-3.779,0-7.706-0.883-11.779-2.645c-4.073-1.764-7.646-4.145-10.717-7.144
	c3.662-1.762,7.085-3.261,10.273-4.494c3.188-1.235,5.963-1.853,8.326-1.853c5.667,0,9.829,0.882,12.486,2.646
	c2.657,1.763,3.984,3.879,3.984,6.349C102.276,16.72,101.037,18.351,98.558,19.849z"/>
</svg>
