<?xml version="1.0" encoding="utf-8"?>
<!-- Generator: Adobe Illustrator 16.0.0, SVG Export Plug-In . SVG Version: 6.00 Build 0)  -->
<!DOCTYPE svg PUBLIC "-//W3C//DTD SVG 1.1//EN" "http://www.w3.org/Graphics/SVG/1.1/DTD/svg11.dtd">
<svg version="1.1" id="Layer_1" xmlns="http://www.w3.org/2000/svg" xmlns:xlink="http://www.w3.org/1999/xlink" x="0px" y="0px"
	 width="17.953px" height="7.31px" viewBox="0 0 17.953 7.31" enable-background="new 0 0 17.953 7.31" xml:space="preserve">
<path fill="#D5C1A1" d="M2.358,5.484c0.084,0.142,0.169,0.263,0.26,0.366c0.587,0.599,1.144,0.994,1.676,1.192l0.439,0.164
	C4.9,7.269,5.231,7.304,5.731,7.31c0.422-0.017,0.924-0.093,1.51-0.227c0.597-0.129,1.921-0.666,3.972-1.615
	c2.049-0.949,3.592-1.236,4.616-0.856c-1.03-0.712-2.678-0.546-4.944,0.504C8.622,6.163,7.266,6.719,6.812,6.788
	C5.819,7.07,4.944,7.07,4.191,6.789l-0.334-0.12C3.671,6.599,3.418,6.441,3.101,6.192C2.86,5.988,2.654,5.757,2.488,5.5
	c0.688,0.04,1.438-0.032,2.248-0.218c0.15,0.003,2.142-0.68,5.965-2.048c2.803-1.107,4.544-1.503,5.223-1.183
	c0.682,0.322,1.129,0.786,1.354,1.396c0.221,0.606,0.177,1.205-0.134,1.795c-0.31,0.59-0.925,1.001-1.837,1.236
	c1.072,0.074,1.824-0.253,2.261-0.98c0.433-0.727,0.502-1.477,0.205-2.25c-0.295-0.775-0.839-1.305-1.625-1.592
	c-0.786-0.288-1.638-0.254-2.552,0.105c-0.918,0.358-2.022,0.737-3.311,1.134L5.693,4.493c-0.872,0.285-1.63,0.465-2.279,0.534
	C3.009,5.063,2.623,5.083,2.261,5.081C2.192,4.925,2.113,4.671,2.021,4.32c-0.086-0.734,0.016-1.409,0.31-2.024l0.229-0.384
	c0.219-0.336,0.503-0.62,0.851-0.858c0.128-0.148,0.491-0.325,1.091-0.533c0.666-0.162,1.325-0.159,1.98,0.012L6.75,0.64
	c0.589,0.219,1.053,0.516,1.391,0.888l0.02,0.013C7.831,0.927,7.347,0.505,6.707,0.268L6.599,0.233
	c-0.773-0.29-1.557-0.31-2.347-0.058c-0.962,0.38-1.685,1.08-2.173,2.102c-0.323,0.658-0.378,1.43-0.163,2.314
	c0.075,0.176,0.146,0.336,0.215,0.483C1.306,5.043,0.606,4.891,0.035,4.612L0.013,4.601L0,4.632l0.642,0.39
	C1.156,5.277,1.729,5.429,2.358,5.484"/>
</svg>
