<?xml version="1.0" encoding="utf-8"?>
<!-- Generator: Adobe Illustrator 16.0.0, SVG Export Plug-In . SVG Version: 6.00 Build 0)  -->
<!DOCTYPE svg PUBLIC "-//W3C//DTD SVG 1.1//EN" "http://www.w3.org/Graphics/SVG/1.1/DTD/svg11.dtd">
<svg version="1.1" id="Layer_1" xmlns="http://www.w3.org/2000/svg" xmlns:xlink="http://www.w3.org/1999/xlink" x="0px" y="0px"
	 width="17.953px" height="7.31px" viewBox="0 0 17.953 7.31" enable-background="new 0 0 17.953 7.31" xml:space="preserve">
<path fill="#D5C1A1" d="M15.595,5.484c-0.084,0.142-0.169,0.263-0.26,0.366c-0.587,0.599-1.144,0.994-1.676,1.192L13.22,7.207
	c-0.167,0.062-0.498,0.098-0.998,0.104c-0.422-0.017-0.924-0.093-1.51-0.227C10.115,6.955,8.791,6.417,6.74,5.468
	C4.691,4.519,3.149,4.232,2.124,4.612C3.155,3.9,4.802,4.066,7.068,5.116c2.263,1.047,3.62,1.604,4.073,1.672
	c0.993,0.282,1.868,0.282,2.621,0.001l0.334-0.12c0.187-0.069,0.439-0.228,0.757-0.477c0.24-0.204,0.446-0.435,0.612-0.692
	c-0.688,0.04-1.438-0.032-2.248-0.218c-0.15,0.003-2.142-0.68-5.965-2.048C4.449,2.127,2.708,1.731,2.029,2.051
	C1.348,2.373,0.9,2.837,0.676,3.447C0.455,4.053,0.499,4.652,0.81,5.242c0.31,0.59,0.924,1.001,1.837,1.236
	c-1.073,0.074-1.824-0.253-2.261-0.98c-0.433-0.727-0.502-1.477-0.205-2.25c0.295-0.775,0.838-1.305,1.625-1.592
	c0.786-0.288,1.637-0.254,2.552,0.105c0.918,0.358,2.022,0.737,3.31,1.134l4.592,1.598c0.872,0.285,1.63,0.465,2.279,0.534
	c0.405,0.036,0.791,0.056,1.153,0.054c0.068-0.155,0.147-0.409,0.239-0.761c0.086-0.734-0.016-1.409-0.31-2.024l-0.229-0.384
	c-0.219-0.336-0.503-0.62-0.851-0.858c-0.128-0.148-0.491-0.325-1.091-0.533c-0.666-0.162-1.325-0.159-1.98,0.012L11.203,0.64
	c-0.589,0.219-1.053,0.516-1.391,0.888l-0.02,0.013c0.329-0.614,0.813-1.036,1.453-1.273l0.108-0.035
	c0.773-0.29,1.557-0.31,2.347-0.058c0.962,0.38,1.685,1.08,2.173,2.102c0.323,0.658,0.378,1.43,0.163,2.314
	c-0.075,0.176-0.146,0.336-0.215,0.483c0.825-0.031,1.524-0.184,2.096-0.463l0.022-0.011l0.013,0.031l-0.642,0.39
	C16.797,5.277,16.225,5.429,15.595,5.484"/>
</svg>
