<?xml version="1.0" encoding="utf-8"?>
<!-- Generator: Adobe Illustrator 16.0.0, SVG Export Plug-In . SVG Version: 6.00 Build 0)  -->
<!DOCTYPE svg PUBLIC "-//W3C//DTD SVG 1.1//EN" "http://www.w3.org/Graphics/SVG/1.1/DTD/svg11.dtd">
<svg version="1.1" id="Layer_1" xmlns="http://www.w3.org/2000/svg" xmlns:xlink="http://www.w3.org/1999/xlink" x="0px" y="0px"
	 width="67.123px" height="69.281px" viewBox="0 0 67.123 69.281" enable-background="new 0 0 67.123 69.281" xml:space="preserve">
<text transform="matrix(0.9845 0.1753 -0.1753 0.9845 27.291 67.439)" fill="#009A89" font-family="'Novecentowide-Bold'" font-size="6.5"> </text>
<text transform="matrix(0.9225 -0.3859 0.3859 0.9225 45.333 65.9019)" fill="#009A89" font-family="'Novecentowide-Bold'" font-size="6.5"> </text>
<polygon fill="#2E3548" points="0,20.315 2.148,21.644 2.491,20.659 8.332,24.549 9.706,22.113 6.291,20.239 7.412,18.536 
	5.689,17.435 4.25,20.14 2.579,19.002 4.796,15.48 3.25,14.523 "/>
<polygon fill="#2E3548" points="8.617,9.579 10.365,11.403 10.944,10.534 15.629,15.758 17.567,13.743 14.73,11.075 16.241,9.704 
	14.845,8.209 12.777,10.469 11.443,8.952 14.47,6.093 13.212,4.78 "/>
<path fill="#2E3548" d="M12.285,15.278c-0.198-0.326-0.512-0.708-0.512-0.708l-0.764,1.163l0.621,0.696l-1.294,0.107l-0.469-2.114
	l-1.706-0.354l-0.616,1.181l0.382,1.609l1.957,0.288l0.121,1.199l1.338,0.899c0,0,1.055-0.666,1.433-1.101l0.379-0.433l-0.081-0.799
	l0.685-0.125l-0.089-0.706l-0.754,0.168C12.916,16.248,12.482,15.604,12.285,15.278 M8.58,14.769l0.888,0.808l0.065,0.82
	l-1.272-0.779L8.58,14.769z M12.15,17.577c-0.055,0.193-0.504,0.837-0.504,0.837s-0.225-0.211-0.365-0.322
	c-0.138-0.111-0.617-0.86-0.617-0.86c0.155,0.09,1.556-0.031,1.556-0.031S12.204,17.388,12.15,17.577"/>
<path fill-rule="evenodd" clip-rule="evenodd" fill="#2E3548" d="M55.133,7.167C55.206,7,55.639,6.049,55.729,5.848
	c-2.216-1.305-4.416-2.6-6.617-3.896c-0.498,0.847-0.994,1.689-1.513,2.571c0.579,0.307,1.138,0.603,1.731,0.916
	c-1.208,1.73-2.389,3.419-3.597,5.149c0.913,0.483,1.784,0.946,2.636,1.394c1.305-2.214,2.582-4.385,3.833-6.511L55.133,7.167z"/>
<path fill-rule="evenodd" clip-rule="evenodd" fill="#2E3548" d="M59.662,21.465c2.385-1.145,4.726-2.264,7.13-3.416
	c-0.622-0.99-1.219-1.94-1.831-2.915c-1.976,1.302-3.965,2.613-5.938,3.915c-0.041-0.065-0.483-0.815-0.521-0.876
	c0,0-1.316,0.98-1.692,1.262c1.08,1.718,2.132,3.404,3.203,5.08c0.049,0.077,0.261,0.13,0.354,0.092
	c0.426-0.178,0.839-0.392,1.304-0.616C60.992,23.141,60.347,22.325,59.662,21.465"/>
<path fill-rule="evenodd" clip-rule="evenodd" fill="#2E3548" d="M57.07,16.108c-0.869-0.75-1.723-1.488-2.573-2.224
	c0.482-0.45,0.913-0.853,1.362-1.272c0.372,0.398,0.721,0.772,1.081,1.157c0.431-0.403,0.846-0.79,1.286-1.202
	c-0.595-0.493-1.172-0.972-1.751-1.454c0.344-0.321,0.648-0.607,0.938-0.877c0.825,0.883,1.632,1.746,2.472,2.645
	c0.393-0.271,0.811-0.563,1.232-0.853c-1.144-1.224-4.281-4.585-4.281-4.585s-1.458,1.362-1.639,1.53
	c0.274,0.217,0.533,0.423,0.82,0.65c-1.411,1.215-2.785,2.397-4.199,3.616c1.218,1.304,2.406,2.576,3.595,3.849
	C55.591,16.994,56.921,16.212,57.07,16.108"/>
<path fill-rule="evenodd" clip-rule="evenodd" fill="#2E3548" d="M26.265,7.001c-0.79,0.283-1.571,0.559-2.399,0.854
	c0.339,1.059,0.672,2.1,1.016,3.178c-0.386,0.118-0.732,0.225-1.156,0.355c-0.539-2.651-1.072-5.276-1.62-7.966
	c-0.557,0.17-1.107,0.341-1.684,0.516c-0.155-0.623-0.302-1.219-0.457-1.844c1.425-0.353,2.82-0.698,4.283-1.06
	c0.187,1.481,0.372,2.933,0.562,4.432c0.624-0.098,1.22-0.193,1.845-0.291C26.207,3.606,25.766,2.08,25.316,0.5
	c0.586-0.145,1.161-0.288,1.723-0.426c0.719,2.903,1.446,5.839,2.179,8.802c-0.826,0.205-1.585,0.393-2.345,0.581
	C26.673,8.648,26.476,7.854,26.265,7.001"/>
<path fill-rule="evenodd" clip-rule="evenodd" fill="#2E3548" d="M42.223,3.032c1.169,0.668,2.122,1.415,2.966,2.299
	c0.164,0.172,0.214,0.33,0.109,0.532c-0.596,1.169-1.192,2.336-1.789,3.505c-0.03,0.054-0.08,0.098-0.161,0.192
	c-1.563-0.471-3.141-0.946-4.829-1.455c0.159-0.914,0.317-1.861,0.493-2.802c0.013-0.07,0.144-0.156,0.229-0.165
	c0.737-0.076,1.478-0.15,2.219-0.19c0.135-0.007,0.345,0.113,0.406,0.23c0.17,0.33,0.288,0.687,0.418,1.038
	c0.082,0.221-0.005,0.345-0.244,0.396c-0.396,0.083-0.785,0.186-1.206,0.288c-0.024-0.281-0.049-0.548-0.069-0.817
	c-0.043-0.012-0.087-0.028-0.129-0.042c-0.268,0.57-0.533,1.137-0.832,1.77c0.594,0.061,1.114,0.127,1.633,0.157
	c0.104,0.008,0.252-0.086,0.314-0.178c0.451-0.655,0.885-1.324,1.328-1.985c0.124-0.189,0.047-0.309-0.108-0.438
	c-0.938-0.772-1.865-1.558-2.812-2.319c-0.242-0.191-0.357-0.341-0.229-0.655c0.299-0.724,0.552-1.468,0.843-2.193
	C40.812,0.103,40.976,0,41.081,0c1.042-0.001,2.085,0.01,3.129,0.046c0.162,0.003,0.366,0.105,0.474,0.225
	c0.304,0.343,0.58,0.711,0.838,1.092c0.159,0.234,0.406,0.535,0.363,0.76c-0.09,0.5-0.332,0.973-0.53,1.45
	c-0.019,0.045-0.174,0.081-0.237,0.053c-0.522-0.221-1.042-0.46-1.581-0.704c0.183-0.272,0.333-0.516,0.509-0.744
	c0.254-0.332,0.225-0.642-0.063-0.932c-0.24-0.245-0.494-0.476-0.824-0.788C42.82,1.383,42.524,2.199,42.223,3.032"/>
<path fill-rule="evenodd" clip-rule="evenodd" fill="#2E3548" d="M30.476,3.258c0.022-0.936,0.02-0.949,0.916-1.263
	c0.856-0.3,1.717-0.583,2.583-0.84c0.192-0.057,0.484-0.031,0.637,0.078c0.829,0.597,1.634,1.224,2.435,1.863
	c0.108,0.088,0.195,0.301,0.17,0.438c-0.231,1.29-0.484,2.576-0.75,3.859c-0.019,0.094-0.158,0.201-0.264,0.233
	c-0.851,0.275-1.704,0.537-2.56,0.787c-0.126,0.037-0.299,0.027-0.42-0.025c-0.753-0.335-1.501-0.678-2.242-1.04
	c-0.105-0.048-0.213-0.204-0.223-0.316C30.655,5.773,30.569,4.516,30.476,3.258 M32.22,7.034c0.857,0,1.67-0.001,2.488,0
	c0.255,0.001,0.319-0.128,0.303-0.356c-0.074-0.978-0.13-1.959-0.213-2.936c-0.043-0.493-0.136-0.979-0.206-1.482
	c-0.455,0.122-0.851,0.212-1.236,0.339c-0.113,0.039-0.252,0.17-0.275,0.283C32.785,4.251,32.508,5.624,32.22,7.034"/>
<polygon fill="#2E3548" points="60.469,34.849 67.123,34.849 67.123,32.779 60.469,33.542 "/>
<path fill="#2E3548" d="M63.28,39.784c-0.337,0-0.611,0.273-0.611,0.611c0,0.337,0.274,0.611,0.611,0.611
	c0.338,0,0.61-0.274,0.61-0.611C63.891,40.057,63.618,39.784,63.28,39.784"/>
<path fill="#2E3548" d="M61.8,46.427c-0.337,0-0.611,0.271-0.611,0.609s0.274,0.611,0.611,0.611s0.61-0.273,0.61-0.611
	S62.137,46.427,61.8,46.427"/>
<path fill="#2E3548" d="M62.54,28.369c0.337,0,0.61-0.273,0.61-0.611c0-0.337-0.273-0.611-0.61-0.611s-0.611,0.274-0.611,0.611
	C61.929,28.096,62.203,28.369,62.54,28.369"/>
<polygon fill="#2E3548" points="6.035,34.716 0.27,35.216 0.27,33.542 6.925,33.542 "/>
<path fill="#2E3548" d="M4.112,39.784c0.337,0,0.611,0.273,0.611,0.611c0,0.337-0.274,0.611-0.611,0.611
	c-0.337,0-0.611-0.274-0.611-0.611C3.501,40.057,3.775,39.784,4.112,39.784"/>
<path fill="#2E3548" d="M5.593,46.427c0.337,0,0.611,0.271,0.611,0.609s-0.274,0.611-0.611,0.611c-0.338,0-0.611-0.273-0.611-0.611
	S5.255,46.427,5.593,46.427"/>
<path fill="#2E3548" d="M4.853,28.369c-0.337,0-0.611-0.273-0.611-0.611c0-0.337,0.274-0.611,0.611-0.611
	c0.337,0,0.611,0.274,0.611,0.611C5.464,28.096,5.19,28.369,4.853,28.369"/>
<path fill="#2E3548" d="M14.283,26.458c0,0-0.841-1.906-0.065-2.816c0.774-0.909,1.747-0.86,2.607-0.427
	c0.861,0.431,0.933,0.7,0.933,0.7s-1.089-0.645-1.079-0.479c0.011,0.168-0.742-0.179-0.673-0.056
	c0.07,0.123-0.253,0.064-0.253,0.064l0.327,0.277l-0.884-0.079l0.317,0.18l-0.474,0.216l0.055,0.153l-0.29,0.101l0.167,0.112
	l-0.192,0.093l0.233,0.163c0,0-0.244,0.086-0.197,0.142c0.045,0.058,0.358,0.02,0.188,0.105c-0.171,0.085-0.28,0.197-0.28,0.197
	l0.084,0.094l-0.155,0.127c0,0,0.202,0.002,0.091,0.113c-0.11,0.114-0.123,0.216-0.123,0.216s0.083,0.019,0.032,0.087
	c-0.05,0.067-0.094,0.228-0.094,0.228l0.138,0.098l0.035,0.234l0.082,0.093c0,0,0.587-1.43,1.933-1.806
	c1.346-0.376,2.385-0.08,2.846-0.12c0.463-0.041-1.216,0.182-1.216,0.182l0.092,0.115l-0.701,0.003l0.122,0.202l-0.691,0.17
	c0,0,0.257,0.153,0.158,0.163c-0.096,0.01-0.448,0.011-0.448,0.011s0.168,0.114,0.093,0.115c-0.075,0.001-0.549-0.126-0.549-0.126
	l0.206,0.149l-0.332,0.263c0,0,0.182,0.156,0.108,0.157c-0.075,0.002-0.521,0.158-0.521,0.158l0.04,0.111l-0.252,0.21l-0.04,0.161
	c0,0,1.719-0.459,2.473-0.455c0.756,0.004,1.409,0.632,1.547,0.802c0.137,0.172-0.632-0.389-0.622-0.222
	c0.013,0.169-0.33,0.057-0.546-0.015c-0.214-0.072-0.304,0.094-0.217,0.125c0.087,0.03,0.263,0.103,0.263,0.103l-0.456-0.01
	l0.175,0.133l-0.686-0.26l0.111,0.169l-0.22-0.021l0.032,0.123l-0.32,0.053l-0.201,0.07l-0.234-0.089l-0.133,0.047l-0.575-0.03
	c0,0,1.815,1.539,2.266,2.236c0.456,0.696,0.652,0.823,0.652,0.823s-0.917-0.9-1.271-1.254c-0.354-0.352-0.479-0.454-0.479-0.454
	l-0.058,0.118l-0.288-0.279c0,0-0.024,0.18-0.049,0.115c-0.023-0.065-0.294-0.434-0.294-0.434l0.052,0.176l-0.256-0.116
	l-0.126,0.105l-0.134,0.047l-0.08,0.26c0,0-0.563-0.095-0.621,0.097l-0.055,0.191l0.375,0.407l-0.299-0.031l0.459,0.473
	l-0.536-0.127l0.613,0.579l-0.233-0.017l0.257,0.082l-0.275,0.109l0.694,0.734l-0.553-0.208c0,0,0.355,0.462,0.594,0.671
	c0.239,0.209,0.668,0.805,0.88,0.902c0.21,0.096-1.389-0.883-1.462-1.016c-0.072-0.133-0.095,0.156-0.095,0.156l-0.274-0.417
	c0,0-0.821-0.629-0.994-1.107c-0.175-0.477-0.255-1.084-0.255-1.084s-0.075,0.96-0.001,1.163c0.074,0.202-0.185-0.002-0.185-0.002
	l0.348,0.728l-0.519-0.602l0.287,0.421l-0.408-0.248l0.55,1.194l-0.533-0.45l0.475,1.074l-0.291-0.289l0.613,1.317
	c0,0-0.763-0.579-1.067-1.827c-0.3-1.249,0.014-1.489,0.014-1.489l-0.355,0.175l-0.194,0.574l-0.208-0.434l-0.19,1.322
	c0,0-0.119-0.788-0.125-0.574c-0.006,0.213-0.256,1.051-0.37,1.239c-0.116,0.188,0.262-0.94,0.222-1.513
	c-0.042-0.574,0.38-1.537,0.74-2.022c0.359-0.486,0.816-1.07,0.816-1.07s-0.501,0.191-0.556,0.359
	c-0.057,0.166-0.136-0.426-0.136-0.426l-0.108,0.724l-0.334-0.372l-0.247,0.705l-0.261-0.626l-0.137,0.687l-0.087-0.053
	l-0.048,0.328l-0.312-0.446l-0.053,0.868l-0.074-0.203l-0.129,0.291l-0.15-0.323c0,0-0.235,0.832-0.281,0.979
	c-0.048,0.147-0.035-0.232-0.035-0.232s-0.139,0.31-0.282,0.474c-0.139,0.162,0.262-1.315,0.65-1.908
	c0.386-0.593,0.744-0.995,1.829-1.28c1.086-0.283,1.218-0.248,1.218-0.248s-1.433-1.129-1.524-1.015
	c-0.093,0.115-0.268,0.093-0.268,0.093l-0.077-0.117l-0.126,0.158l-0.118-0.319l-0.172,0.308l-0.029-0.219l-0.157,0.397
	l-0.087-0.198l-0.348,0.662c0,0,0.079-0.616,0.156-1.002C11.622,25.119,12.59,24.418,14.283,26.458"/>
<path fill="#2E3548" d="M21.229,30.409c0.113-0.313,0.092-0.65,0.074-0.996c-3.104-2.277-5.916-2.454-5.916-2.454
	C16.292,27.343,18.95,28.298,21.229,30.409"/>
<path fill="#2E3548" d="M22.734,29.665c0.106-0.245,0.129-0.527,0.344-0.662c-0.53,0.116-1.334-0.254-1.687-0.463
	c-0.03-0.089-0.062-0.185-0.099-0.292c0.222,0.103,0.505,0.218,0.805,0.287c0.45,0.103,0.93,0.104,1.264-0.193
	c0.138-0.122,0.295-0.286,0.468-0.467c0.672-0.704,1.583-1.665,2.569-1.321c0.577,0.21,1.096,0.133,1.518-0.041
	c0.011-0.418-0.045-0.843-0.092-1.252c-0.009-0.076-0.015-0.153-0.023-0.23c-0.395,0.264-0.973,0.5-1.644,0.263
	c-1.212-0.437-2.285,0.683-2.991,1.422c-0.164,0.172-0.312,0.328-0.442,0.443c-0.432,0.383-1.401-0.019-1.878-0.279
	c-0.042-0.132-0.084-0.264-0.126-0.4c0.21,0.094,0.461,0.194,0.731,0.256c0.448,0.103,0.926,0.103,1.259-0.193
	c0.137-0.122,0.292-0.284,0.465-0.465c0.674-0.706,1.6-1.665,2.57-1.325c0.833,0.301,1.544,0.006,2.014-0.315
	c-0.005-0.163-0.005-0.325,0.003-0.487c-0.365,0.311-1.054,0.737-1.886,0.439c-1.22-0.434-2.286,0.683-2.992,1.422
	c-0.163,0.173-0.311,0.328-0.442,0.444c-0.434,0.385-1.401-0.019-1.877-0.28c-0.065-0.214-0.129-0.43-0.192-0.645
	c0.229,0.111,0.537,0.241,0.869,0.317c0.447,0.103,0.925,0.104,1.257-0.191c0.137-0.121,0.293-0.284,0.465-0.464
	c0.674-0.706,1.577-1.673,2.571-1.325c1.027,0.368,1.861-0.154,2.294-0.526c0.01,0.026,0.02,0.053,0.03,0.079
	c0.065-0.288,0.164-0.568,0.315-0.833c-0.484-1.259-0.947-2.36-1.226-2.75c-0.288-0.408-0.771-0.692-1.432-0.844
	c-0.657-0.151-1.317-0.131-1.608-0.112c-0.193-0.226-0.413-0.702-0.607-1.314l1.343-0.431l-1.098-1.852l-4.31,1.357l0.365,2.122
	l1.146-0.37c0.244,0.707,0.224,1.31,0.144,1.735c-1.093,0.544-1.683,1.365-1.732,2.393l-0.022,0.035
	c0.002,0.001,0.019,0.01,0.024,0.013c-0.004,0.125-0.004,0.251,0.008,0.382c0.159,1.671,1.77,6.291,1.838,6.487L21.37,30.5
	C21.947,30.428,22.473,30.266,22.734,29.665 M21.28,20.39l0.129-0.059l0.032-0.135c0.131-0.555,0.195-1.435-0.245-2.474
	l-0.107-0.252l-1.02,0.33l-0.165-0.957l3.373-1.061l0.49,0.825l-1.192,0.383l0.076,0.266c0.197,0.69,0.523,1.589,0.956,1.947
	l0.099,0.081l0.127-0.013c0.033-0.004,0.81-0.083,1.553,0.087c0.229,0.053,0.423,0.125,0.591,0.212
	c-0.269,0.187-0.746,0.369-1.469,0.113c-1.226-0.439-2.285,0.682-2.991,1.42c-0.166,0.173-0.314,0.329-0.446,0.446
	c-0.38,0.337-0.857,0.181-1.134,0.041C20.167,21.098,20.61,20.7,21.28,20.39 M19.806,21.957c0.118,0.056,0.249,0.107,0.389,0.139
	c0.367,0.084,0.789,0.056,1.144-0.26c0.138-0.122,0.295-0.286,0.467-0.467c0.674-0.705,1.611-1.666,2.569-1.323
	c0.985,0.354,1.616,0.027,1.939-0.243c0.055,0.051,0.107,0.104,0.148,0.163c0.036,0.049,0.076,0.116,0.119,0.192
	c-0.268,0.256-0.883,0.685-1.79,0.361c-1.223-0.435-2.281,0.682-2.984,1.419c-0.166,0.174-0.316,0.33-0.448,0.448
	c-0.357,0.315-1.086,0.095-1.597-0.138C19.771,22.148,19.783,22.051,19.806,21.957 M19.76,22.705c-0.002-0.015,0-0.028-0.001-0.044
	c0.185,0.077,0.387,0.152,0.606,0.203c0.449,0.103,0.928,0.104,1.261-0.191c0.14-0.122,0.296-0.287,0.47-0.469
	c0.672-0.703,1.58-1.664,2.565-1.321c0.991,0.353,1.72-0.062,2.097-0.374c0.069,0.143,0.143,0.31,0.221,0.49
	c-0.356,0.315-1.063,0.779-1.925,0.473c-1.208-0.438-2.284,0.684-2.992,1.422c-0.164,0.172-0.313,0.327-0.443,0.444
	c-0.411,0.364-1.305,0.02-1.803-0.239C19.791,22.955,19.771,22.821,19.76,22.705 M19.911,23.569
	c0.207,0.092,0.451,0.188,0.715,0.249c0.449,0.103,0.927,0.103,1.26-0.193c0.137-0.121,0.294-0.285,0.466-0.466
	c0.674-0.704,1.581-1.667,2.571-1.323c0.959,0.336,1.759-0.105,2.214-0.465c0.056,0.137,0.114,0.278,0.174,0.427
	c-0.341,0.315-1.076,0.833-1.972,0.511c-1.226-0.432-2.284,0.682-2.988,1.421c-0.164,0.173-0.312,0.328-0.443,0.445
	c-0.449,0.398-1.476-0.05-1.929-0.307C19.954,23.764,19.932,23.666,19.911,23.569 M20.104,24.365
	c0.221,0.104,0.506,0.218,0.808,0.288c0.449,0.103,0.93,0.104,1.263-0.191c0.137-0.122,0.294-0.285,0.467-0.467
	c0.672-0.704,1.586-1.661,2.566-1.323c0.993,0.348,1.808-0.128,2.253-0.494c0.073,0.186,0.146,0.376,0.221,0.573
	c-0.316,0.305-1.076,0.889-2.016,0.554c-1.216-0.437-2.287,0.683-2.993,1.422c-0.163,0.172-0.311,0.327-0.442,0.443
	c-0.474,0.422-1.601-0.108-2.004-0.353C20.184,24.664,20.143,24.512,20.104,24.365"/>
<path fill="#2E3548" d="M27.862,27.026c-0.311,0.094-0.668,0.122-1.062-0.018c-1.21-0.438-2.284,0.682-2.99,1.419
	c-0.165,0.173-0.315,0.33-0.446,0.447c-0.029,0.026-0.068,0.038-0.102,0.057c0.421-0.072,0.867,0.11,1.304,0.126
	c0.572-0.635,1.215-0.861,1.879-0.834c0.023-0.012,0.043-0.027,0.066-0.039c0.241-0.123,0.514-0.169,0.755-0.293
	C27.62,27.71,27.784,27.401,27.862,27.026"/>
<path fill="#2E3548" d="M22.669,28.209c-0.016,0.001-0.032,0.001-0.048,0.002C22.637,28.211,22.653,28.209,22.669,28.209"/>
<path fill="#2E3548" d="M22.482,28.204c-0.06-0.004-0.119-0.01-0.18-0.021C22.363,28.193,22.422,28.199,22.482,28.204"/>
<path fill="#2E3548" d="M22.149,28.151c-0.021-0.005-0.042-0.008-0.062-0.013C22.107,28.143,22.128,28.147,22.149,28.151"/>
<path fill="#2E3548" d="M21.573,29.072l-0.001-0.004c0.086,0.04,0.188,0.081,0.291,0.122c-0.099-0.027-0.194-0.06-0.286-0.103
	L21.573,29.072z"/>
<path fill="#2E3548" d="M16.586,38.851c-0.07-0.215-0.12-0.451-0.155-0.699L16.02,38.97L16.586,38.851z"/>
<path fill="#2E3548" d="M18.634,40.828c-0.619-0.156-1.123-0.448-1.36-0.715c-0.036-0.04-0.074-0.097-0.111-0.144l-0.379,0.976
	L18.634,40.828z"/>
<path fill="#2E3548" d="M18.634,40.828c0.073,0.018,0.149,0.031,0.226,0.047l0.009-0.062L18.634,40.828z"/>
<path fill="#2E3548" d="M18.072,44.855l-1.403,0.34l0.925-2.969l-2.005,1.35l0.719-2.285l-1.59,0.816l0.767-2.254l-1.502-0.272
	l1.299-2.024l-0.987-0.193l2.241-0.973l0.028,0.002c0.085-0.288,0.195-0.581,0.355-0.883c1.113-2.098,2.523-2.009,2.523-2.009
	c0.737-0.084,1.35,0.119,1.843,0.495l-0.552-0.979l-4.076,0.436l0.55,0.802l-1.405,1.549l-4.29,1.861l1.867,0.364l-2.631,1.456
	l1.502,0.155l-1.791,1.961l2.131,0.518l-0.969,2.504l1.904-0.426l-0.582,2.621l1.65-0.828l-0.152,2.043l1.395-1.197l-0.295,1.326
	l1.618-0.619l0.227,1.188l2.092-2.113c-0.342-0.135-0.615-0.312-0.764-0.479C18.487,45.88,18.223,45.427,18.072,44.855"/>
<path fill-rule="evenodd" clip-rule="evenodd" fill="#2E3548" d="M22.565,38.294c-0.23,0.762-0.615,1.46-1.233,1.997
	c0.01,0.051,0.019,0.094,0.03,0.147c0.664,0.247,1.233,0.716,1.59,1.335C22.787,40.418,22.655,39.178,22.565,38.294"/>
<path fill-rule="evenodd" clip-rule="evenodd" fill="#2E3548" d="M44.264,46.228c-0.245-0.244-0.498-0.49-0.686-0.775
	c-0.022,0.576-0.04,1.109-0.048,1.561c-0.063,3.24-2.565,3.445-3.715,3.625c-1.145,0.182-3.209,1.105-3.16,2.514
	c0.048,1.406-0.637,1.955-1.946,2.02c-1.31,0.066-2.345-0.453-2.479-1.588c-0.131-1.135-1.779-1.484-3.797-1.848
	c-2.016-0.363-3.14-0.068-4.104-2.346c-0.352-0.828-0.698-2.701-0.997-4.746c-0.183,0.598-0.499,1.211-0.979,1.604
	c1.018,6.498,3.607,6.531,4.831,6.504c1.231-0.021,3.391-0.08,4.117,1.889c0.515,1.402,1.836,1.9,4.262,1.619
	c2.427-0.283,2.117-1.27,2.131-2.043c0.015-0.775,0.896-1.842,3.705-2.385c2.807-0.541,3.281-2.285,3.311-2.74
	c0.008-0.125,0.101-1.061,0.234-2.354C44.686,46.623,44.456,46.421,44.264,46.228"/>
<path fill-rule="evenodd" clip-rule="evenodd" fill="#2E3548" d="M44.083,41.279c0.308-0.371,0.648-0.682,1.104-0.879
	c-0.632-0.514-1.008-1.288-1.229-2.109c-0.057,0.911-0.125,2.088-0.192,3.314C43.871,41.496,43.979,41.388,44.083,41.279"/>
<path fill="#2E3548" d="M22.584,38.225c-0.013,0.046-0.023,0.092-0.038,0.138c0.09,0.869,0.218,2.063,0.376,3.367
	c0.019,0.031,0.045,0.059,0.063,0.09C22.813,40.41,22.676,39.122,22.584,38.225"/>
<path fill="#2E3548" d="M41.586,36.338c-0.303-0.027-0.608-0.037-0.913-0.051c-0.521-0.024-1.04-0.064-1.56-0.101
	c-1.883,0.62-2.692,2.26-1.793,4.136c0.682,1.421,3.737,1.312,3.871-0.415c0.127-1.643-1.639-2.936-2.81-1.371
	c-0.839,1.121,1.636,2.289,1.636,0.684c0-0.06-0.032-0.097-0.061-0.135c0.182-0.053,0.362-0.104,0.544-0.157
	c0.179,1.088-0.189,1.701-1.104,1.841c-1.925,0.607-2.148-2.078-1.737-2.938c0.629-1.312,2.516-1.541,3.723-1.039
	c2.334,0.969,1.492,5.115-0.71,5.641c-2.637,0.631-5.046-0.48-5.698-3.153c-0.014-0.054-0.017-0.105-0.026-0.157
	c-0.117,0.273-0.233,0.548-0.343,0.824c0.678,2.457,2.951,3.289,5.325,3.097c2.131-0.17,3.149-1.6,3.35-3.614
	C43.407,38.144,42.677,36.922,41.586,36.338"/>
<path fill="#2E3548" d="M26.401,39.467c0.179,1.115,1.88,0.509,1.624-0.799c-0.318-1.626-3.146-0.564-2.855,0.969
	c0.345,1.82,2.185,2.201,3.621,1.098c0.75-0.575,0.809-1.884,0.581-2.69c-0.251-0.889-1.123-1.445-1.958-1.766
	c-0.419,0.092-0.846,0.187-1.276,0.279c1.008-0.009,2.046,0.572,2.583,1.344c0.711,1.02,0.051,2.53-1.088,2.82l-0.374,0.061
	C25.609,40.348,25.326,39.909,26.401,39.467"/>
<path fill="#2E3548" d="M24.18,36.816c0.59-0.063,1.171-0.194,1.755-0.306c0.455-0.086,0.906-0.182,1.358-0.276
	c-0.033-0.012-0.068-0.026-0.101-0.038"/>
<path fill="#2E3548" d="M31.37,39.541c-0.506,2.757-3.231,3.292-5.662,2.96c-2.627-0.357-2.544-4.533-0.709-5.641
	c0.105-0.064,0.218-0.103,0.329-0.146c-0.4,0.071-0.8,0.12-1.198,0.152c-1.646,1.806-1.253,5.845,1.906,6.201
	c2.343,0.262,4.564-0.236,5.526-2.526C31.505,40.207,31.437,39.874,31.37,39.541"/>
<path fill="#2E3548" d="M42.048,45.716c-0.368-1.201-1.73-0.646-2.763-0.582c-0.345,0.021-1.593,0.066-3.099,0.115
	c-0.091,0.035-0.179,0.088-0.256,0.174c-0.062,0.072-0.105,0.148-0.146,0.227c0.576-0.023,1.269-0.068,1.276-0.135
	c0.228-0.027,0.474-0.057,0.738-0.09c0.003,0.443,0.01,0.805,0.008,1.168c-0.003,0.375-0.032,0.752-0.018,1.127
	c0.006,0.186-0.081,0.385-0.044,0.553c-0.955,0.004-1.462-0.098-2.549-0.033c-0.004-0.277,0.024-0.77,0.03-1.264
	c-0.123,0.115-0.272,0.195-0.441,0.246c0.013,0.133,0.025,0.268,0.04,0.406c0.101,1.045-1.514,0.541-2.384,0.457
	c-0.7-0.068-0.743-1.486-0.734-2.045c-0.162-0.01-0.32-0.023-0.47-0.047c0.117,0.549,0.101,1.699,0.092,1.777
	c-0.764,0.076-1.363,0.076-2.071-0.193c-0.23-0.09-0.348-0.277-0.364-0.484c-0.024-0.297-0.008-0.607,0.059-0.895
	c0.028-0.125,0.225-0.211,0.37-0.338c0.483-0.008,1.079-0.057,1.475-0.047c-0.123-0.102-0.21-0.234-0.276-0.389
	c-0.841,0.023-1.394,0.041-1.394,0.041s-3.108-0.387-3.391,0.396c-0.283,0.783-0.416,1.664-0.119,1.879
	c0.298,0.221,0.642,0.285,0.599,0.623c-0.04,0.34-0.662,1.451,2.497,1.656c3.157,0.209,4.587,0.213,5.062,0.293
	c0.476,0.082,3.196,0.107,4.422,0.01c1.227-0.094,2.253-0.346,2.273-1.186c0.021-0.84,0.735-0.283,0.913-0.395
	C41.559,48.632,42.413,46.917,42.048,45.716 M26.261,46.138c0.673-0.279,1.346-0.316,2.014-0.371
	c0.22,0.277,0.271,1.107,0.256,1.426c-0.565,0.025-1.01,0.027-1.453,0.068c-0.212,0.02-0.418,0.109-0.69,0.188
	C26.171,47.05,26.374,46.578,26.261,46.138 M27.48,49.441c-0.093,0.01-0.217-0.037-0.287-0.098c-0.215-0.18-0.331-0.852-0.212-1.104
	c0.142-0.305,0.277-0.42,0.515-0.502c0.07-0.023,0.488,0.016,0.562,0.023c0.341,0.037,0.531,0.102,0.903,0.145
	c0.003,0.424,0.006,1.277,0.009,1.707C28.464,49.666,27.97,49.404,27.48,49.441 M32.381,49.513
	c-0.011,0.088-0.151,0.494-1.097,0.312c-0.183,0-1.504-0.027-1.784-0.236c-0.07-0.053-0.084-0.213-0.075-0.318
	c0.033-0.373,0.085-0.744,0.139-1.191c0.173,0.002,0.306,0.002,0.441,0.014c0.384,0.025,0.77,0.055,1.155,0.086
	c0.093,0.006,0.194-0.008,0.275,0.023c0.25,0.104,0.723,0.074,0.822,0.262C32.381,48.699,32.419,49.222,32.381,49.513
	 M34.178,49.982c-0.476-0.002-0.89,0.039-1.438-0.025c-0.017-0.406-0.102-1.135-0.122-1.52c0.547,0.002,1.099,0.109,1.587,0.111
	c0.018,0,0.032-0.004,0.047,0c0.261,0.064,0.604,0.062,0.678,0.557C35.013,49.681,34.682,49.988,34.178,49.982 M37.464,49.853
	c-0.05,0.094-0.568,0.074-0.68,0.115c-0.604,0.104-0.909,0.193-1.443,0.045c-0.043-0.5-0.184-0.945-0.017-1.49
	c0.775,0.041,1.521,0.086,2.358,0.135C37.497,49.076,37.636,49.525,37.464,49.853 M39.092,49.847
	c-0.394,0.045-0.792,0.066-1.225,0.102c0.058-0.48,0.101-0.846,0.147-1.236c0.573,0.008,1.124,0.008,1.675,0.021
	c0.2,0.01,0.275,0.123,0.225,0.307C39.796,49.46,39.58,49.794,39.092,49.847 M41.16,47.898c-0.089,0.287-0.35,0.441-0.639,0.449
	c-0.756,0.021-1.509,0.012-2.311,0.016c0.178-0.826,0.229-2.502,0.104-2.854c0.022-0.021,0.046-0.059,0.065-0.059
	c0.797,0.008,1.595-0.004,2.389,0.039c0.546,0.027,0.586,0.111,0.648,0.631C41.491,46.736,41.341,47.32,41.16,47.898"/>
<path fill="#2E3548" d="M35.132,36.966c-0.648,1.067-0.838,2.115-0.562,3.118c0.412,1.494,1.729,2.402,2.14,2.652
	c0.024,0.109,0.068,0.365,0.123,0.938c0.078,0.812-0.105,1.105-0.188,1.193c-0.041,0.045-0.077,0.064-0.151,0.066
	c-0.496-0.104-0.797-0.035-1.012,0.197c-0.209,0.223-0.281,0.568-0.229,1.082c0.018,0.174-0.013,0.305-0.091,0.395
	c-0.222,0.262-0.858,0.318-1.474,0.371l-0.191,0.018c-0.067,0.008-0.129,0.01-0.185,0.01c-0.374,0-0.375-0.061-0.378-0.398
	c-0.001-0.066-0.002-0.131-0.007-0.195c-0.058-0.627-0.394-0.639-1.062-0.664l-0.203-0.006c-0.454-0.018-0.694-0.104-0.796-0.15
	c-0.043-0.377-0.164-1.428-0.234-2.051c0.088-0.1,0.422-0.199,0.967-0.199c0.096,0,0.159,0.004,0.163,0.004l0.349,0.02l-0.008-0.34
	c-0.01-0.467-0.117-4.586-0.664-5.603c-0.342-0.637-0.764-1.134-1.228-1.53c-0.313,0.028-0.622,0.059-0.928,0.094
	c0.611,0.389,1.165,0.942,1.586,1.727c0.373,0.693,0.538,3.593,0.583,5.003c-0.469,0.014-1.028,0.102-1.305,0.412
	c-0.138,0.154-0.196,0.348-0.166,0.557c0.1,0.705,0.262,2.115,0.262,2.115l0.011,0.098l0.067,0.074
	c0.076,0.084,0.395,0.361,1.315,0.395l0.205,0.008c0.179,0.008,0.35,0.012,0.438,0.025c0.003,0.016,0.005,0.037,0.008,0.066
	c0.003,0.045,0.004,0.096,0.004,0.146c0.004,0.305,0.012,1.02,1.021,1.02c0.073,0,0.155-0.004,0.244-0.012l0.189-0.018
	c0.781-0.068,1.518-0.133,1.911-0.596c0.189-0.223,0.27-0.51,0.236-0.855c-0.046-0.443,0.037-0.57,0.064-0.602
	c0.014-0.014,0.121-0.064,0.403-0.004c0.271,0.055,0.556-0.041,0.76-0.258c0.212-0.227,0.446-0.701,0.353-1.676
	c-0.121-1.246-0.2-1.287-0.337-1.357c-0.016-0.008-1.541-0.861-1.946-2.339c-0.228-0.83-0.061-1.716,0.495-2.63
	c0.33-0.544,0.745-0.995,1.229-1.374c-0.29-0.023-0.582-0.045-0.88-0.064C35.694,36.181,35.387,36.547,35.132,36.966"/>
<path fill="#2E3548" d="M27.688,26.505c-0.521,0.396-1.08,0.877-1.341,1.351c-0.497,0.904-1.838,0.042-2.287-0.391
	c-0.448-0.433-1.611-0.92-1.611-0.92s-0.519,1.749-0.842,2.597c-0.317,0.847-1.645,1.089-1.912,1.061
	c-0.268-0.027-2.035-0.495-2.035-0.495L19,32.789l-0.968,0.801l0.205,0.077c0.388-0.218,0.848-0.195,1.29-0.183
	c0.48,0.011,0.92,0.05,1.332,0.253c0.158-0.129,0.343-0.274,0.555-0.43c-0.008-0.123-0.005-0.249,0.002-0.372
	c-0.033,0.026-0.073,0.055-0.097,0.078c0,0-0.253-1.263-0.453-1.392c-0.203-0.131,1.578-0.121,1.796-0.624
	c0.219-0.505,0.569-1.271,1.773-1.084c1.203,0.189,2.619-1.066,3.017-1.506c0.145-0.162,0.259-0.29,0.418-0.362
	c0.002,0.025,0.007,0.05,0.009,0.075C27.845,27.578,27.726,27.046,27.688,26.505"/>
<path fill="#2E3548" d="M49.649,30.987c0.32-0.468,0.651-1.046,0.651-1.046s-1.763-0.185-2.09-0.183
	c-0.327,0.004-2.257-0.012-2.377-0.303c-0.123-0.289,0.277-2.389,0.277-2.389s-1.18,0.68-2.069,1.036
	c-0.889,0.355-1.339-0.513-1.489-0.748c-0.151-0.23-1.559-2.3-1.559-2.3s-0.376,1.055-0.836,1.549
	c0.026,0.574,0.094,1.184,0.031,1.757c0.006-0.058,0.019-0.113,0.021-0.172c0.369,0.043,0.745,0.18,1.112,0.465
	c0.917,0.714,1.321,0.908,1.477,0.904c0.155-0.001,0.868,0.062,0.868,0.062s0.453,0.935,0.654,1.237
	c0.202,0.304,2.004-0.276,1.807,0.293c-0.191,0.552-0.309,2.31-0.314,2.407c0.002,0.008,0.003,0.016,0.005,0.025
	c0.41-0.155,0.904-0.179,1.305-0.183c0.432-0.004,0.786,0.147,1.117,0.36c0.343-0.142,0.61,0.18,0.88,0
	c0.207-0.14-0.383-1.288-0.265-1.496C49.124,31.788,49.538,31.148,49.649,30.987"/>
<polygon fill="#2E3548" points="40.188,28.368 40.188,28.36 40.188,28.368 "/>
<path fill="#2E3548" d="M20.841,33.262c0.009,0.13,0.052,0.224,0.107,0.308c1.219-0.798,4.094-2.459,8.069-3.331
	c-0.379-0.039-0.731-0.142-1.028-0.394c-3.357,0.868-5.859,2.237-7.138,3.041C20.845,33.01,20.833,33.134,20.841,33.262"/>
<path fill="#2E3548" d="M46.063,33.39c0.192-0.099,0.396-0.173,0.612-0.223c-0.738-1.226-2.646-2.726-6.399-3.534
	c-0.2,0.252-0.493,0.398-0.818,0.478C43.377,30.822,45.333,32.27,46.063,33.39"/>
<path fill="#2E3548" d="M43.961,36.57c-2.068-0.409-5.982-1.059-10.245-1.129c-4.327-0.054-8.715,0.864-10.95,1.418
	c0.031,0.214,0.036,0.428,0.02,0.64c2.071-0.526,6.256-1.434,10.449-1.434l0.47,0.004c4.278,0.07,8.201,0.731,10.216,1.133
	C43.918,36.991,43.928,36.781,43.961,36.57"/>
<path fill="#2E3548" d="M34.941,30.753L34.941,30.753c-2.845,0-6.195-0.308-6.481-0.35c-0.525-0.073-0.78-0.557-0.791-0.578
	c-0.015-0.042-0.081-0.299-0.127-0.617c-0.056-0.4,0.472-0.818,0.578-0.898l0.054-0.041l11.767-0.258l0.061,0.049
	c0,0,0.304,0.25,0.419,0.356c0.215,0.201,0.11,1.28,0.046,1.385c-0.073,0.148-0.202,0.405-2.811,0.802
	C36.998,30.702,36.086,30.753,34.941,30.753 M28.06,29.681c0.007,0,0.172,0.276,0.462,0.318c0.285,0.041,3.598,0.345,6.419,0.345
	c1.122,0,2.014-0.049,2.648-0.145c2.173-0.331,2.468-0.547,2.505-0.588c0.027-0.111,0.061-0.805,0.007-0.936
	c-0.056-0.045-0.22-0.179-0.31-0.251l-11.468,0.251c-0.194,0.158-0.38,0.381-0.366,0.478C27.997,29.425,28.052,29.65,28.06,29.681
	L28.06,29.681z"/>
<path fill="#2E3548" d="M44.345,35.127l-0.275-0.049l-0.572-1.967l-3.3-0.478l-0.749,1.873l-1.465-0.172l-1.144-2.296l-3.466-0.024
	l-0.645,1.782l-1.783,0.205l-0.362-1.75l-3.924,0.547l-0.069,1.882l-1.079,0.169l-0.811-1.397l-2.839,0.944
	c0.125,0.1,0.234,0.208,0.322,0.335l2.32-0.771l0.783,1.348l1.72-0.271l0.068-1.875l3.169-0.442l0.36,1.74l2.44-0.279l0.632-1.746
	l2.894,0.019l1.129,2.268l2.027,0.237l0.746-1.863l2.688,0.389l0.568,1.957l0.389,0.069C44.192,35.382,44.266,35.252,44.345,35.127"
	/>
<path fill="#2E3548" d="M23.139,41.798c-0.398-0.807-0.992-1.311-1.725-1.479c-0.094,0.126-0.204,0.229-0.327,0.313
	c0.964,0.104,1.489,0.856,1.719,1.323c0.611,1.234,0.526,2.893-0.192,3.771c-0.635,0.779-1.415,0.941-1.958,0.941
	c-0.844,0-1.563-0.379-1.804-0.646c-0.49-0.557-1.181-2.057-0.277-3.764c0.368-0.693,0.77-1.082,1.122-1.312
	c-0.182-0.008-0.358-0.027-0.527-0.055c-0.308,0.27-0.628,0.645-0.924,1.203c-0.994,1.875-0.22,3.543,0.328,4.164
	c0.344,0.383,1.169,0.77,2.082,0.771c0.624,0,1.52-0.188,2.247-1.076C23.703,44.972,23.807,43.148,23.139,41.798"/>
<path fill="#2E3548" d="M21.943,42.587c-0.176-0.326-0.457-0.561-0.791-0.658c-0.122-0.037-0.249-0.057-0.377-0.057
	c-0.678,0-1.315,0.516-1.547,1.256c-0.153,0.479-0.114,0.984,0.106,1.391c0.176,0.324,0.457,0.559,0.791,0.656
	c0.122,0.037,0.248,0.055,0.376,0.055c0.68,0,1.316-0.516,1.549-1.254C22.202,43.498,22.163,42.992,21.943,42.587 M21.607,43.82
	c-0.16,0.508-0.603,0.844-1.057,0.844c-0.087,0-0.174-0.014-0.26-0.039c-0.239-0.07-0.437-0.238-0.559-0.471
	c-0.145-0.271-0.17-0.609-0.069-0.926c0.19-0.605,0.783-0.969,1.32-0.803c0.237,0.07,0.435,0.238,0.557,0.469
	C21.683,43.167,21.708,43.503,21.607,43.82"/>
<path fill="#2E3548" d="M20.87,42.796c-0.051-0.016-0.104-0.023-0.156-0.023c-0.289,0-0.575,0.229-0.683,0.572
	c-0.07,0.219-0.055,0.447,0.042,0.629c0.051,0.1,0.151,0.229,0.328,0.279c0.329,0.1,0.708-0.146,0.837-0.551l0,0
	c0.069-0.217,0.054-0.447-0.042-0.629C21.145,42.976,21.046,42.847,20.87,42.796"/>
<path fill="#2E3548" d="M19.53,41.148L19.53,41.148c-1.063,0-2.02-0.451-2.418-0.898c-0.639-0.716-1.543-2.647-0.383-4.836
	c1.071-2.02,2.428-2.121,2.688-2.121c1.316-0.132,2.366,0.498,2.999,1.777c0.776,1.571,0.654,3.692-0.275,4.829
	C21.296,40.931,20.254,41.148,19.53,41.148 M19.776,33.691c-0.1,0-0.203,0.007-0.309,0.019c-0.184,0.001-1.381,0.054-2.358,1.897
	c-1.055,1.987-0.247,3.727,0.327,4.368c0.278,0.314,1.112,0.755,2.093,0.755c0.631,0,1.538-0.189,2.275-1.091
	c0.836-1.023,0.933-2.95,0.224-4.387C21.741,34.669,21.065,33.691,19.776,33.691"/>
<path fill="#2E3548" d="M21.024,35.984c-0.203-0.376-0.531-0.646-0.919-0.761c-0.142-0.043-0.289-0.065-0.437-0.065
	c-0.789,0-1.53,0.6-1.802,1.459c-0.176,0.556-0.13,1.145,0.126,1.616c0.205,0.377,0.532,0.648,0.921,0.763
	c0.141,0.043,0.288,0.065,0.437,0.065c0.788,0,1.528-0.6,1.8-1.46C21.327,37.043,21.281,36.454,21.024,35.984 M20.753,37.34
	c-0.169,0.668-0.728,1.128-1.313,1.128c-0.087,0-0.174-0.01-0.261-0.031c-0.298-0.071-0.554-0.263-0.722-0.539
	c-0.2-0.329-0.257-0.747-0.157-1.149c0.196-0.767,0.903-1.262,1.575-1.099c0.299,0.072,0.557,0.264,0.724,0.542
	C20.798,36.521,20.854,36.939,20.753,37.34"/>
<path fill="#2E3548" d="M19.785,36.027c-0.057-0.014-0.114-0.021-0.172-0.021c-0.412,0-0.812,0.343-0.937,0.838
	c-0.076,0.301-0.035,0.612,0.111,0.853c0.114,0.188,0.285,0.317,0.482,0.364c0.47,0.112,0.966-0.253,1.109-0.815
	c0.076-0.302,0.035-0.613-0.11-0.854C20.154,36.204,19.982,36.074,19.785,36.027"/>
<path fill="#2E3548" d="M53.534,26.458c0,0,0.841-1.906,0.064-2.816c-0.773-0.909-1.747-0.86-2.606-0.427
	c-0.86,0.431-0.934,0.7-0.934,0.7s1.089-0.645,1.079-0.479c-0.011,0.168,0.742-0.179,0.673-0.056s0.253,0.064,0.253,0.064
	l-0.326,0.277l0.884-0.079l-0.316,0.18l0.474,0.216l-0.056,0.153l0.29,0.101l-0.166,0.112l0.191,0.093l-0.232,0.163
	c0,0,0.243,0.086,0.197,0.142c-0.046,0.058-0.359,0.02-0.189,0.105c0.172,0.085,0.28,0.197,0.28,0.197l-0.084,0.094l0.155,0.127
	c0,0-0.202,0.002-0.091,0.113c0.109,0.114,0.123,0.216,0.123,0.216s-0.083,0.019-0.032,0.087c0.05,0.067,0.094,0.228,0.094,0.228
	l-0.137,0.098l-0.036,0.234l-0.081,0.093c0,0-0.588-1.43-1.934-1.806s-2.385-0.08-2.847-0.12c-0.462-0.041,1.216,0.182,1.216,0.182
	l-0.092,0.115l0.701,0.003l-0.122,0.202l0.692,0.17c0,0-0.257,0.153-0.159,0.163c0.096,0.01,0.448,0.011,0.448,0.011
	s-0.168,0.114-0.094,0.115c0.076,0.001,0.55-0.126,0.55-0.126l-0.206,0.149l0.332,0.263c0,0-0.183,0.156-0.108,0.157
	c0.075,0.002,0.521,0.158,0.521,0.158l-0.039,0.111l0.251,0.21l0.04,0.161c0,0-1.72-0.459-2.474-0.455
	c-0.756,0.004-1.409,0.632-1.547,0.802c-0.137,0.172,0.632-0.389,0.622-0.222c-0.012,0.169,0.33,0.057,0.546-0.015
	c0.214-0.072,0.304,0.094,0.217,0.125c-0.087,0.03-0.263,0.103-0.263,0.103l0.457-0.01l-0.176,0.133l0.686-0.26l-0.11,0.169
	l0.22-0.021l-0.032,0.123l0.321,0.053l0.2,0.07l0.233-0.089l0.134,0.047l0.574-0.03c0,0-1.813,1.539-2.265,2.236
	c-0.457,0.696-0.653,0.823-0.653,0.823s0.917-0.9,1.271-1.254c0.354-0.352,0.479-0.454,0.479-0.454l0.059,0.118l0.288-0.279
	c0,0,0.023,0.18,0.049,0.115c0.022-0.065,0.294-0.434,0.294-0.434l-0.051,0.176l0.256-0.116l0.125,0.105l0.135,0.047l0.079,0.26
	c0,0,0.563-0.095,0.621,0.097l0.056,0.191l-0.375,0.407l0.298-0.031l-0.459,0.473l0.536-0.127l-0.613,0.579l0.233-0.017
	l-0.257,0.082l0.275,0.109l-0.694,0.734l0.554-0.208c0,0-0.356,0.462-0.595,0.671c-0.239,0.209-0.668,0.805-0.88,0.902
	c-0.21,0.096,1.389-0.883,1.462-1.016c0.072-0.133,0.095,0.156,0.095,0.156l0.275-0.417c0,0,0.819-0.629,0.992-1.107
	c0.176-0.477,0.256-1.084,0.256-1.084s0.075,0.96,0.001,1.163c-0.074,0.202,0.186-0.002,0.186-0.002l-0.349,0.728l0.519-0.602
	l-0.286,0.421l0.408-0.248l-0.551,1.194l0.533-0.45l-0.476,1.074l0.291-0.289l-0.613,1.317c0,0,0.765-0.579,1.067-1.827
	c0.301-1.249-0.014-1.489-0.014-1.489l0.355,0.175l0.193,0.574l0.208-0.434l0.189,1.322c0,0,0.119-0.788,0.125-0.574
	c0.007,0.213,0.257,1.051,0.37,1.239c0.117,0.188-0.262-0.94-0.222-1.513c0.042-0.574-0.38-1.537-0.739-2.022
	c-0.358-0.486-0.816-1.07-0.816-1.07s0.501,0.191,0.556,0.359c0.058,0.166,0.136-0.426,0.136-0.426l0.108,0.724l0.334-0.372
	l0.247,0.705l0.262-0.626l0.137,0.687l0.086-0.053l0.049,0.328l0.312-0.446l0.054,0.868l0.074-0.203l0.129,0.291l0.149-0.323
	c0,0,0.234,0.832,0.281,0.979c0.048,0.147,0.035-0.232,0.035-0.232s0.139,0.31,0.281,0.474c0.14,0.162-0.262-1.315-0.648-1.908
	c-0.388-0.593-0.745-0.995-1.83-1.28c-1.086-0.283-1.219-0.248-1.219-0.248s1.434-1.129,1.524-1.015
	c0.093,0.115,0.27,0.093,0.27,0.093l0.075-0.117l0.127,0.158l0.117-0.319l0.172,0.308l0.029-0.219l0.157,0.397l0.088-0.198
	l0.347,0.662c0,0-0.079-0.616-0.156-1.002C56.196,25.119,55.227,24.418,53.534,26.458"/>
<path fill="#2E3548" d="M46.589,30.409c-0.113-0.313-0.091-0.65-0.074-0.996c3.104-2.277,5.916-2.454,5.916-2.454
	C51.525,27.343,48.867,28.298,46.589,30.409"/>
<path fill="#2E3548" d="M46.448,30.5l0.361-1.261c0.069-0.195,1.68-4.816,1.84-6.486c0.012-0.131,0.012-0.258,0.008-0.383
	c0.004-0.002,0.021-0.012,0.022-0.013l-0.021-0.035c-0.048-1.028-0.639-1.848-1.731-2.393c-0.081-0.425-0.1-1.028,0.145-1.735
	l1.145,0.37l0.365-2.122l-4.31-1.356l-1.098,1.851l1.342,0.432c-0.192,0.611-0.414,1.088-0.606,1.314
	c-0.29-0.02-0.951-0.04-1.608,0.111c-0.661,0.152-1.143,0.437-1.431,0.845c-0.279,0.389-0.743,1.49-1.228,2.749
	c0.151,0.265,0.25,0.545,0.316,0.833c0.009-0.026,0.019-0.052,0.029-0.079c0.433,0.372,1.267,0.895,2.294,0.527
	c0.994-0.349,1.897,0.618,2.571,1.324c0.173,0.18,0.328,0.344,0.466,0.465c0.331,0.295,0.809,0.294,1.257,0.191
	c0.331-0.077,0.64-0.207,0.869-0.317c-0.063,0.214-0.127,0.43-0.192,0.645c-0.476,0.26-1.444,0.665-1.878,0.279
	c-0.13-0.116-0.278-0.271-0.442-0.443c-0.706-0.74-1.771-1.857-2.991-1.423c-0.832,0.298-1.521-0.128-1.887-0.439
	c0.009,0.162,0.01,0.324,0.003,0.488c0.471,0.32,1.182,0.616,2.015,0.315c0.97-0.34,1.896,0.619,2.569,1.325
	c0.174,0.18,0.328,0.342,0.467,0.465c0.332,0.295,0.81,0.295,1.259,0.192c0.27-0.062,0.52-0.161,0.73-0.256
	c-0.043,0.136-0.085,0.269-0.127,0.4c-0.476,0.261-1.444,0.663-1.878,0.279c-0.13-0.115-0.277-0.271-0.441-0.443
	c-0.706-0.739-1.779-1.859-2.991-1.422c-0.671,0.237-1.249,0.001-1.645-0.263c-0.007,0.077-0.014,0.154-0.022,0.231
	c-0.047,0.409-0.103,0.833-0.091,1.251c0.421,0.174,0.939,0.252,1.518,0.041c0.986-0.344,1.896,0.617,2.568,1.322
	c0.174,0.181,0.331,0.345,0.468,0.466c0.334,0.297,0.813,0.297,1.264,0.193c0.3-0.069,0.584-0.183,0.806-0.286
	c-0.036,0.107-0.068,0.202-0.1,0.291c-0.353,0.209-1.157,0.579-1.687,0.464c0.215,0.135,0.237,0.417,0.344,0.661
	C45.344,30.266,45.87,30.427,46.448,30.5 M47.881,21.589c-0.277,0.14-0.755,0.297-1.135-0.041c-0.132-0.117-0.28-0.273-0.446-0.446
	c-0.705-0.738-1.765-1.858-2.991-1.42c-0.723,0.257-1.199,0.074-1.468-0.113c0.167-0.086,0.362-0.159,0.59-0.211
	c0.743-0.171,1.521-0.091,1.555-0.087l0.127,0.013l0.098-0.082c0.433-0.358,0.759-1.257,0.956-1.947l0.076-0.266l-1.191-0.382
	l0.489-0.826l3.373,1.061l-0.165,0.957l-1.021-0.329l-0.105,0.252c-0.441,1.038-0.377,1.918-0.246,2.473l0.032,0.136l0.129,0.059
	C47.208,20.699,47.651,21.097,47.881,21.589 M48.055,22.248c-0.511,0.233-1.239,0.454-1.597,0.138
	c-0.131-0.117-0.282-0.274-0.447-0.447c-0.704-0.738-1.762-1.854-2.984-1.419c-0.906,0.323-1.521-0.106-1.789-0.361
	c0.042-0.077,0.083-0.143,0.118-0.193c0.041-0.058,0.094-0.111,0.148-0.163c0.322,0.27,0.954,0.597,1.938,0.243
	c0.959-0.342,1.895,0.618,2.568,1.323c0.173,0.181,0.33,0.345,0.467,0.467c0.355,0.316,0.777,0.345,1.145,0.26
	c0.141-0.032,0.271-0.083,0.39-0.138C48.034,22.05,48.046,22.148,48.055,22.248 M48.001,23.1c-0.498,0.259-1.391,0.603-1.802,0.238
	c-0.13-0.116-0.28-0.272-0.444-0.443c-0.707-0.739-1.783-1.861-2.992-1.422c-0.86,0.305-1.567-0.159-1.925-0.473
	c0.078-0.181,0.152-0.348,0.221-0.491c0.378,0.312,1.106,0.727,2.099,0.374c0.983-0.343,1.892,0.618,2.563,1.321
	c0.174,0.182,0.331,0.347,0.471,0.469c0.333,0.295,0.812,0.294,1.261,0.191c0.22-0.05,0.422-0.126,0.605-0.203
	c-0.001,0.016,0.001,0.03-0.001,0.045C48.047,22.82,48.026,22.955,48.001,23.1 M47.839,23.868c-0.454,0.257-1.48,0.704-1.93,0.306
	c-0.13-0.116-0.279-0.272-0.443-0.444c-0.704-0.739-1.762-1.853-2.988-1.421c-0.896,0.321-1.63-0.197-1.971-0.512
	c0.06-0.149,0.117-0.29,0.173-0.427c0.455,0.361,1.255,0.801,2.214,0.465c0.99-0.343,1.897,0.619,2.571,1.324
	c0.173,0.18,0.33,0.344,0.466,0.465c0.333,0.296,0.812,0.296,1.262,0.193c0.263-0.061,0.507-0.157,0.715-0.249
	C47.885,23.667,47.864,23.763,47.839,23.868 M47.591,24.816c-0.402,0.245-1.531,0.775-2.005,0.354
	c-0.131-0.117-0.279-0.272-0.442-0.443c-0.705-0.74-1.776-1.859-2.992-1.423c-0.94,0.336-1.7-0.249-2.017-0.553
	c0.075-0.197,0.149-0.388,0.223-0.574c0.444,0.366,1.259,0.842,2.253,0.494c0.979-0.337,1.893,0.62,2.564,1.324
	c0.173,0.181,0.33,0.344,0.467,0.466c0.333,0.295,0.814,0.294,1.264,0.191c0.302-0.069,0.587-0.184,0.809-0.288
	C47.675,24.511,47.633,24.664,47.591,24.816"/>
<path fill="#2E3548" d="M50.024,38.851c0.069-0.215,0.12-0.451,0.155-0.699l0.41,0.818L50.024,38.851z"/>
<path fill="#2E3548" d="M47.976,40.828c0.619-0.156,1.123-0.448,1.359-0.715c0.036-0.04,0.074-0.097,0.111-0.144l0.379,0.976
	L47.976,40.828z"/>
<path fill="#2E3548" d="M47.976,40.828c-0.073,0.018-0.149,0.031-0.227,0.047l-0.009-0.062L47.976,40.828z"/>
<path fill="#2E3548" d="M48.538,44.855l1.402,0.34l-0.925-2.969l2.005,1.35l-0.719-2.285l1.59,0.816l-0.767-2.254l1.502-0.272
	l-1.299-2.024l0.986-0.193l-2.24-0.973l-0.028,0.002c-0.085-0.288-0.195-0.581-0.355-0.883c-1.112-2.098-2.522-2.009-2.522-2.009
	c-0.737-0.084-1.351,0.119-1.843,0.495l0.552-0.979l4.075,0.436l-0.551,0.802l1.406,1.549l4.29,1.861l-1.867,0.364l2.631,1.456
	l-1.502,0.155l1.791,1.961l-2.131,0.518l0.97,2.504l-1.904-0.426l0.582,2.621l-1.65-0.828l0.152,2.043l-1.396-1.197l0.295,1.326
	l-1.617-0.619l-0.228,1.188l-2.092-2.113c0.342-0.135,0.614-0.312,0.764-0.479C48.123,45.88,48.387,45.427,48.538,44.855"/>
<path fill="#2E3548" d="M43.471,41.798c0.397-0.807,0.991-1.311,1.725-1.479c0.094,0.126,0.204,0.229,0.327,0.313
	c-0.964,0.104-1.489,0.856-1.719,1.323c-0.611,1.234-0.526,2.893,0.191,3.771c0.636,0.779,1.415,0.941,1.958,0.941
	c0.845,0,1.563-0.379,1.805-0.646c0.489-0.557,1.181-2.057,0.276-3.764c-0.368-0.693-0.77-1.082-1.122-1.312
	c0.183-0.008,0.358-0.027,0.527-0.055c0.307,0.27,0.628,0.645,0.924,1.203c0.994,1.875,0.22,3.543-0.328,4.164
	c-0.344,0.383-1.169,0.77-2.082,0.771c-0.624,0-1.52-0.188-2.247-1.076C42.907,44.972,42.804,43.148,43.471,41.798"/>
<path fill="#2E3548" d="M44.559,43.976c0.233,0.738,0.87,1.254,1.551,1.254c0.128,0,0.254-0.018,0.376-0.055
	c0.334-0.1,0.613-0.332,0.791-0.656c0.22-0.406,0.259-0.912,0.105-1.391c-0.231-0.738-0.869-1.256-1.547-1.256
	c-0.129,0-0.256,0.02-0.378,0.057c-0.333,0.1-0.615,0.332-0.791,0.658C44.446,42.992,44.407,43.498,44.559,43.976 M45.071,42.894
	c0.122-0.232,0.318-0.398,0.557-0.469c0.536-0.166,1.13,0.197,1.319,0.803c0.102,0.316,0.077,0.654-0.068,0.928
	c-0.122,0.232-0.321,0.398-0.559,0.469c-0.086,0.025-0.173,0.039-0.261,0.039c-0.454,0-0.896-0.338-1.057-0.844
	C44.902,43.503,44.927,43.167,45.071,42.894"/>
<path fill="#2E3548" d="M45.739,42.796c0.051-0.016,0.104-0.023,0.155-0.023c0.29,0,0.576,0.229,0.684,0.572
	c0.07,0.219,0.056,0.447-0.042,0.629c-0.051,0.1-0.15,0.229-0.327,0.279c-0.329,0.1-0.708-0.146-0.838-0.551l0,0
	c-0.068-0.217-0.054-0.447,0.042-0.629C45.466,42.976,45.563,42.847,45.739,42.796"/>
<path fill="#2E3548" d="M44.47,39.898c-0.93-1.137-1.051-3.258-0.276-4.828c0.634-1.28,1.685-1.909,2.999-1.778
	c0.262,0,1.617,0.102,2.689,2.122c1.16,2.188,0.255,4.12-0.384,4.835c-0.397,0.447-1.354,0.898-2.417,0.898
	C46.354,41.148,45.313,40.933,44.47,39.898 M44.581,35.251c-0.709,1.437-0.611,3.365,0.224,4.387
	c0.738,0.902,1.645,1.092,2.276,1.092c0.979,0,1.813-0.441,2.093-0.755c0.574-0.642,1.381-2.381,0.326-4.369
	c-0.978-1.842-2.174-1.896-2.357-1.897c-0.105-0.012-0.209-0.019-0.31-0.019C45.544,33.69,44.87,34.668,44.581,35.251"/>
<path fill="#2E3548" d="M45.46,37.602c0.271,0.859,1.011,1.459,1.8,1.459c0.148,0,0.295-0.022,0.438-0.065
	c0.388-0.115,0.716-0.386,0.921-0.763c0.255-0.47,0.302-1.059,0.126-1.616c-0.272-0.858-1.014-1.458-1.802-1.458
	c-0.149,0-0.295,0.022-0.438,0.064c-0.389,0.115-0.716,0.386-0.92,0.761C45.329,36.454,45.283,37.044,45.46,37.602 M46.01,36.192
	c0.168-0.277,0.425-0.47,0.726-0.542c0.672-0.162,1.379,0.332,1.573,1.099c0.102,0.402,0.044,0.821-0.155,1.149
	c-0.168,0.277-0.426,0.468-0.723,0.54c-0.087,0.02-0.174,0.03-0.261,0.03c-0.586,0-1.144-0.459-1.312-1.128
	C45.755,36.939,45.811,36.521,46.01,36.192"/>
<path fill="#2E3548" d="M46.824,36.027c0.058-0.014,0.114-0.021,0.172-0.021c0.412,0,0.812,0.343,0.938,0.838
	c0.076,0.301,0.035,0.612-0.111,0.853c-0.114,0.188-0.286,0.317-0.481,0.364c-0.471,0.112-0.967-0.253-1.109-0.815
	c-0.076-0.302-0.036-0.613,0.11-0.854C46.455,36.204,46.627,36.074,46.824,36.027"/>
<path fill="#2E3548" d="M30.066,30.248l0.045,0.493c0.007,0.309-0.244,0.568-0.557,0.575l-0.015,0.205v-0.205
	c-0.31,0-0.568-0.245-0.575-0.546l-0.056-0.593c-0.082-0.03-0.161-0.062-0.242-0.094c-0.06-0.008-0.121-0.016-0.181-0.025
	l0.06,0.722c0.012,0.522,0.458,0.946,0.994,0.946h0.026c0.543-0.015,0.977-0.46,0.966-0.994l-0.042-0.363
	C30.346,30.332,30.208,30.287,30.066,30.248"/>
<path fill="#2E3548" d="M38.782,30.176l0.013,0.361c0.008,0.309-0.243,0.567-0.559,0.575l-0.017,0.205v-0.205
	c-0.311,0-0.563-0.24-0.572-0.545l-0.014-0.238h-0.42l0.013,0.249c0.017,0.529,0.453,0.943,0.993,0.943h0.026
	c0.548-0.014,0.981-0.46,0.969-0.993l-0.013-0.352H38.782z"/>
<path fill="#2E3548" d="M28.134,28.639c-0.05-0.569-0.275-3.289-0.117-4.796c0.075-0.37,0.783-3.164,1.53-3.948
	c0.232-0.149,2.148-0.841,4.511-0.841c1.61,0,3.116,0.308,4.479,0.917c0.38,0.17,1.034,2.636,1.102,3.491
	c0.171,2.074,0.169,3.979,0.156,4.837c0.182-0.003,0.39-0.007,0.537,0.09c0.005,0.004,0.006,0.01,0.011,0.014
	c0.015-0.819,0.023-2.817-0.155-4.984c-0.021-0.266-0.583-3.566-1.423-3.936c-1.433-0.64-3.016-0.966-4.706-0.966
	c-2.633,0-4.706,0.798-4.883,0.985c-0.972,1.013-1.698,4.236-1.702,4.266c-0.186,1.751,0.111,4.9,0.123,5.018
	c0,0.005,0.017,0.358,0.142,0.584C27.806,29.077,27.889,28.814,28.134,28.639"/>
<path fill="#2E3548" d="M29.058,23.403h-0.105L28.854,23.3c-0.095-0.123-0.118-0.34,0.079-1.002
	c0.229-0.776,0.356-1.124,0.394-1.222c0.029-0.224,0.298-1.039,2.709-1.234c1.091-0.088,2.345-0.181,3.416-0.181
	c1.654,0,2.498,0.217,2.738,0.704c0.181,0.369,1.054,2.22,0.563,2.494c-0.152,0.086-1.009,0.174-4.936,0.375l-0.276,0.015
	c-1.017,0.054-4.048,0.139-4.426,0.149L29.058,23.403z M35.451,20.07c-1.056,0-2.299,0.092-3.381,0.18
	c-2.237,0.181-2.327,0.873-2.327,0.88l-0.015,0.068c-0.002,0.003-0.129,0.316-0.393,1.213c-0.092,0.309-0.122,0.483-0.13,0.576
	c0.648-0.018,3.366-0.097,4.314-0.147l0.275-0.015c2.742-0.14,4.321-0.245,4.699-0.313c-0.002-0.272-0.295-1.178-0.683-1.97
	C37.725,20.366,37.303,20.07,35.451,20.07"/>
<path fill="#2E3548" d="M34.941,30.753L34.941,30.753c-2.845,0-6.195-0.308-6.481-0.35c-0.525-0.073-0.78-0.557-0.791-0.578
	c-0.015-0.042-0.081-0.299-0.127-0.617c-0.056-0.4,0.472-0.818,0.578-0.898l0.054-0.041l11.767-0.258l0.061,0.049
	c0,0,0.304,0.25,0.419,0.356c0.215,0.201,0.11,1.28,0.046,1.385c-0.073,0.148-0.202,0.405-2.811,0.802 M28.06,29.681
	c0.007,0,0.172,0.276,0.462,0.318c0.285,0.041,3.598,0.345,6.419,0.345c1.122,0,2.014-0.049,2.648-0.145
	c2.173-0.331,2.468-0.547,2.505-0.588c0.027-0.111,0.061-0.805,0.007-0.936c-0.056-0.045-0.22-0.179-0.31-0.251l-11.468,0.251
	c-0.194,0.158-0.38,0.381-0.366,0.478C27.997,29.425,28.052,29.65,28.06,29.681L28.06,29.681z"/>
<path fill="#2E3548" d="M29.256,26.703c-0.535,0-0.965-0.409-0.98-0.93c-0.013-0.523,0.414-0.961,0.952-0.975h0.001
	c0.55,0,0.988,0.417,1,0.93c0.013,0.522-0.413,0.96-0.951,0.975H29.256z M29.251,25.207c-0.32,0.008-0.564,0.257-0.557,0.556
	c0.009,0.298,0.255,0.53,0.561,0.53v0.205l0.013-0.205c0.305-0.007,0.548-0.257,0.54-0.556
	C29.802,25.443,29.553,25.207,29.251,25.207"/>
<path fill="#2E3548" d="M38.014,26.77c-0.531,0-0.958-0.408-0.971-0.929c-0.006-0.252,0.088-0.493,0.267-0.677
	c0.181-0.186,0.425-0.292,0.688-0.298c0.55,0,0.984,0.418,0.996,0.932c0.008,0.249-0.086,0.489-0.264,0.673
	c-0.18,0.186-0.424,0.293-0.687,0.299H38.014z M38.021,25.274c-0.165,0.003-0.304,0.064-0.407,0.17
	c-0.102,0.105-0.155,0.243-0.151,0.386c0.006,0.298,0.249,0.53,0.551,0.53v0.205l0.018-0.205c0.151-0.003,0.29-0.064,0.394-0.171
	c0.101-0.104,0.153-0.239,0.147-0.382C38.566,25.512,38.319,25.274,38.021,25.274"/>
<path fill="#2E3548" d="M34.107,28.525l-0.217-0.51c-1.787-4.199-5.913-4.105-5.97-4.103l-0.015-0.409
	c0.045-0.006,4.163-0.095,6.157,3.889c1.633-4.015,5.618-4.42,5.659-4.425l0.038,0.408c-0.04,0.004-4.067,0.422-5.477,4.625
	L34.107,28.525z"/>
<path fill="#2E3548" d="M11.129,54.99l0.301-0.24c0.752-0.592,0.798-1.23,0.144-2.068l-1.536-1.947L9.52,51.142
	c0.115,0.201,0.218,0.354,0.286,0.461l-2.57,2.029c-0.125-0.125-0.244-0.254-0.374-0.375l-0.518,0.408L7.6,55.257l0.518-0.408
	c-0.095-0.166-0.191-0.33-0.307-0.486L8.51,53.81l0.63,0.799C9.791,55.435,10.415,55.552,11.129,54.99 M9.697,54.076l-0.584-0.74
	l1.237-0.977l0.584,0.74c0.309,0.393,0.27,0.723-0.09,1.006l-0.158,0.125C10.337,54.507,9.997,54.457,9.697,54.076"/>
<path fill="#2E3548" d="M15.247,57.416c0.118,0.08,0.236,0.18,0.363,0.26l0.448-0.484l-1.303-1.201l-0.447,0.486
	c0.105,0.123,0.21,0.238,0.31,0.35l-1.672,1.812c-0.357,0.387-0.803,0.432-1.195,0.072l-0.222-0.205
	c-0.396-0.365-0.381-0.811-0.025-1.197l1.663-1.803c0.143,0.113,0.29,0.223,0.447,0.33l0.447-0.484l-1.471-1.357l-0.447,0.484
	c0.11,0.141,0.225,0.266,0.34,0.398l-1.58,1.713c-0.804,0.871-0.782,1.654,0.07,2.439l0.278,0.256
	c0.837,0.771,1.607,0.721,2.411-0.15L15.247,57.416z"/>
<path fill="#2E3548" d="M20.308,59.953l-1.506-0.969l-0.358,0.555c0.12,0.102,0.238,0.193,0.349,0.281l-1.391,2.164l-0.034-3.922
	l-1.184-0.76l-0.356,0.555c0.18,0.156,0.316,0.268,0.417,0.348l-1.766,2.748c-0.15-0.08-0.308-0.158-0.475-0.232l-0.357,0.555
	l1.49,0.957l0.357-0.555c-0.114-0.098-0.22-0.182-0.332-0.27l1.344-2.09l-0.004,3.791l0.81,0.521l2.159-3.359
	c0.154,0.084,0.313,0.162,0.48,0.238L20.308,59.953z"/>
<path fill="#2E3548" d="M23.479,62.13l-0.21,0.645l0.587,0.252l0.567-1.318l-3.954-1.701l-0.567,1.32l0.588,0.252l0.322-0.594
	l0.91,0.391l-1.278,2.969c-0.162-0.047-0.372-0.123-0.537-0.166l-0.261,0.607l1.887,0.811l0.261-0.605
	c-0.144-0.09-0.34-0.197-0.496-0.279l1.278-2.969L23.479,62.13z"/>
<path fill="#2E3548" d="M27.066,62.402l-1.941-0.512l-0.168,0.639c0.215,0.084,0.354,0.135,0.468,0.178l-1.884,2.896
	c-0.191-0.043-0.38-0.064-0.569-0.088l-0.169,0.639l1.818,0.48l0.168-0.639c-0.15-0.068-0.192-0.094-0.337-0.152l0.346-0.598
	l1.505,0.396l0.043,0.707c-0.153-0.025-0.3-0.051-0.456-0.064l-0.169,0.639l2.026,0.533l0.168-0.637
	c-0.181-0.078-0.364-0.152-0.564-0.213L27.066,62.402z M25.175,64.529l1.003-1.561l0.02,0.006l0.11,1.854L25.175,64.529z"/>
<path fill="#2E3548" d="M33.285,63.193l-2.625-0.082l-0.02,0.658c0.227,0.041,0.388,0.061,0.536,0.078l-0.103,3.264
	c-0.129,0.018-0.304,0.025-0.527,0.051l-0.021,0.66l2.618,0.082c1.132,0.037,1.665-0.459,1.716-1.59l0.043-1.393
	C34.938,63.763,34.443,63.236,33.285,63.193 M33.933,66.359c-0.022,0.525-0.32,0.799-0.859,0.783l-1.07-0.035l0.1-3.189l1.071,0.033
	c0.538,0.018,0.825,0.316,0.809,0.854L33.933,66.359z"/>
<path fill="#2E3548" d="M38.823,66.156l-0.031,0.635l-1.638,0.199l-0.149-1.223l1.243-0.152l-0.096-0.789l-1.244,0.152l-0.146-1.197
	l1.593-0.193l0.183,0.607l0.581-0.07l-0.165-1.357l-3.718,0.453l0.08,0.654c0.237,0.006,0.386-0.006,0.528-0.004l0.396,3.25
	c-0.118,0.035-0.277,0.07-0.501,0.123l0.08,0.656l3.752-0.457l-0.166-1.359L38.823,66.156z"/>
<path fill="#2E3548" d="M43.21,65.013l0.086,0.736l-1.56,0.42l-0.844-3.135c0.221-0.064,0.421-0.146,0.607-0.232l-0.171-0.637
	l-2.023,0.543l0.172,0.639c0.169-0.018,0.343-0.051,0.523-0.078l0.85,3.16c-0.106,0.043-0.26,0.098-0.478,0.189l0.17,0.639
	l3.647-0.98l-0.383-1.424L43.21,65.013z"/>
<path fill="#2E3548" d="M49.028,62.673l0.182,0.609l-1.482,0.729l-0.544-1.105l1.124-0.555l-0.351-0.713l-1.125,0.555L46.3,61.111
	l1.438-0.709l0.374,0.516l0.526-0.26l-0.604-1.229l-3.361,1.656l0.292,0.592c0.226-0.072,0.362-0.133,0.498-0.178l1.446,2.939
	c-0.101,0.07-0.239,0.154-0.434,0.279l0.292,0.594l3.392-1.672l-0.604-1.227L49.028,62.673z"/>
<path fill="#2E3548" d="M53.327,59.716c-0.385-0.561-0.744-0.666-1.404-0.424l-1.338,0.527c-0.296,0.105-0.455,0.053-0.608-0.17
	l-0.037-0.057c-0.222-0.32-0.132-0.547,0.297-0.84l0.166-0.115c0.255-0.176,0.502-0.305,0.757-0.35l0.46,0.477l0.604-0.416
	l-0.701-1.02c-0.585,0.172-1.046,0.383-1.545,0.725l-0.16,0.111c-0.972,0.67-1.163,1.258-0.645,2.014l0.042,0.061
	c0.42,0.609,0.739,0.693,1.467,0.445l1.149-0.445c0.463-0.17,0.628-0.146,0.823,0.137l0.088,0.129
	c0.248,0.361,0.161,0.568-0.338,0.91l-0.084,0.059c-0.322,0.221-0.569,0.35-0.874,0.404l-0.443-0.465l-0.633,0.436l0.665,0.967
	c0.691-0.182,1.055-0.311,1.604-0.688l0.217-0.148c0.977-0.672,1.158-1.264,0.636-2.023L53.327,59.716z"/>
<path fill="#2E3548" d="M56.313,58.126l-2.204-2.367l0.72-0.67l0.504,0.453l0.469-0.438l-0.979-1.051l-3.15,2.934l0.978,1.051
	l0.469-0.436l-0.415-0.535l0.726-0.674l2.204,2.367c-0.11,0.129-0.264,0.291-0.368,0.424l0.449,0.484l1.504-1.4l-0.45-0.482
	C56.627,57.88,56.451,58.017,56.313,58.126"/>
<path fill="#2E3548" d="M59.51,53.537l0.423,0.475l-1.028,1.291l-0.964-0.77l0.78-0.979L58.1,53.058l-0.78,0.98l-0.943-0.752
	l0.999-1.252l0.557,0.305l0.365-0.459l-1.069-0.852l-2.333,2.93l0.517,0.41c0.173-0.162,0.27-0.273,0.375-0.373l2.56,2.041
	c-0.06,0.107-0.15,0.242-0.272,0.438l0.518,0.412l2.354-2.955l-1.069-0.854L59.51,53.537z"/>
</svg>
