<?xml version="1.0" encoding="utf-8"?>
<!-- Generator: Adobe Illustrator 16.0.0, SVG Export Plug-In . SVG Version: 6.00 Build 0)  -->
<!DOCTYPE svg PUBLIC "-//W3C//DTD SVG 1.1//EN" "http://www.w3.org/Graphics/SVG/1.1/DTD/svg11.dtd">
<svg version="1.1" id="Layer_1" xmlns="http://www.w3.org/2000/svg" xmlns:xlink="http://www.w3.org/1999/xlink" x="0px" y="0px"
	 width="54.884px" height="162.34px" viewBox="0 0 54.884 162.34" enable-background="new 0 0 54.884 162.34" xml:space="preserve">
<path fill="#FFFFFF" d="M50.449,135.165c0.156-5.13-1.193-10.947-3.488-17.064c3.243-2.674,5.344-5.496,6.562-8.467
	c1.332-3.243,1.611-6.625,1.162-10.06c-0.438-3.347-1.567-6.7-3.09-10.018c-1.306-2.845-2.681-5.767-4.507-8.497
	c1.813-2.727,3.171-5.648,4.457-8.49c1.5-3.315,2.604-6.667,3.018-10.014c0.424-3.432,0.123-6.816-1.221-10.061
	c-1.222-2.955-3.306-5.766-6.5-8.43c2.194-6.032,3.463-11.767,3.284-16.835C49.57,7.357,38.418,0.293,26.989,0
	C15.564,0.161,3.863,7.089,2.247,25.702c-0.783,6.604,0.877,14.422,3.57,21.873c-2.026,2.036-3.44,4.158-4.35,6.359
	c-1.277,3.089-1.564,6.304-1.163,9.563c0.392,3.178,1.441,6.361,2.866,9.51c1.223,2.707,2.725,5.39,4.323,8.053
	C5.88,83.725,4.363,86.41,3.122,89.12c-1.447,3.15-2.519,6.336-2.934,9.514c-0.425,3.26-0.158,6.475,1.107,9.562
	c0.904,2.207,2.323,4.335,4.367,6.374c-2.756,7.571-4.492,15.495-3.735,22.124c1.494,18.605,13.426,25.48,25.078,25.646
	C38.656,162.042,50.027,155.035,50.449,135.165 M49.793,90.834c1.403,3.047,2.439,6.081,2.826,9.038
	c0.375,2.867,0.14,5.69-0.98,8.408c-1.042,2.531-2.854,4.984-5.643,7.366c-2.66-6.498-6.282-13.258-10.282-20.087
	c0.895-1.084,1.777-2.146,2.638-3.183c2.721-3.28,5.219-6.318,7.173-9.044C47.089,85.836,48.63,88.307,49.793,90.834 M10.139,81.059
	c1.69-2.217,4.447-5.822,7.518-10.136c3.221,5.002,5.946,8.571,6.937,9.842c-0.867,1.125-3.698,4.887-7.086,10.248
	C14.488,86.778,11.796,83.243,10.139,81.059 M19.178,68.76c2.268-3.26,4.636-6.843,6.834-10.533
	c2.217,3.062,4.562,6.018,6.864,8.832c-2.347,3.813-4.637,7.356-6.578,10.527c-0.153,0.25-0.306,0.5-0.459,0.75
	C24.479,76.549,21.986,73.165,19.178,68.76 M25.859,84.037l0.46,0.75c1.914,3.125,4.17,6.611,6.494,10.36
	c-2.279,2.784-4.606,5.706-6.81,8.731c-2.177-3.637-4.514-7.167-6.752-10.387C22.046,89.146,24.509,85.808,25.859,84.037
	 M28.433,83.498c-0.464-0.758-0.928-1.517-1.393-2.275c-0.009-0.015-0.021-0.033-0.034-0.053c0.004-0.006,0.009-0.013,0.013-0.02
	c0.464-0.759,0.929-1.518,1.392-2.275c2.042-3.335,4.064-6.647,6.009-9.938c0.674,0.816,1.34,1.619,1.992,2.408
	c2.984,3.599,5.704,6.904,7.666,9.714c-1.949,2.808-4.661,6.11-7.643,9.706c-0.679,0.819-1.373,1.654-2.074,2.503
	C32.437,90.032,30.44,86.776,28.433,83.498 M51.479,53.845c1.129,2.72,1.382,5.543,1.026,8.411
	c-0.368,2.955-1.383,5.989-2.767,9.034c-1.146,2.525-2.673,4.994-4.225,7.495c-1.965-2.727-4.47-5.769-7.193-9.05
	c-0.836-1.007-1.691-2.038-2.559-3.091c3.975-6.844,7.545-13.615,10.141-20.121C48.644,48.892,50.436,51.332,51.479,53.845
	 M4.731,26.375c0.763-14.94,11.216-20.932,21.621-21.23c10.404,0.056,20.76,5.807,21.273,22.497
	c0.422,11.883-6.512,25.835-13.375,37.16c-2.322-2.851-4.677-5.84-6.871-8.918c6.137-10.725,10.899-22.423,8.454-29.156
	c-1.829-8.771-12.099-14.055-18.87-3.619c-6.058,9.996-0.418,21.469,7.479,32.899c-2.194,3.735-4.485,7.299-6.657,10.524
	C11.076,55.674,3.25,38.972,4.731,26.375 M25.812,53.626c-5.548-8.208-8.589-17.429-7.704-25.045
	c1.033-8.851,11.514-8.142,14.397-0.815C34.71,33.464,31.368,43.753,25.812,53.626 M4.884,71.788
	c-1.314-2.894-2.277-5.774-2.625-8.581c-0.338-2.724-0.096-5.409,0.977-7.997c0.739-1.784,1.875-3.532,3.485-5.241
	c2.752,6.992,6.311,13.53,9.559,18.774c-3.096,4.492-5.825,8.168-7.479,10.361C7.347,76.666,5.989,74.222,4.884,71.788
	 M3.083,106.916c-1.063-2.586-1.29-5.271-0.934-7.996c0.367-2.808,1.351-5.688,2.685-8.584c1.12-2.436,2.492-4.88,3.959-7.32
	c1.626,2.166,4.3,5.781,7.348,10.201c-3.232,5.311-6.786,11.911-9.566,18.947C4.956,110.454,3.818,108.703,3.083,106.916
	 M4.445,136.013c-1.427-12.639,6.633-29.431,13.402-40.292c2.143,3.186,4.405,6.698,6.578,10.376
	c-7.951,11.43-13.732,22.908-7.616,32.891c6.852,10.42,17.314,5.144,19.138-3.617c2.463-6.729-2.395-18.427-8.567-29.149
	c2.183-3.042,4.519-5.996,6.818-8.816c6.94,11.36,14.083,25.401,13.718,37.342c-0.412,16.686-10.965,22.393-21.561,22.452
	C15.756,156.897,5.113,150.949,4.445,136.013 M25.801,108.478c5.589,9.87,8.884,20.113,6.771,25.852
	c-2.779,7.276-13.494,8.001-14.586-0.813C17.049,125.915,20.212,116.683,25.801,108.478"/>
</svg>
