<?xml version="1.0" encoding="utf-8"?>
<!-- Generator: Adobe Illustrator 16.0.0, SVG Export Plug-In . SVG Version: 6.00 Build 0)  -->
<!DOCTYPE svg PUBLIC "-//W3C//DTD SVG 1.1//EN" "http://www.w3.org/Graphics/SVG/1.1/DTD/svg11.dtd">
<svg version="1.1" id="Layer_1" xmlns="http://www.w3.org/2000/svg" xmlns:xlink="http://www.w3.org/1999/xlink" x="0px" y="0px"
	 width="96.515px" height="69.073px" viewBox="0 0 96.515 69.073" enable-background="new 0 0 96.515 69.073" xml:space="preserve">
<path fill="#DDC3A2" d="M95.856,19.69C83.169,6.993,66.264,0,48.261,0C30.259,0,13.352,6.993,0.653,19.691
	c-0.87,0.874-0.87,2.292,0.001,3.162c0.424,0.424,0.987,0.657,1.586,0.657h0.002c0.598,0,1.161-0.234,1.583-0.657
	C15.676,11.002,31.458,4.475,48.261,4.475c16.794,0,32.575,6.527,44.436,18.38c0.428,0.423,0.986,0.656,1.577,0.656
	c0.599,0,1.16-0.234,1.583-0.657c0.426-0.424,0.659-0.989,0.658-1.59C96.513,20.667,96.279,20.108,95.856,19.69"/>
<path fill="#DDC3A2" d="M10.882,29.909c-0.424,0.424-0.657,0.988-0.657,1.588c0.001,0.599,0.234,1.161,0.656,1.582
	c0.423,0.424,0.986,0.658,1.586,0.658c0.597,0,1.173-0.242,1.575-0.658c18.867-18.864,49.564-18.863,68.427,0
	c0.424,0.424,0.985,0.658,1.582,0.658c0-0.001,0.001-0.001,0.001-0.001c0.598,0,1.157-0.234,1.578-0.656
	c0.424-0.422,0.657-0.984,0.658-1.583c0-0.6-0.233-1.164-0.657-1.588C65.023,9.3,31.488,9.302,10.882,29.909"/>
<path fill="#DDC3A2" d="M48.261,28.906c-10.268,0-19.911,3.989-27.152,11.231c-0.423,0.423-0.657,0.985-0.657,1.585
	s0.234,1.162,0.657,1.584c0.843,0.848,2.314,0.847,3.162,0.001c6.404-6.396,14.925-9.918,23.99-9.918
	c9.068,0,17.586,3.522,23.98,9.917c0.421,0.425,0.985,0.659,1.587,0.659c0.595,0,1.154-0.234,1.577-0.657s0.656-0.985,0.656-1.585
	s-0.233-1.162-0.656-1.584C68.163,32.895,58.523,28.906,48.261,28.906"/>
<path fill="#DDC3A2" d="M48.261,45.273c-6.561,0-11.898,5.338-11.898,11.899s5.337,11.9,11.898,11.9
	c6.557,0,11.891-5.339,11.891-11.9S54.817,45.273,48.261,45.273 M55.676,57.172c0,4.09-3.326,7.417-7.415,7.417
	c-4.09,0-7.417-3.327-7.417-7.417c0-4.089,3.327-7.416,7.417-7.416C52.35,49.756,55.676,53.083,55.676,57.172"/>
</svg>
