<?xml version="1.0" encoding="utf-8"?>
<!-- Generator: Adobe Illustrator 16.0.0, SVG Export Plug-In . SVG Version: 6.00 Build 0)  -->
<!DOCTYPE svg PUBLIC "-//W3C//DTD SVG 1.1//EN" "http://www.w3.org/Graphics/SVG/1.1/DTD/svg11.dtd">
<svg version="1.1" id="Layer_1" xmlns="http://www.w3.org/2000/svg" xmlns:xlink="http://www.w3.org/1999/xlink" x="0px" y="0px"
	 width="97.419px" height="84.497px" viewBox="0 0 97.419 84.497" enable-background="new 0 0 97.419 84.497" xml:space="preserve">
<path fill="#DDC3A2" d="M95.554,48.459h-1.365v-4.597c-0.005-3.251-1.901-6.198-4.846-7.553V11.557
	c-0.001-0.646-0.335-1.239-0.871-1.576c0.567-0.996,0.867-2.12,0.871-3.27c0-3.7-3.011-6.711-6.712-6.711
	c-3.7,0-6.711,3.011-6.711,6.713c0.006,1.037,0.256,2.059,0.727,2.979H20.774c0.469-0.921,0.719-1.942,0.725-2.981
	c0-3.7-3.011-6.711-6.711-6.711c-3.701,0-6.711,3.011-6.711,6.712C8.08,7.859,8.38,8.984,8.947,9.98
	c-0.536,0.338-0.87,0.93-0.87,1.577V36.31c-2.946,1.355-4.842,4.302-4.846,7.554v4.596H1.865C0.837,48.459,0,49.296,0,50.325v22.614
	c0,1.028,0.837,1.865,1.865,1.865h1.366v7.827c0,1.028,0.837,1.865,1.865,1.865h6.461c1.029,0,1.866-0.837,1.866-1.865v-7.827
	h70.573v7.827c0,1.028,0.837,1.865,1.865,1.865h6.462c1.028,0,1.865-0.837,1.865-1.865v-7.827h1.365
	c1.028,0,1.865-0.837,1.865-1.865V50.325C97.419,49.296,96.582,48.459,95.554,48.459 M90.458,80.765h-2.731v-5.961h2.731V80.765z
	 M6.961,74.804h2.73v5.961h-2.73V74.804z M11.807,6.71c0-1.643,1.338-2.98,2.981-2.98c1.644,0,2.981,1.337,2.981,2.98
	c0,1.644-1.337,2.981-2.981,2.981C13.145,9.691,11.807,8.354,11.807,6.71 M55.421,27.71c0-2.534,2.062-4.596,4.596-4.596h12.923
	c2.534,0,4.596,2.062,4.596,4.596v3.23c0,2.535-2.062,4.596-4.596,4.596H60.017c-2.534,0-4.596-2.061-4.596-4.596V27.71z
	 M19.884,27.71c0-2.534,2.061-4.596,4.595-4.596h12.923c2.535,0,4.596,2.062,4.596,4.596v3.23c0,2.535-2.061,4.596-4.596,4.596
	H24.479c-2.534,0-4.595-2.061-4.595-4.596V27.71z M85.611,35.537h-5.765c0.913-1.349,1.413-2.962,1.419-4.596v-3.231
	c-0.005-4.585-3.74-8.32-8.326-8.326H60.017c-4.586,0.006-8.321,3.741-8.326,8.327v3.231c0.006,1.633,0.506,3.246,1.419,4.595H44.31
	c0.913-1.349,1.413-2.962,1.419-4.596v-3.231c-0.005-4.585-3.741-8.32-8.327-8.326H24.479c-4.585,0.006-8.321,3.741-8.326,8.327
	v3.231c0.006,1.633,0.506,3.246,1.419,4.595h-5.765V13.422h73.804V35.537z M6.961,48.459v-4.596c0-2.534,2.062-4.596,4.596-4.596
	h74.304c2.535,0,4.597,2.062,4.597,4.596v4.596H6.961z M79.65,6.71c0-1.643,1.337-2.98,2.98-2.98s2.98,1.337,2.98,2.98
	c0,1.644-1.337,2.981-2.98,2.981S79.65,8.354,79.65,6.71 M93.688,71.074H3.73V52.19h89.958V71.074z"/>
</svg>
