<?xml version="1.0" encoding="utf-8"?>
<!-- Generator: Adobe Illustrator 16.0.0, SVG Export Plug-In . SVG Version: 6.00 Build 0)  -->
<!DOCTYPE svg PUBLIC "-//W3C//DTD SVG 1.1//EN" "http://www.w3.org/Graphics/SVG/1.1/DTD/svg11.dtd">
<svg version="1.1" id="Layer_1" xmlns="http://www.w3.org/2000/svg" xmlns:xlink="http://www.w3.org/1999/xlink" x="0px" y="0px"
	 width="45.417px" height="95.755px" viewBox="0 0 45.417 95.755" enable-background="new 0 0 45.417 95.755" xml:space="preserve">
<path fill="#DDC3A2" d="M17.265,16.354c1.181,0,2.141-0.961,2.141-2.142v-3.359c0-1.181-0.96-2.142-2.141-2.142
	s-2.142,0.961-2.142,2.142v3.359C15.123,15.393,16.083,16.354,17.265,16.354"/>
<path fill="#DDC3A2" d="M28.152,16.354c1.182,0,2.142-0.961,2.142-2.142v-3.359c0-1.181-0.96-2.142-2.142-2.142
	c-1.181,0-2.142,0.961-2.142,2.142v3.359C26.011,15.393,26.972,16.354,28.152,16.354"/>
<path fill="#DDC3A2" d="M43.291,21.575h-3.117V2.197C40.187,1.014,39.235,0.028,38.048,0H7.366C6.183,0.028,5.231,1.014,5.243,2.195
	v19.38H2.126C0.974,21.575,0,22.588,0,23.788v49.26c0,12.521,10.187,22.708,22.708,22.708c12.522,0,22.709-10.187,22.709-22.708
	v-49.26C45.417,22.588,44.443,21.575,43.291,21.575 M41.134,46.626v26.421c0,10.16-8.265,18.426-18.426,18.426
	c-10.16,0-18.425-8.266-18.425-18.426V46.626H41.134z M35.892,21.575H9.526V4.283h26.366V21.575z M41.134,42.343H4.282V25.857
	h36.852V42.343z"/>
<path fill="#DDC3A2" d="M22.709,83.193c4.441,0,8.056-3.614,8.056-8.057S27.15,67.08,22.71,67.08c-4.442,0-8.058,3.614-8.058,8.057
	C14.658,79.573,18.271,83.187,22.709,83.193 M18.936,75.137c0.002-2.079,1.695-3.772,3.773-3.774c2.08,0,3.773,1.692,3.773,3.773
	s-1.693,3.772-3.772,3.772C20.628,78.909,18.936,77.217,18.936,75.137"/>
</svg>
