<?xml version="1.0" encoding="utf-8"?>
<!-- Generator: Adobe Illustrator 16.0.0, SVG Export Plug-In . SVG Version: 6.00 Build 0)  -->
<!DOCTYPE svg PUBLIC "-//W3C//DTD SVG 1.1//EN" "http://www.w3.org/Graphics/SVG/1.1/DTD/svg11.dtd">
<svg version="1.1" id="Layer_1" xmlns="http://www.w3.org/2000/svg" xmlns:xlink="http://www.w3.org/1999/xlink" x="0px" y="0px"
	 width="95.422px" height="101.88px" viewBox="0 0 95.422 101.88" enable-background="new 0 0 95.422 101.88" xml:space="preserve">
<path fill="#DDC3A2" d="M93.143,18.374c-7.937,0-14.394,6.457-14.394,14.394v42.604c0,4.827-3.598,9.008-8.367,9.726l-0.772,0.115
	l-4.25-38.417l0.534-0.21c3.218-1.266,5.298-4.312,5.298-7.761c0-3.589-2.291-6.766-5.701-7.906l-0.449-0.15l-0.058-0.472
	c-0.895-7.405-5.767-13.736-12.715-16.521l-0.805-0.323l0.435-0.75c0.733-1.264,1.121-2.704,1.121-4.165V2.278
	C53.02,1.022,51.997,0,50.74,0H38.625c-1.256,0-2.278,1.023-2.278,2.279v6.259c0,1.461,0.387,2.902,1.12,4.165l0.435,0.75
	l-0.804,0.323c-6.949,2.785-11.821,9.116-12.717,16.522l-0.057,0.471l-0.45,0.15c-3.409,1.14-5.7,4.317-5.7,7.906
	c0,3.449,2.079,6.495,5.297,7.761l0.534,0.21l-0.875,7.923H8.338c-2.507,0-4.858,1.111-6.447,3.051
	c-1.589,1.938-2.22,4.459-1.728,6.913l3.635,18.382c0.777,3.882,4.215,6.7,8.175,6.7h7.278l-0.315,2.857
	c-0.262,2.354,0.495,4.715,2.076,6.482c1.578,1.764,3.842,2.774,6.208,2.774h34.924c2.367,0,4.63-1.011,6.21-2.776
	s2.337-4.127,2.076-6.478l-0.321-2.895l0.728-0.098c7.108-0.955,12.47-7.087,12.47-14.262V32.768c0-5.424,4.413-9.836,9.836-9.836
	c1.256,0,2.279-1.023,2.279-2.279S94.398,18.374,93.143,18.374 M19.755,85.207h-7.782c-1.796,0-3.353-1.275-3.704-3.032
	L4.632,63.793c-0.223-1.111,0.062-2.255,0.783-3.134c0.721-0.88,1.786-1.384,2.923-1.384h14.287L19.755,85.207z M40.904,4.558h7.558
	v3.98c0,2.084-1.695,3.779-3.778,3.779c-2.084,0-3.779-1.695-3.779-3.779V4.558z M29.108,29.588
	c1.502-7.368,8.052-12.715,15.575-12.715c7.521,0,14.071,5.347,15.573,12.715l0.183,0.9H28.925L29.108,29.588z M22.732,38.824
	c0-2.083,1.695-3.779,3.778-3.779h36.345c2.083,0,3.779,1.696,3.779,3.779c0,2.084-1.696,3.779-3.779,3.779H26.511
	C24.428,42.604,22.732,40.908,22.732,38.824 M64.959,96.066c-0.715,0.798-1.74,1.256-2.814,1.256H27.221
	c-1.075,0-2.101-0.458-2.816-1.258c-0.716-0.799-1.058-1.871-0.939-2.94c0.331-2.99,4.854-43.87,5.012-45.295l0.073-0.668h32.264
	L65.9,93.127C66.02,94.194,65.676,95.266,64.959,96.066"/>
</svg>
