<?xml version="1.0" encoding="utf-8"?>
<!-- Generator: Adobe Illustrator 16.0.0, SVG Export Plug-In . SVG Version: 6.00 Build 0)  -->
<!DOCTYPE svg PUBLIC "-//W3C//DTD SVG 1.1//EN" "http://www.w3.org/Graphics/SVG/1.1/DTD/svg11.dtd">
<svg version="1.1" id="Layer_1" xmlns="http://www.w3.org/2000/svg" xmlns:xlink="http://www.w3.org/1999/xlink" x="0px" y="0px"
	 width="512px" height="388.947px" viewBox="0 0 512 388.947" enable-background="new 0 0 512 388.947" xml:space="preserve">
<path fill="#DDC3A2" d="M488.138,278.786V118.207v-9.051C488.138,48.967,439.171,0,378.982,0
	c-60.188,0-109.155,48.968-109.155,109.156v9.051v160.579c-5.57,4.91-10.259,10.568-13.964,16.777
	c-12.401-20.479-34.895-34.215-60.481-34.215h-32.241v-22.421c26.367-11.349,45.105-37.116,46.255-67.317h1.189
	c17.413,0,31.579-14.167,31.579-31.579c0-8.448-3.289-16.381-9.241-22.318c-2.672-2.679-5.745-4.813-9.081-6.358v-1.578
	c0-50.079-40.743-90.823-90.823-90.823c-16.057,0-31.843,4.255-45.652,12.303c-0.003,0.002-0.006,0.004-0.01,0.006
	C59.5,47.484,42.195,77.566,42.195,109.777v1.594c-3.345,1.545-6.415,3.657-9.073,6.323c-5.971,5.957-9.261,13.889-9.261,22.337
	c0,17.413,14.166,31.579,31.579,31.579h1.186c0.726,19.319,8.577,37.38,22.327,51.13c6.994,6.986,15.109,12.439,23.931,16.222
	v22.386H70.653C31.695,261.348,0,293.043,0,332v46.912c0,5.542,4.493,10.035,10.035,10.035H256c0.801,0,1.577-0.104,2.322-0.282
	h243.645c5.541,0,10.034-4.492,10.034-10.034V331.72C512,311.22,503.361,292.203,488.138,278.786 M316.619,261.067
	c-9.312,0-18.33,1.789-26.723,5.226v-96.864c3.569,1.401,7.448,2.182,11.51,2.182h1.202c0.792,19.214,8.637,37.165,22.313,50.842
	c6.992,6.998,15.11,12.456,23.937,16.24v22.374H316.619z M455.436,128.521h1.124c0.604,0,1.178,0.042,1.769,0.137
	c5.554,0.846,9.741,5.735,9.741,11.373c0,3.072-1.197,5.962-3.373,8.137c-2.175,2.174-5.064,3.372-8.136,3.372h-1.124
	L455.436,128.521L455.436,128.521z M435.366,168.388c0,31.097-25.294,56.396-56.384,56.396c-15.064,0-29.221-5.866-39.865-16.519
	c-10.652-10.651-16.519-24.814-16.519-39.876v-46.342c7.424-2.792,14.594-6.325,21.391-10.555
	c13.789-8.589,25.677-19.82,35.003-32.982c14.004,19.702,33.739,34.975,56.374,43.509V168.388z M301.406,151.541
	c-6.346,0-11.51-5.163-11.51-11.509c0-3.078,1.194-5.965,3.385-8.149c1.688-1.693,3.817-2.795,6.159-3.187
	c0.04-0.007,0.079-0.014,0.119-0.021c0.563-0.101,1.185-0.153,1.847-0.153h1.124v23.019H301.406z M368.928,245.123h20.109v15.943
	h-20.109V245.123z M409.106,238.656c26.285-11.315,44.993-36.961,46.248-67.045h1.206c4.003,0,7.889-0.749,11.51-2.165v96.848
	c-8.394-3.438-17.41-5.227-26.723-5.227h-32.241V238.656z M378.982,20.069c49.123,0,89.087,39.964,89.087,89.086v0.049
	c-2.197-0.217-4.383-0.485-6.544-0.843c-4.383-0.709-8.795-1.74-13.118-3.061c-0.023-0.008-0.048-0.015-0.072-0.022
	c-25.94-7.952-47.966-26.404-60.431-50.627c-1.72-3.342-5.164-5.442-8.923-5.442s-7.202,2.101-8.922,5.443
	c-8.401,16.327-21.085,30.091-36.678,39.802c-7.366,4.583-15.247,8.191-23.433,10.726l-14.182,3.293
	c-1.937,0.309-3.898,0.54-5.873,0.734v-0.052C289.896,60.033,329.861,20.069,378.982,20.069 M210.583,151.541h-1.113v-23.019h1.113
	c3.078,0,5.964,1.194,8.146,3.383c2.169,2.163,3.364,5.049,3.364,8.127C222.094,146.378,216.931,151.541,210.583,151.541
	 M133.017,39.024c37.74,0,68.674,29.7,70.653,66.955c-1.767,0.305-3.541,0.554-5.315,0.745c-0.02,0.002-0.039,0.004-0.058,0.006
	c-3.18,0.364-6.48,0.548-9.808,0.548c-25.274,0-49.383-10.868-66.147-29.818c-8.289-9.37-14.493-20.42-18.179-32.295
	C113.191,41.131,123.035,39.024,133.017,39.024 M86.753,56.271c3.712,10.123,8.934,19.672,15.482,28.284
	c-9.236,11.655-22.348,19.829-36.929,22.867c-0.45,0.058-0.888,0.148-1.318,0.264c-0.566,0.105-1.132,0.211-1.701,0.301
	C62.798,87.991,71.852,69.198,86.753,56.271 M43.931,140.031c0-3.078,1.194-5.964,3.385-8.148c1.523-1.527,3.397-2.571,5.465-3.054
	c1.254-0.008,2.513-0.043,3.774-0.107v22.818h-1.114C49.095,151.541,43.931,146.378,43.931,140.031 M76.624,168.669v-7.094v-36.35
	c15.258-4.65,28.942-13.638,39.323-25.762c19.803,17.842,45.632,27.883,72.541,27.883c0.305,0,0.609-0.01,0.913-0.013v34.24v7.094
	c0,31.09-25.294,56.384-56.384,56.384c-15.06,0-29.223-5.863-39.876-16.508C82.49,197.894,76.624,183.732,76.624,168.669
	 M122.953,245.123h20.119v16.226h-20.119V245.123z M20.069,332c0-27.892,22.693-50.583,50.584-50.583h124.729
	c27.766,0,50.46,22.586,50.584,50.348v37.112H20.069V332z M491.931,368.597H266.035V331.72c0-15.103,6.557-29.079,18.059-38.727
	c1.37-0.639,2.577-1.57,3.526-2.726c8.516-5.981,18.497-9.132,28.999-9.132h39.953c0.747,0.177,1.521,0.281,2.321,0.281h40.179
	c0.8,0,1.575-0.104,2.32-0.281h39.954c11.194,0,21.798,3.58,30.666,10.354h0.001c12.658,9.663,19.918,24.326,19.918,40.229
	L491.931,368.597L491.931,368.597z"/>
</svg>
