<?xml version="1.0" encoding="utf-8"?>
<!-- Generator: Adobe Illustrator 16.0.0, SVG Export Plug-In . SVG Version: 6.00 Build 0)  -->
<!DOCTYPE svg PUBLIC "-//W3C//DTD SVG 1.1//EN" "http://www.w3.org/Graphics/SVG/1.1/DTD/svg11.dtd">
<svg version="1.1" id="Layer_1" xmlns="http://www.w3.org/2000/svg" xmlns:xlink="http://www.w3.org/1999/xlink" x="0px" y="0px"
	 width="52px" height="52.2px" viewBox="0 0 52 52.2" enable-background="new 0 0 52 52.2" xml:space="preserve">
<path fill="#D5C2A2" d="M36.899,0H15.3C6.1,0,0,6.3,0,15.3v21.6c0,4.5,1.4,8.5,4.3,11.2c2.8,2.8,6.7,4.1,11,4.1h21.4
	c4.3,0,8.3-1.399,11-4.1c2.8-2.8,4.3-6.7,4.3-11.2V15.4c0-4.5-1.4-8.3-4.101-11C45.2,1.6,41.399,0,36.899,0 M47.3,37
	c0,3.101-1,5.9-2.9,7.7c-1.8,1.8-4.5,2.8-7.699,2.8H15.3c-3.1,0-5.7-1-7.7-2.8c-2-2-2.9-4.7-2.9-7.899V15.2c0-3.1,1-5.9,2.8-7.7
	c1.8-1.8,4.5-2.8,7.7-2.8h21.6c3.3,0,5.9,1,7.9,2.9c1.8,2,2.8,4.5,2.8,7.7V37H47.3z"/>
<path fill="#D5C2A2" d="M39.899,8.9c-1.8,0-3.1,1.4-3.1,3.1c0,1.8,1.4,3.1,3.1,3.1C41.7,15.1,43,13.7,43,12
	C43,10.3,41.6,8.9,39.899,8.9"/>
<path fill="#D5C2A2" d="M25.9,12.6c-7.3,0-13.4,5.9-13.4,13.4c0,7.3,5.9,13.4,13.4,13.4c7.5,0,13.6-5.9,13.6-13.4
	S33.2,12.6,25.9,12.6 M25.9,34.7c-4.8,0-8.7-3.9-8.7-8.7s3.9-8.7,8.7-8.7c4.8,0,8.7,3.9,8.7,8.7S30.7,34.7,25.9,34.7"/>
</svg>
