<?xml version="1.0" encoding="utf-8"?>
<!-- Generator: Adobe Illustrator 16.0.0, SVG Export Plug-In . SVG Version: 6.00 Build 0)  -->
<!DOCTYPE svg PUBLIC "-//W3C//DTD SVG 1.1//EN" "http://www.w3.org/Graphics/SVG/1.1/DTD/svg11.dtd">
<svg version="1.1" id="Layer_1" xmlns="http://www.w3.org/2000/svg" xmlns:xlink="http://www.w3.org/1999/xlink" x="0px" y="0px"
	 width="180.016px" height="155.508px" viewBox="0 0 180.016 155.508" enable-background="new 0 0 180.016 155.508"
	 xml:space="preserve">
<path fill="#FFFFFF" d="M89.947,155.508c5.495,0,11.408-2.386,11.408-7.62c0-3.206,2.248-4.515,7.76-4.515h8.141
	c2.558,0,4.99-0.893,6.847-2.516c2.575-2.251,5.358-7.166,7.09-12.522c0.896-2.768,1.71-7.078,2.483-13.101
	c1.466,0.631,3.08,0.985,4.775,0.985c2.183,0,4.227-0.589,5.998-1.605c1.28,1.313,2.822,2.25,4.548,2.709
	c4.639,1.237,6.388,3.728,7.585,7.087l1.136,3.186l1.133-3.186c2.086-5.862-1.272-10.226-4.833-13.721
	c-2.919-2.866-3.181-4.489-3.277-6.864c2.735,1.467,4.743,2.725,7.799,6.712c2.61,3.411,5.879,6.752,10.613,6.752
	c0.765,0,1.567-0.088,2.411-0.274l3.301-0.735l-3.021-1.516c-3.188-1.602-5.447-3.642-6.105-8.397
	c-0.104-0.752-0.278-1.452-0.49-2.121c2.758,0.32,4.558,2.32,6.422,4.445c0.381,0.433,0.753,0.858,1.126,1.255l2,2.139l0.082-2.928
	c0.249-8.777-3.93-10.224-8.354-11.756c-0.627-0.217-1.271-0.44-1.93-0.694c-0.479-0.184-0.897-0.353-1.274-0.514
	c1.161-0.031,2.348-0.25,3.521-0.741c4.432-1.851,7.336-0.942,10.335,0.989l2.843,1.83l-1.046-3.215
	c-1.925-5.918-7.247-7.326-12.2-7.923c-4.271-0.516-4.488-0.78-5.899-2.503c-0.278-0.34-0.593-0.725-0.976-1.162
	c-0.444-0.512-0.964-0.937-1.519-1.319c1.519-0.496,3.22-0.902,5.296-1.237c5.892-0.949,12.185-2.882,14.191-10.006l0.916-3.253
	l-2.767,1.942c-3.607,2.531-7.147,3.794-12.708,1.727c-2.481-0.922-4.601-1.068-6.425-0.799c1.507-2.365,3.296-3.094,5.304-3.881
	c0.657-0.258,1.311-0.514,2.056-0.883c4.248-2.63,7.054-4.367,7.298-9.754l0.151-3.376l-2.252,2.519
	c-1.038,1.16-5.309,3.423-10.929,3.655c-6.546,0.269-10.439,4.879-11.388,6.634c-0.562,1.041-2.101,2.04-4.224,2.758
	c-0.088-0.001-0.174-0.013-0.263-0.013c-1.451,0-2.851,0.224-4.168,0.637c0.34-4.396,1.783-7.155,3.997-7.567
	c4.446-0.825,10.573-5.681,10.512-12.653c-0.052-5.931,2.339-8.831,5.946-11.362l2.767-1.94l-3.37-0.246
	c-7.384-0.528-11.339,4.724-14.236,9.941c-2.582,4.65-2.991,4.776-5.657,5.598c-0.506,0.156-1.079,0.333-1.742,0.56
	c-5.556,1.902-7.253,7.95-8.376,11.951l-0.009,0.034c-0.976-0.452-1.959-0.899-2.976-1.317c-0.142-0.456-0.299-0.901-0.468-1.34
	c2.78-1.793,5.604-4.71,8.005-11.575c1.434-4.101,2.382-6.81,7.021-11.633c4.139-4.299,8.009-9.624,5.332-16.523l-1.223-3.152
	l-1.044,3.215c-1.362,4.19-3.435,7.327-9.12,9.015c-6.713,1.995-8.197,6.745-9.28,10.213l-0.076,0.243
	c-1.587,5.065-3.47,8.401-5.996,10.577c-1.001-1.029-1.729-1.65-1.834-1.736l-0.555-0.461l-0.667,0.271
	c-0.139,0.056-1.362,0.56-3.091,1.426c-0.996-4.766-0.329-8.282,1.854-9.278c4.114-1.876,8.884-8.072,7.139-14.821
	c-1.237-4.784,1.603-7.855,4.35-10.824c0.474-0.511,0.937-1.013,1.369-1.511l1.918-2.211l-2.918,0.221
	c-10.429,0.791-11.629,5.922-12.898,11.354c-0.184,0.784-0.373,1.595-0.596,2.423c-1.324,4.925-1.98,5.355-4.154,6.778
	c-0.537,0.351-1.146,0.752-1.855,1.268c-2.978,2.166-4.493,7.099-5.952,11.887c-0.071-2.922,0.506-5.384,0.87-6.332
	c2.538-5.665,2.011-10.58-1.525-14.215l-0.115-0.104c-5.201-4.123-4.735-6.667-4.195-9.612c0.131-0.72,0.267-1.463,0.322-2.239
	l0.007-0.086l-0.007-0.086c-0.36-5.085-0.622-8.758-7.253-11.654L85.673,0l1.45,2.949c0.712,1.449,0.555,6.516-3.037,11.663
	c-4.237,6.076-1.488,12.14,0.507,14.125c1.063,1.057,0.796,5.433-1.555,8.664c-2.159,3.23-3.491,6.37-4.313,9.213
	c-1.178-4.61-2.47-9.224-5.194-11.411c-0.683-0.548-1.274-0.977-1.794-1.353c-2.105-1.525-2.74-1.985-3.831-6.967
	c-0.182-0.837-0.334-1.656-0.48-2.448c-1.012-5.487-1.968-10.668-12.348-11.949l-2.904-0.359l1.811,2.299
	c0.408,0.517,0.847,1.04,1.297,1.574c2.604,3.096,5.296,6.297,3.834,11.017c-2.061,6.658,2.409,13.072,6.43,15.142
	c1.943,0.999,2.551,3.969,1.725,8.063c-1.568-0.771-2.671-1.231-2.81-1.289l-0.707-0.291l-0.565,0.516
	c-0.111,0.102-1.062,0.992-2.316,2.493c-3.06-2.129-5.248-5.649-7.04-11.372l-0.077-0.244c-1.084-3.468-2.569-8.217-9.28-10.211
	c-5.685-1.688-7.757-4.825-9.119-9.015l-1.045-3.215l-1.222,3.152c-2.677,6.899,1.192,12.224,5.33,16.523
	c4.641,4.821,5.589,7.531,7.023,11.633c3.119,8.92,6.899,11.041,9.685,12.552c-0.019,0.053-0.035,0.109-0.054,0.161
	c-1.829,0.737-3.575,1.542-5.27,2.388c-0.007-0.016-0.017-0.029-0.024-0.044c-0.289-0.626-0.566-1.613-0.886-2.755
	c-1.123-4.002-2.82-10.048-8.376-11.951c-0.663-0.226-1.236-0.403-1.743-0.559c-2.665-0.823-3.074-0.949-5.657-5.599
	c-2.897-5.217-6.866-10.474-14.235-9.941L15.512,33.4l2.767,1.941c3.607,2.53,5.998,5.43,5.946,11.361
	c-0.061,6.972,6.066,11.828,10.512,12.654c2.423,0.45,3.927,3.835,4.054,8.897c-0.464-0.047-0.934-0.072-1.41-0.072
	c-0.089,0-0.174,0.012-0.263,0.013c-2.122-0.718-3.66-1.717-4.223-2.759c-0.947-1.754-4.839-6.364-11.387-6.633
	c-5.622-0.232-9.892-2.495-10.928-3.655l-2.253-2.52l0.152,3.377c0.242,5.386,3.048,7.124,7.404,9.813
	c0.638,0.31,1.291,0.566,1.947,0.824c2.009,0.787,3.798,1.516,5.305,3.881c-1.823-0.269-3.943-0.123-6.425,0.799
	c-5.56,2.068-9.101,0.804-12.707-1.727l-2.767-1.942l0.917,3.253c2.006,7.124,8.298,9.057,14.189,10.006
	c2.077,0.335,3.778,0.741,5.297,1.237c-0.555,0.383-1.074,0.808-1.519,1.319c-0.382,0.438-0.697,0.822-0.975,1.163
	c-1.411,1.722-1.628,1.986-5.899,2.502c-4.953,0.597-10.275,2.005-12.2,7.923L0,98.271l2.843-1.83c3-1.933,5.906-2.839,10.333-0.989
	c1.174,0.491,2.36,0.71,3.522,0.741c-0.377,0.161-0.795,0.33-1.275,0.514c-0.658,0.254-1.304,0.478-1.93,0.694
	c-4.423,1.532-8.602,2.979-8.353,11.756l0.082,2.926l2-2.137c0.373-0.397,0.746-0.823,1.128-1.256
	c1.864-2.125,3.661-4.122,6.42-4.442c-0.212,0.667-0.386,1.367-0.49,2.119c-0.658,4.755-2.917,6.796-6.106,8.397l-3.021,1.516
	l3.3,0.735c0.844,0.187,1.647,0.274,2.412,0.274c4.734-0.001,8.003-3.341,10.614-6.752c3.054-3.987,5.062-5.245,7.799-6.712
	c-0.098,2.375-0.359,3.998-3.279,6.864c-3.561,3.495-6.918,7.858-4.833,13.721l1.133,3.185l1.135-3.184
	c1.199-3.36,2.948-5.851,7.586-7.087c1.725-0.46,3.267-1.397,4.548-2.71c1.77,1.017,3.815,1.605,5.998,1.605
	c1.647,0,3.217-0.333,4.649-0.933c0.772,5.998,1.584,10.288,2.476,13.048c1.699,5.256,4.392,10.091,6.859,12.316
	c1.945,1.755,4.461,2.722,7.086,2.722h8.134c5.519,0,7.77,1.309,7.77,4.515C78.54,153.122,84.453,155.508,89.947,155.508
	 M128.751,104.112c0-4.536,3.213-8.522,7.64-9.479l-0.008-0.038c1.883,0.949,4.003,1.497,6.252,1.497
	c0.394,0,0.78-0.027,1.165-0.061c2.161,1.436,3.68,3.688,4.172,6.226l1.183-0.23l-1.183,0.231c0.117,0.604,0.177,1.228,0.177,1.854
	c0,5.35-4.351,9.7-9.698,9.7C133.102,113.812,128.751,109.462,128.751,104.112 M157.036,119.899
	c-1.414-2.059-3.623-3.891-7.42-4.903c-1.205-0.319-2.271-0.929-3.192-1.798c1.331-1.169,2.408-2.62,3.126-4.265
	c0.584,1.045,1.454,2.174,2.781,3.474C155.219,115.243,156.723,117.571,157.036,119.899 M167.308,114.66
	c-2.271-0.595-4.397-2.373-6.857-5.586c-3.48-4.544-5.702-5.853-9.33-7.775c-0.36-0.19-0.703-0.379-1.028-0.567l-0.015,0.025
	c-0.585-2.022-1.691-3.864-3.198-5.329c0.489-0.156,0.963-0.346,1.427-0.552c1.238,0.218,2.806,0.764,3.263,2.124
	c1.166,3.471,5.62,7.788,11.137,7.324c0.293,0.713,0.523,1.495,0.646,2.373C163.891,110.59,165.438,113.006,167.308,114.66
	 M165.735,99.676c3.524,1.221,5.909,2.047,6.563,6.11c-2.163-2.319-4.928-4.561-9.309-3.902c-4.808,0.726-8.38-3.393-9.14-5.651
	c-0.334-0.994-1.103-2.186-2.79-2.997c0.862-0.657,1.655-1.397,2.344-2.232c0.081,0.092,0.172,0.174,0.238,0.278
	c0.866,1.348,2.388,2.696,4.257,3.643c0.978,1.688,2.088,2.596,5.83,4.031C164.413,99.218,165.084,99.449,165.735,99.676
	 M166.482,89.523c4.019,0.484,6.631,1.411,8.298,3.064c-2.377-0.771-5.244-0.873-8.869,0.643c-4.49,1.876-8.953-1.245-10.241-3.25
	c-0.246-0.383-0.541-0.719-0.878-1.015c0.884-1.567,1.472-3.32,1.692-5.188c0.611,0.333,1.144,0.751,1.597,1.271
	c0.363,0.416,0.662,0.781,0.927,1.104C160.785,88.324,161.457,88.918,166.482,89.523 M162.467,73.579
	c4.919,1.828,8.531,1.343,11.521-0.013c-1.904,2.601-5.215,4.084-10.697,4.968c-2.737,0.441-4.917,0.99-6.843,1.726
	c-0.312-2.3-1.181-4.42-2.474-6.225C156.09,72.898,158.749,72.195,162.467,73.579 M149.239,66.581
	c0.767-1.419,3.944-5.149,9.368-5.372c4.103-0.169,7.647-1.327,10.014-2.582c-0.816,2.093-2.605,3.203-5.54,5.025
	c-0.581,0.282-1.176,0.514-1.774,0.749c-2.607,1.021-5.55,2.187-7.639,7.087c-0.456,0.209-0.885,0.438-1.293,0.674
	c-1.504-1.469-3.337-2.599-5.378-3.272C147.916,68.274,148.731,67.52,149.239,66.581 M154.182,82.137
	c0,6.368-5.18,11.548-11.547,11.548s-11.547-5.18-11.547-11.548c0-6.367,5.18-11.547,11.547-11.547S154.182,75.77,154.182,82.137
	 M100.181,74.232l-0.258-0.42l14.095-3.673l-8.161-2.127c2.099-5.273,6.679-7.489,8.36-8.135c1.024,1.139,3.401,4.436,3.029,10.184
	l-0.068,1.054l1.036,0.204c3.512,0.692,9.45,3.958,11.649,5.215c-0.513,1.163-0.862,2.409-1.039,3.709
	C120.441,77.14,110.83,75.11,100.181,74.232 M51.139,79.895c-0.181-1.108-0.475-2.178-0.901-3.182
	c1.874-1.083,8.254-4.663,11.957-5.393l1.037-0.204l-0.068-1.054c-0.374-5.774,2-9.053,3.028-10.187
	c1.686,0.639,6.287,2.846,8.386,8.193l-7.953,2.072l13.479,3.513l-0.319,0.521C68.853,74.945,59.23,76.872,51.139,79.895
	 M79.055,59.762l6.158,3.775l-0.545,1.901l-1.946,0.507l-3.753-6.123L79.055,59.762z M101.073,59.641l-3.768,6.144l-1.336-0.348
	l-0.71-2.233L101.073,59.641z M106.78,70.14l-11.581,3.018l-3.723-3.267l3.561-2.811L106.78,70.14z M93.979,65.479l-3.688,2.915
	l-3.256-2.546L86.638,65.5l3.48-12.16L93.979,65.479z M85.555,67.092l3.611,3.169l-3.681,2.907L73.863,70.14L85.555,67.092z
	 M82.233,74.208l2.483,0.647l0.338,1.06l-6.197,3.799L82.233,74.208z M86.676,74.711l3.646-2.852l3.662,2.865l-3.461,12.088
	L86.676,74.711z M95.935,74.852l1.86-0.485l3.277,5.347l-5.555-3.405L95.935,74.852z M135.711,70.038
	c-0.413,0.237-0.812,0.495-1.196,0.773c-2.095-1.311-6.627-3.439-8.383-4.25c-0.015-0.615-0.067-1.221-0.146-1.818
	C129.523,66.296,132.781,68.066,135.711,70.038 M130.626,63.75c1.046-3.726,2.477-8.83,6.837-10.323
	c0.636-0.217,1.186-0.387,1.672-0.537c3.237-0.998,4.112-1.435,7.052-6.73c2.698-4.856,5.22-7.465,8.312-8.371
	c-2.291,2.353-3.978,5.585-3.931,10.831c0.053,6.047-5.633,9.723-8.545,10.263c-3.12,0.582-5.191,3.684-5.827,8.565
	c-1.787-1.155-3.704-2.226-5.701-3.238L130.626,63.75z M126.768,41l0.076-0.244c1.024-3.279,2.186-6.995,7.667-8.623
	c5.029-1.493,7.625-4.053,9.202-6.932c0.041,3.222-1.714,6.397-5.567,10.398c-4.772,4.96-5.928,7.842-7.56,12.508
	c-2.146,6.139-4.521,8.652-6.717,10.138c-1.132-2.213-2.521-4.111-3.783-5.605C122.945,50.165,125.046,46.493,126.768,41
	 M115.641,51.457c1.921,1.785,8.289,8.286,8.082,15.843l-0.021,0.804l0.732,0.328c2.524,1.132,6.264,2.953,8.168,4.029
	c-0.583,0.605-1.115,1.257-1.584,1.959c-2.136-1.223-7.467-4.152-11.327-5.22c0.13-7.77-4.192-11.468-4.384-11.628l-0.48-0.401
	l-0.604,0.164c-0.318,0.086-7.77,2.191-10.727,10.063l-4.061-1.058l4.698-7.666C108.085,54.993,113.708,52.314,115.641,51.457
	 M102.86,46.43c1.351-4.435,2.749-9.022,5.091-10.727c0.671-0.488,1.249-0.866,1.758-1.199c2.674-1.751,3.674-2.638,5.161-8.168
	c0.229-0.855,0.425-1.69,0.614-2.5c1.069-4.577,1.826-7.818,7.518-9.056c-2.667,2.956-5.421,6.643-4.015,12.083
	c1.516,5.855-3.111,10.797-5.806,12.026c-3.487,1.592-4.576,6.191-3.062,12.638c-1.46,0.814-3.066,1.802-4.636,2.942l-1.357,0.831
	c-1.265-1.398-2.118-2.959-2.665-4.555C101.953,49.354,102.417,47.882,102.86,46.43 M85.013,38.778
	c2.825-3.882,3.446-9.592,1.278-11.748c-0.988-0.983-3.926-5.741-0.229-11.041c2.949-4.227,3.91-8.461,3.797-11.368
	c3.192,1.987,3.375,4.259,3.672,8.429c-0.051,0.618-0.164,1.24-0.284,1.896c-0.592,3.229-1.261,6.888,5.006,11.884
	c2.782,2.902,3.119,6.77,0.976,11.557c-0.632,1.646-1.788,6.987-0.292,12.294c-0.016,0.042-0.028,0.09-0.045,0.132l0.09,0.034
	c0.582,1.988,1.551,3.962,3.056,5.734l-7.435,4.556l-4.581-14.403l-4.208,14.702l-5.68-3.482c-0.112-0.728-0.359-2.86-0.037-5.839
	l0.098-0.03c-0.022-0.075-0.042-0.155-0.065-0.229C80.547,48.292,81.779,43.617,85.013,38.778 M66.648,40.018
	c-2.632-1.355-7.021-6.51-5.232-12.287c1.663-5.368-0.915-9.181-3.44-12.259c5.627,1.506,6.23,4.779,7.083,9.4
	c0.15,0.819,0.306,1.663,0.495,2.527c1.224,5.594,2.182,6.527,4.771,8.402c0.491,0.356,1.052,0.762,1.698,1.281
	c2.26,1.814,3.439,6.461,4.58,10.955c0.335,1.322,0.687,2.663,1.06,3.947c-0.183,1.769-0.175,3.253-0.109,4.39l-2.79-1.711
	c-1.753-1.279-3.625-2.402-5.291-3.305C70.758,45.74,69.768,41.624,66.648,40.018 M64.27,51.477
	c2.023,0.906,7.797,3.66,11.445,7.064l4.878,7.959l-3.655,0.953c-2.942-7.919-10.431-10.032-10.75-10.118l-0.604-0.164l-0.481,0.401
	c-0.191,0.16-4.513,3.858-4.384,11.628c-4.055,1.122-9.728,4.294-11.619,5.388c-0.507-0.784-1.086-1.516-1.735-2.182
	c1.933-1.082,5.592-2.862,8.073-3.974l0.626-0.28l0.078-0.682C57.051,59.509,62.509,53.294,64.27,51.477 M47.716,48.107
	c-1.632-4.668-2.789-7.55-7.561-12.508c-3.852-4.001-5.606-7.176-5.566-10.399c1.578,2.88,4.174,5.44,9.202,6.933
	c5.481,1.628,6.642,5.343,7.667,8.62L51.535,41c1.944,6.203,4.391,10.095,7.86,12.55c-1.128,1.549-2.325,3.459-3.342,5.665
	C53.523,57.834,50.448,55.919,47.716,48.107 M53.837,66.517c-1.659,0.763-6.232,2.903-8.401,4.244
	c-0.386-0.274-0.784-0.529-1.197-0.763c2.997-2.009,6.327-3.81,9.952-5.383C54.051,65.236,53.93,65.87,53.837,66.517 M35.177,56.988
	c-2.912-0.54-8.597-4.216-8.544-10.265c0.046-5.244-1.64-8.476-3.93-10.829c3.092,0.906,5.613,3.515,8.31,8.371
	c2.941,5.294,3.817,5.731,7.053,6.729c0.486,0.15,1.036,0.32,1.672,0.537c4.359,1.493,5.791,6.598,6.837,10.324
	c0.349,1.242,0.65,2.315,1.019,3.113c0.02,0.044,0.047,0.083,0.068,0.126c-2.14,1.165-4.154,2.418-6.033,3.753
	c-0.135-0.043-0.274-0.078-0.41-0.117C41.18,61.97,38.999,57.7,35.177,56.988 M48.928,82.137c0,6.368-5.179,11.548-11.547,11.548
	c-6.367,0-11.547-5.18-11.547-11.548c0-6.367,5.18-11.547,11.547-11.547C43.749,70.589,48.928,75.77,48.928,82.137 M18.708,64.399
	c-0.597-0.234-1.192-0.466-1.666-0.688c-3.013-1.867-4.823-2.987-5.644-5.084c2.365,1.255,5.909,2.412,10.011,2.581
	c5.424,0.223,8.601,3.953,9.368,5.372c0.508,0.939,1.324,1.694,2.243,2.309c-2.041,0.674-3.875,1.803-5.378,3.272
	c-0.408-0.236-0.837-0.465-1.294-0.674C24.259,66.586,21.317,65.421,18.708,64.399 M6.028,73.566
	c2.992,1.353,6.605,1.839,11.52,0.012c3.72-1.382,6.38-0.681,8.494,0.455c-1.293,1.805-2.163,3.925-2.474,6.225
	c-1.925-0.735-4.106-1.284-6.842-1.726C11.242,77.65,7.932,76.167,6.028,73.566 M14.105,93.23c-3.626-1.515-6.494-1.411-8.869-0.643
	c1.667-1.653,4.28-2.58,8.298-3.064c5.025-0.605,5.697-1.199,7.474-3.368c0.265-0.323,0.564-0.689,0.928-1.105
	c0.453-0.521,0.984-0.938,1.596-1.271c0.22,1.866,0.808,3.619,1.692,5.188c-0.336,0.294-0.631,0.631-0.877,1.014
	C23.06,91.986,18.593,95.106,14.105,93.23 M7.717,105.786c0.654-4.063,3.039-4.89,6.564-6.11c0.651-0.227,1.322-0.458,2.005-0.721
	c3.742-1.436,4.853-2.343,5.829-4.03c1.871-0.946,3.393-2.295,4.259-3.644c0.067-0.104,0.158-0.187,0.238-0.278
	c0.689,0.835,1.482,1.575,2.343,2.232c-1.686,0.812-2.456,2.003-2.79,2.997c-0.759,2.258-4.328,6.359-9.139,5.651
	C12.642,101.221,9.88,103.468,7.717,105.786 M19.567,109.074c-2.461,3.213-4.587,4.992-6.859,5.586
	c1.871-1.654,3.418-4.07,3.957-7.963c0.122-0.878,0.354-1.66,0.647-2.372c5.503,0.465,9.97-3.854,11.136-7.325
	c0.457-1.36,2.024-1.906,3.262-2.124c0.464,0.206,0.938,0.395,1.427,0.552c-1.506,1.464-2.612,3.305-3.197,5.327l-0.014-0.024
	c-0.327,0.188-0.67,0.378-1.029,0.568C25.269,103.222,23.046,104.53,19.567,109.074 M30.652,101.987L30.652,101.987l0.21,0.04
	L30.652,101.987z M30.4,114.997c-3.797,1.012-6.005,2.844-7.419,4.902c0.312-2.327,1.817-4.656,4.706-7.492
	c1.325-1.3,2.195-2.429,2.78-3.474c0.717,1.646,1.794,3.096,3.125,4.265C32.671,114.068,31.605,114.677,30.4,114.997
	 M31.867,104.112c0-0.623,0.06-1.247,0.178-1.854l-0.001-0.001c0.492-2.536,2.011-4.789,4.172-6.225
	c0.385,0.033,0.772,0.061,1.165,0.061c2.25,0,4.369-0.548,6.253-1.497l-0.008,0.038c4.426,0.956,7.639,4.942,7.639,9.479
	c0,5.35-4.351,9.7-9.699,9.7S31.867,109.462,31.867,104.112 M70.77,140.966h-8.134c-2.028,0-3.971-0.747-5.472-2.103
	c-1.784-1.608-4.387-5.717-6.181-11.27c-0.88-2.717-1.718-7.291-2.498-13.562c3.131-2.189,5.187-5.816,5.187-9.92
	c0-4.924-3.036-9.328-7.464-11.178c3.067-2.511,5.04-6.302,5.115-10.547c7.58-2.919,16.627-4.817,26.903-5.671l-5.745,9.374
	L85.71,77.98l4.91,15.438l4.296-15.01l12.534,7.682l-5.692-9.285c10.026,0.96,19.077,2.964,26.954,5.97
	c0.186,4.088,2.123,7.726,5.096,10.16c-4.427,1.85-7.464,6.254-7.464,11.178c0,4.049,2.005,7.631,5.067,9.831
	c-0.783,6.315-1.626,10.918-2.51,13.65c-1.828,5.652-4.524,9.825-6.385,11.451c-1.417,1.237-3.286,1.921-5.262,1.921h-8.141
	c-2.78,0-10.166,0-10.166,6.922c0,3.422-4.528,5.212-9.001,5.212c-4.472,0-9-1.79-9-5.212
	C80.947,140.966,73.553,140.966,70.77,140.966"/>
<path fill="#FFFFFF" d="M138.45,97.054c-3.893,0-7.06,3.167-7.06,7.06c0,3.891,3.167,7.058,7.06,7.058s7.06-3.167,7.06-7.058
	C145.51,100.221,142.343,97.054,138.45,97.054 M138.45,108.765c-2.564,0-4.651-2.087-4.651-4.651c0-2.565,2.087-4.652,4.651-4.652
	s4.65,2.087,4.65,4.652C143.101,106.678,141.015,108.765,138.45,108.765"/>
<path fill="#FFFFFF" d="M138.45,101.181c-1.62,0-2.933,1.312-2.933,2.933c0,1.62,1.312,2.933,2.933,2.933s2.934-1.312,2.934-2.933
	C141.384,102.492,140.07,101.181,138.45,101.181"/>
<path fill="#FFFFFF" d="M142.635,90.188c4.44,0,8.053-3.61,8.053-8.051c0-4.44-3.612-8.052-8.053-8.052
	c-4.439,0-8.052,3.612-8.052,8.052C134.583,86.577,138.195,90.188,142.635,90.188 M142.635,76.493c3.112,0,5.645,2.533,5.645,5.644
	c0,3.112-2.532,5.645-5.645,5.645c-3.111,0-5.644-2.532-5.644-5.645C136.991,79.025,139.523,76.493,142.635,76.493"/>
<path fill="#FFFFFF" d="M142.635,85.566c1.895,0,3.431-1.536,3.431-3.43c0-1.895-1.536-3.43-3.431-3.43s-3.43,1.535-3.43,3.43
	C139.205,84.03,140.74,85.566,142.635,85.566"/>
<path fill="#FFFFFF" d="M41.566,97.054c-3.892,0-7.059,3.167-7.059,7.06c0,3.891,3.167,7.058,7.059,7.058
	c3.893,0,7.059-3.167,7.059-7.058C48.625,100.221,45.459,97.054,41.566,97.054 M41.566,108.765c-2.565,0-4.651-2.087-4.651-4.651
	c0-2.565,2.086-4.652,4.651-4.652c2.564,0,4.651,2.087,4.651,4.652C46.217,106.678,44.13,108.765,41.566,108.765"/>
<path fill="#FFFFFF" d="M41.566,101.181c-1.62,0-2.933,1.312-2.933,2.933c0,1.62,1.313,2.933,2.933,2.933s2.933-1.312,2.933-2.933
	C44.499,102.492,43.186,101.181,41.566,101.181"/>
<path fill="#FFFFFF" d="M37.381,90.188c4.44,0,8.052-3.61,8.052-8.051c0-4.44-3.612-8.052-8.052-8.052s-8.052,3.612-8.052,8.052
	C29.329,86.577,32.941,90.188,37.381,90.188 M37.381,76.493c3.112,0,5.644,2.533,5.644,5.644c0,3.112-2.532,5.645-5.644,5.645
	c-3.112,0-5.644-2.532-5.644-5.645C31.737,79.025,34.269,76.493,37.381,76.493"/>
<path fill="#FFFFFF" d="M37.381,85.566c1.895,0,3.43-1.536,3.43-3.43c0-1.895-1.535-3.43-3.43-3.43s-3.43,1.535-3.43,3.43
	C33.951,84.03,35.486,85.566,37.381,85.566"/>
<path fill="#FFFFFF" d="M89.518,122.5c0.007,0.01,0.019,0.016,0.026,0.027c0.033,0.048,0.081,0.084,0.121,0.127
	c0.069,0.076,0.136,0.153,0.22,0.209c0.006,0.004,0.008,0.01,0.014,0.014c0.035,0.021,0.073,0.023,0.108,0.041
	c0.101,0.05,0.2,0.096,0.312,0.117c0.053,0.01,0.105,0.004,0.159,0.006c0.1,0.006,0.198,0.01,0.298-0.01
	c0.065-0.014,0.122-0.045,0.184-0.068c0.071-0.028,0.146-0.038,0.213-0.08c0.012-0.007,0.018-0.019,0.028-0.026
	c0.06-0.038,0.103-0.097,0.153-0.144c0.063-0.062,0.134-0.118,0.182-0.189c0.006-0.011,0.017-0.015,0.022-0.023
	c0.309-0.488,3.199-4.668,9.004-1.116c2.48,1.559,8.453,4.321,14.402,4.32c2.72,0,5.436-0.577,7.809-2.112
	c1.26-0.888,2.644-2.92,1.295-4.879c-0.913-1.326-2.051-1.473-2.648-1.429c-1.007,0.058-1.969,0.688-2.452,1.603
	c-0.312,0.589-0.088,1.317,0.501,1.628c0.59,0.312,1.316,0.086,1.627-0.501c0.092-0.173,0.296-0.315,0.465-0.325
	c0.204-0.028,0.396,0.205,0.524,0.391c0.472,0.683-0.656,1.513-0.658,1.517c-6.434,4.161-16.548-0.345-19.596-2.258
	c-1.762-1.079-3.333-1.571-4.728-1.716c-0.013-0.017-0.017-0.037-0.029-0.053c-1.32-1.545-1.591-4.074-1.647-4.993
	c0.184-0.192,0.358-0.394,0.52-0.606c1.079,1.095,2.568,1.74,4.167,1.74c3.229,0,5.857-2.627,5.857-5.855
	c0-3.229-2.628-5.855-5.857-5.855c-1.051,0-2.011,0-2.894,0.149c-0.651-2.287-2.429-4.195-6.013-6.593
	c-0.367-0.245-0.841-0.27-1.23-0.063c-3.885,2.053-5.776,3.993-6.332,6.628c-0.89-0.097-1.88-0.121-2.681-0.121
	c-3.229,0-5.856,2.626-5.856,5.855c0,3.229,2.627,5.855,5.856,5.855c1.599,0,3.088-0.646,4.167-1.739
	c0.205,0.271,0.435,0.516,0.676,0.749c-0.09,1.22-0.478,3.486-1.642,4.85c-0.01,0.011-0.012,0.024-0.021,0.037
	c-1.439,0.12-3.071,0.612-4.91,1.737c-3.035,1.907-13.146,6.411-19.542,2.28c-0.012-0.009-1.181-0.845-0.699-1.546
	c0.127-0.185,0.325-0.403,0.524-0.39c0.17,0.009,0.374,0.152,0.466,0.325c0.312,0.589,1.042,0.812,1.627,0.501
	c0.589-0.312,0.812-1.04,0.501-1.628c-0.485-0.916-1.449-1.545-2.455-1.603c-0.594-0.035-1.736,0.104-2.647,1.429
	c-1.348,1.959,0.035,3.991,1.336,4.906c2.353,1.521,5.049,2.095,7.755,2.095c5.943,0,11.927-2.767,14.403-4.323
	C86.32,117.837,89.207,122.012,89.518,122.5 M85.29,108.463h-0.042c-0.482,0-0.92,0.288-1.109,0.735
	c-0.54,1.277-1.788,2.104-3.176,2.104c-1.902,0-3.448-1.547-3.448-3.447c0-1.901,1.546-3.448,3.448-3.448
	c1.514,0,2.783,0.102,3.393,0.271c0.351,0.098,0.729,0.03,1.028-0.183c0.297-0.215,0.48-0.552,0.497-0.918
	c0.081-1.648,0.504-3.32,4.587-5.609c3.622,2.518,4.448,4.061,4.612,5.82c0.037,0.389,0.261,0.737,0.601,0.931
	c0.34,0.196,0.753,0.212,1.106,0.048c0.773-0.359,1.9-0.359,3.325-0.359c1.902,0,3.449,1.547,3.449,3.448
	c0,1.9-1.547,3.447-3.449,3.447c-1.387,0-2.635-0.826-3.177-2.104c-0.193-0.459-0.639-0.766-1.15-0.734
	c-0.499,0.018-0.936,0.341-1.098,0.813c-0.608,1.775-2.276,2.97-4.15,2.97c-1.874,0-3.542-1.194-4.151-2.97
	C86.226,108.803,85.789,108.48,85.29,108.463 M90.537,114.654c0.929,0,1.819-0.199,2.64-0.546c0.17,1.071,0.508,2.438,1.171,3.687
	c-1.734,0.442-3.006,1.416-3.811,2.217c-0.784-0.778-2.012-1.714-3.673-2.172c0.665-1.233,1.01-2.591,1.186-3.666
	C88.829,114.48,89.667,114.654,90.537,114.654"/>
<path fill="#FFFFFF" d="M81.49,93.323c0.422-0.423,0.471-1.092,0.113-1.57c-1.761-2.364-4.853-4.111-7.957-5.071
	c-0.041-0.017-0.084-0.021-0.128-0.035c-1.709-0.517-3.418-0.804-4.904-0.804c-7.795,0-12.518,6.686-12.715,6.971
	c-0.36,0.52-0.258,1.229,0.235,1.625c4.427,3.555,8.554,4.797,12.16,4.797C74.849,99.235,79.687,95.126,81.49,93.323 M72.182,89.307
	c0,2.09-1.702,3.792-3.792,3.792c-2.091,0-3.792-1.702-3.792-3.792c0-0.103,0.022-0.189,0.027-0.289
	c0.569-0.215,1.165-0.392,1.793-0.521c-0.064,0.199-0.108,0.408-0.108,0.63c0,1.148,0.932,2.08,2.081,2.08
	c1.148,0,2.08-0.932,2.08-2.08c0-0.259-0.054-0.505-0.141-0.734c0.599,0.084,1.215,0.208,1.843,0.371
	C72.183,88.943,72.182,89.136,72.182,89.307 M58.599,93.293c0.727-0.826,1.984-2.081,3.677-3.134
	c0.42,3.013,2.987,5.347,6.114,5.347c3.3,0,5.982-2.602,6.165-5.941c1.688,0.701,3.276,1.649,4.424,2.821
	C75.485,95.521,67.961,100.12,58.599,93.293"/>
<path fill="#FFFFFF" d="M112.014,99.237c3.606,0,7.732-1.244,12.16-4.799c0.493-0.396,0.595-1.105,0.236-1.625
	c-0.198-0.284-4.921-6.972-12.716-6.972c-1.442,0-3.095,0.276-4.753,0.765c-0.349-0.037-0.694,0.065-0.946,0.303
	c-2.873,0.996-5.656,2.649-7.291,4.844c-0.357,0.479-0.308,1.148,0.115,1.571C100.621,95.127,105.456,99.237,112.014,99.237
	 M115.405,89.306c0,2.092-1.702,3.792-3.792,3.792s-3.791-1.7-3.792-3.906c-0.001-0.093,0.002-0.225,0.007-0.353
	c0.597-0.166,1.183-0.29,1.759-0.386c-0.073,0.213-0.122,0.437-0.122,0.674c0,1.149,0.932,2.08,2.08,2.08
	c1.149,0,2.08-0.931,2.08-2.08c0-0.257-0.053-0.5-0.138-0.727c0.66,0.109,1.279,0.288,1.878,0.496
	C115.377,89.034,115.405,89.161,115.405,89.306 M105.453,89.694c0.205,3.234,2.875,5.812,6.16,5.812c3.178,0,5.775-2.414,6.129-5.5
	c1.828,1.084,3.196,2.42,3.964,3.29c-9.359,6.822-16.883,2.224-20.377-0.911C102.409,91.284,103.879,90.381,105.453,89.694"/>
<path fill="#FFFFFF" d="M86.203,136.842c0-0.665-0.539-1.204-1.204-1.204c-3.239,0-5.875-2.035-5.875-4.537
	c0-2.501,2.636-4.536,5.875-4.536c1.846,0,3.55,0.66,4.68,1.812c0.226,0.23,0.536,0.36,0.858,0.36c0.323,0,0.634-0.13,0.859-0.36
	c1.13-1.151,2.835-1.812,4.68-1.812c3.239,0,5.875,2.035,5.875,4.536c0,2.502-2.636,4.537-5.875,4.537
	c-0.666,0-1.204,0.539-1.204,1.204s0.538,1.204,1.204,1.204c4.567,0,8.283-3.115,8.283-6.945c0-3.828-3.716-6.944-8.283-6.944
	c-2.067,0-4.028,0.639-5.539,1.778c-1.509-1.14-3.471-1.778-5.539-1.778c-4.567,0-8.282,3.116-8.282,6.944
	c0,3.83,3.715,6.945,8.282,6.945C85.664,138.046,86.203,137.507,86.203,136.842"/>
<path fill="#FFFFFF" d="M98.045,131.061c-0.021-0.665-0.573-1.18-1.242-1.163c-0.059,0.002-4.347,0.218-6.497,4.871
	c-2.151-4.653-6.439-4.869-6.498-4.871c-0.654-0.061-1.209,0.492-1.237,1.151s0.486,1.221,1.145,1.256
	c0.221,0.011,5.385,0.379,5.385,8.805c0,0.665,0.539,1.204,1.205,1.204c0.665,0,1.204-0.539,1.204-1.204
	c0-8.404,5.139-8.792,5.382-8.805C97.552,132.277,98.067,131.723,98.045,131.061"/>
<path fill="#FFFFFF" d="M69.388,64.729c0-1.009-0.819-1.828-1.829-1.828c-1.009,0-1.828,0.819-1.828,1.828
	c0,1.01,0.819,1.829,1.828,1.829C68.569,66.559,69.388,65.74,69.388,64.729"/>
<path fill="#FFFFFF" d="M112.85,62.901c-1.01,0-1.828,0.819-1.828,1.828c0,1.01,0.818,1.829,1.828,1.829
	c1.011,0,1.828-0.819,1.828-1.829C114.678,63.721,113.86,62.901,112.85,62.901"/>
</svg>
