<?xml version="1.0" encoding="utf-8"?>
<!-- Generator: Adobe Illustrator 16.0.0, SVG Export Plug-In . SVG Version: 6.00 Build 0)  -->
<!DOCTYPE svg PUBLIC "-//W3C//DTD SVG 1.1//EN" "http://www.w3.org/Graphics/SVG/1.1/DTD/svg11.dtd">
<svg version="1.1" id="Layer_1" xmlns="http://www.w3.org/2000/svg" xmlns:xlink="http://www.w3.org/1999/xlink" x="0px" y="0px"
	 width="244.755px" height="242.735px" viewBox="0 0 244.755 242.735" enable-background="new 0 0 244.755 242.735"
	 xml:space="preserve">
<rect y="119.575" fill="#FFFFFF" width="24.143" height="4.741"/>
<path fill="#FFFFFF" d="M15.386,100.807c1.224,0,2.216-0.992,2.216-2.216c0-1.224-0.992-2.216-2.216-2.216
	c-1.224,0-2.216,0.992-2.216,2.216C13.169,99.815,14.162,100.807,15.386,100.807"/>
<path fill="#FFFFFF" d="M15.386,142.219c-1.224,0-2.216,0.992-2.216,2.216s0.992,2.216,2.216,2.216c1.224,0,2.216-0.992,2.216-2.216
	S16.609,142.219,15.386,142.219"/>
<path fill="#FFFFFF" d="M18.71,71.288l16.855,9.207c-0.389,0.957-0.773,1.827-1.127,2.806l3.398,1.856l6.271-11.48l-3.398-1.857
	c-0.651,0.862-1.953,3.078-2.549,3.922l-5.757-3.143l4.129-7.561l-4.092-2.235l-4.129,7.56l-6.902-3.769l4.641-8.498l3.529,1.207
	l1.647-3.017l-7.04-3.845L13.522,71.967l3.398,1.856C17.757,72.703,18.3,71.875,18.71,71.288"/>
<path fill="#FFFFFF" d="M35.657,49.083c1.282,1.232,2.745,1.648,4.733,1.859c-1.587,2.969-1.665,5.904,1.186,8.641l1.055,1.011
	c4.704,4.514,7.613,3.308,12.347-1.623l1.039-1.085c2.954-3.08,3.766-4.382,3.298-6.803l2.849-0.005l4.268-4.448l-2.793-2.68
	c-1.073,0.888-1.977,1.718-2.609,2.262l-3.408,0.071c-0.565-1.583-1.694-3.487-3.073-5.304c0.41-0.481,1.036-1.25,2.098-2.587
	l-2.822-2.708l-4.623,4.819c1.492,1.925,2.737,3.997,3.359,5.687l-9.834,0.149c-1.763-0.104-2.547-0.198-3.632-1.239l-0.142-0.137
	c-1.539-1.477-1.591-2.621-0.141-4.134l0.273-0.285c0.821-0.855,1.592-1.429,2.534-1.839l2.068,1.381l2.982-3.108l-4.192-4.021
	c-3.01,1.71-4.47,2.72-6.221,4.544l-0.63,0.656c-3.666,3.82-4.075,6.988-0.454,10.463L35.657,49.083z M44.364,51.196
	c3.325-0.041,6.623-0.054,9.975-0.123c0.311,1.503-0.09,2.379-1.65,4.003l-1.039,1.083c-2.134,2.225-3.832,2.568-6.142,0.351
	l-0.827-0.794C43.141,54.239,43.557,52.722,44.364,51.196"/>
<path fill="#FFFFFF" d="M58.982,24.008l9.497,16.698c-0.834,0.612-1.62,1.148-2.436,1.795l1.916,3.367l11.372-6.469l-1.914-3.366
	c-1.006,0.39-3.279,1.591-4.23,1.996l-3.245-5.705l7.491-4.258l-2.306-4.054l-7.49,4.258l-3.89-6.836l8.419-4.788l2.366,2.882
	l2.99-1.699l-3.967-6.974l-19.343,11l1.914,3.367C57.427,24.711,58.324,24.291,58.982,24.008"/>
<path fill="#FFFFFF" d="M99.124,6.908l2.019,19.097c-0.968,0.223-2.061,0.418-3.105,0.688l0.407,3.85l11.043-1.167l-0.408-3.853
	c-0.838-0.03-1.671-0.021-2.505-0.012l-0.786-7.427l11.593-1.228l0.787,7.428c-0.818,0.166-1.674,0.335-2.526,0.546l0.407,3.851
	l11.082-1.171l-0.407-3.853c-1.039-0.05-2.146-0.011-3.142-0.025l-2.02-19.098c1.013-0.186,2.022-0.413,3.067-0.683L124.222,0
	l-11.083,1.173l0.409,3.851c0.877,0.027,1.75,0.014,2.583,0.004l0.774,7.31l-11.594,1.227l-0.772-7.311
	c0.817-0.164,1.634-0.332,2.446-0.537l-0.407-3.85L95.534,3.035l0.408,3.852C97.02,6.931,98.054,6.94,99.124,6.908"/>
<path fill="#FFFFFF" d="M139.303,30.629l3.594,0.767c6.53,1.398,10.757-1.738,12.147-8.23l1.513-7.072
	c1.406-6.568-1.075-11.22-7.683-12.635l-3.594-0.77c-6.763-1.445-10.959,1.738-12.373,8.345l-1.521,7.111
	C130.044,24.608,132.617,29.199,139.303,30.629 M136.613,19.587l1.688-7.883c0.734-3.439,2.802-4.978,6.279-4.233l2.743,0.586
	c3.479,0.746,4.84,2.692,4.037,6.441l-1.685,7.882c-0.833,3.703-2.865,4.883-6.305,4.149l-2.743-0.588
	C137.15,25.197,135.82,23.295,136.613,19.587"/>
<path fill="#FFFFFF" d="M172.969,39.27c-0.79-0.614-1.875-1.347-2.736-1.91l9.139-16.622l5.057,2.779l-1.594,3.634l3.291,1.809
	l4.057-7.375l-22.13-12.168l-4.056,7.376l3.29,1.809l2.216-3.292l5.09,2.799l-9.14,16.623c-0.922-0.372-2.103-0.932-3.044-1.27
	l-1.867,3.394l10.562,5.807L172.969,39.27z"/>
<path fill="#FFFFFF" d="M182.999,45.932c-0.587-0.417-1.316-1.031-2.381-1.867l-2.731,2.746l15.718,15.643l5.66-5.688l-2.438-2.427
	l-3.042,2.16l-6.863-6.831l5.102-5.126l5.214,5.186l3.289-3.306l-5.212-5.188l4.99-5.015l6.669,6.637l-2.146,3.052l2.438,2.425
	l5.661-5.687L197.35,27.143l-2.732,2.746c0.841,1.117,1.43,1.758,1.934,2.428L182.999,45.932z"/>
<path fill="#FFFFFF" d="M200.321,64.959c-0.401-0.544-0.94-1.328-1.798-2.43l-3.362,1.918l10.992,19.249l7.514-4.291l-1.803-3.156
	l-4.055,1.586l-4.7-8.234l16.535-9.443c0.701,1.146,1.466,2.166,2.226,3.098l3.362-1.921l-6.095-10.671l-3.361,1.921
	c0.353,0.936,0.793,1.866,1.22,2.852L200.321,64.959z"/>
<rect x="220.613" y="119.575" fill="#FFFFFF" width="24.142" height="4.741"/>
<path fill="#FFFFFF" d="M40.375,195.869l1.093-0.863c2.726-2.149,2.894-4.462,0.521-7.51l-5.573-7.062l-1.88,1.484
	c0.419,0.729,0.79,1.276,1.039,1.671l-9.326,7.358c-0.451-0.454-0.884-0.922-1.354-1.359l-1.88,1.483l4.557,5.775l1.88-1.482
	c-0.347-0.599-0.694-1.196-1.113-1.768l2.532-1.998l2.286,2.896C35.519,197.489,37.784,197.913,40.375,195.869 M35.178,192.559
	l-2.12-2.688l4.491-3.543l2.12,2.687c1.12,1.421,0.978,2.622-0.326,3.652l-0.576,0.453C37.5,194.12,36.269,193.94,35.178,192.559"/>
<path fill="#FFFFFF" d="M55.313,204.672c0.427,0.293,0.857,0.655,1.319,0.948l1.623-1.762l-4.726-4.356l-1.624,1.762
	c0.381,0.45,0.762,0.868,1.123,1.267l-6.064,6.58c-1.292,1.401-2.912,1.57-4.332,0.261l-0.809-0.743
	c-1.437-1.325-1.381-2.938-0.088-4.34l6.031-6.543c0.518,0.411,1.053,0.806,1.622,1.196l1.624-1.76l-5.339-4.922l-1.623,1.762
	c0.401,0.502,0.818,0.954,1.235,1.438l-5.733,6.218c-2.917,3.163-2.837,5.998,0.256,8.849l1.007,0.927
	c3.036,2.802,5.832,2.618,8.748-0.546L55.313,204.672z"/>
<path fill="#FFFFFF" d="M73.674,213.879l-5.465-3.514l-1.296,2.014c0.434,0.365,0.86,0.697,1.265,1.016l-5.047,7.85l-0.122-14.222
	l-4.294-2.759l-1.294,2.013c0.652,0.565,1.148,0.97,1.512,1.262l-6.408,9.967c-0.54-0.289-1.114-0.57-1.721-0.845l-1.295,2.013
	l5.404,3.474l1.295-2.012c-0.412-0.354-0.797-0.658-1.202-0.977l4.874-7.584l-0.014,13.755l2.938,1.892l7.834-12.186
	c0.56,0.302,1.134,0.584,1.742,0.859L73.674,213.879z"/>
<path fill="#FFFFFF" d="M85.182,221.783l-0.763,2.332l2.133,0.917l2.055-4.781l-14.343-6.168l-2.057,4.782l2.133,0.916l1.167-2.158
	l3.3,1.419l-4.634,10.774c-0.59-0.173-1.35-0.445-1.949-0.599l-0.946,2.201l6.845,2.942l0.947-2.199
	c-0.522-0.33-1.234-0.716-1.799-1.013l4.633-10.774L85.182,221.783z"/>
<path fill="#FFFFFF" d="M98.194,222.765l-7.042-1.855l-0.61,2.315c0.78,0.307,1.285,0.49,1.699,0.649l-6.837,10.506
	c-0.691-0.156-1.378-0.237-2.065-0.317l-0.61,2.316l6.592,1.738l0.61-2.316c-0.541-0.244-0.694-0.335-1.219-0.55l1.254-2.171
	l5.459,1.439l0.158,2.568c-0.557-0.097-1.089-0.187-1.657-0.235l-0.611,2.316l7.349,1.937l0.611-2.314
	c-0.66-0.277-1.321-0.551-2.048-0.769L98.194,222.765z M91.333,230.484l3.64-5.663l0.071,0.02l0.401,6.728L91.333,230.484z"/>
<path fill="#FFFFFF" d="M120.757,225.634l-9.524-0.299l-0.076,2.392c0.827,0.148,1.412,0.218,1.947,0.282l-0.373,11.843
	c-0.466,0.059-1.103,0.087-1.912,0.185l-0.076,2.393l9.499,0.299c4.103,0.13,6.041-1.666,6.219-5.768l0.159-5.054
	C126.753,227.707,124.956,225.792,120.757,225.634 M123.107,237.123c-0.085,1.905-1.167,2.897-3.12,2.836l-3.883-0.122l0.366-11.573
	l3.882,0.121c1.953,0.061,2.994,1.146,2.933,3.099L123.107,237.123z"/>
<path fill="#FFFFFF" d="M140.85,236.382l-0.113,2.304l-5.944,0.726l-0.541-4.439l4.514-0.551l-0.351-2.862l-4.513,0.549
	l-0.529-4.342l5.774-0.704l0.664,2.209l2.109-0.258l-0.6-4.926l-13.49,1.646l0.291,2.378c0.864,0.018,1.4-0.023,1.918-0.013
	l1.438,11.791c-0.429,0.128-1.004,0.247-1.817,0.444l0.289,2.377l13.612-1.661l-0.602-4.924L140.85,236.382z"/>
<path fill="#FFFFFF" d="M156.764,232.24l0.314,2.67l-5.661,1.524l-3.06-11.369c0.796-0.238,1.525-0.537,2.201-0.847l-0.621-2.311
	l-7.336,1.974l0.621,2.312c0.615-0.063,1.241-0.182,1.897-0.284l3.085,11.467c-0.39,0.153-0.942,0.354-1.736,0.692l0.621,2.313
	l13.233-3.561l-1.39-5.166L156.764,232.24z"/>
<path fill="#FFFFFF" d="M177.874,223.75l0.654,2.213l-5.374,2.646l-1.975-4.016l4.079-2.008l-1.274-2.587l-4.079,2.007l-1.932-3.926
	l5.219-2.57l1.355,1.869l1.907-0.938l-2.191-4.454l-12.194,6.003l1.058,2.148c0.823-0.268,1.316-0.483,1.81-0.645l5.246,10.66
	c-0.362,0.26-0.868,0.562-1.57,1.017l1.058,2.15l12.305-6.058l-2.192-4.451L177.874,223.75z"/>
<path fill="#FFFFFF" d="M193.469,213.025c-1.399-2.033-2.7-2.414-5.094-1.54l-4.854,1.914c-1.072,0.381-1.651,0.187-2.205-0.618
	l-0.138-0.202c-0.804-1.168-0.477-1.986,1.075-3.053l0.603-0.414c0.926-0.637,1.822-1.105,2.747-1.268l1.667,1.731l2.195-1.509
	l-2.549-3.706c-2.119,0.626-3.789,1.39-5.603,2.636l-0.584,0.401c-3.524,2.424-4.219,4.563-2.336,7.302l0.152,0.221
	c1.524,2.218,2.681,2.519,5.324,1.619l4.169-1.62c1.679-0.619,2.275-0.525,2.981,0.5l0.32,0.464c0.899,1.31,0.586,2.061-1.228,3.307
	l-0.303,0.208c-1.168,0.802-2.062,1.27-3.171,1.47l-1.605-1.687l-2.296,1.578l2.41,3.505c2.513-0.659,3.828-1.12,5.822-2.491
	l0.785-0.54c3.545-2.438,4.205-4.583,2.308-7.342L193.469,213.025z"/>
<path fill="#FFFFFF" d="M204.303,207.254l-7.995-8.586l2.611-2.434l1.827,1.641l1.699-1.582l-3.548-3.812l-11.431,10.644
	l3.547,3.812l1.7-1.582l-1.506-1.94l2.631-2.448l7.995,8.588c-0.397,0.471-0.955,1.057-1.336,1.543l1.634,1.753l5.455-5.08
	l-1.632-1.754C205.441,206.362,204.802,206.857,204.303,207.254"/>
<path fill="#FFFFFF" d="M215.899,190.601l1.534,1.722l-3.73,4.682l-3.497-2.786l2.832-3.555l-2.256-1.795l-2.832,3.555l-3.421-2.726
	l3.623-4.548l2.021,1.109l1.323-1.664l-3.879-3.089l-8.464,10.627l1.873,1.491c0.629-0.592,0.982-0.996,1.36-1.354l9.288,7.398
	c-0.218,0.391-0.545,0.879-0.985,1.59l1.874,1.493l8.54-10.724l-3.881-3.091L215.899,190.601z"/>
<path fill="#FFFFFF" d="M20.757,166.32c-1.224,0-2.216,0.991-2.216,2.216c0,1.224,0.992,2.216,2.216,2.216
	c1.224,0,2.216-0.992,2.216-2.216C22.974,167.311,21.981,166.32,20.757,166.32"/>
<path fill="#FFFFFF" d="M230.814,142.219c-1.225,0-2.216,0.992-2.216,2.216s0.991,2.216,2.216,2.216
	c1.224,0,2.216-0.992,2.216-2.216S232.038,142.219,230.814,142.219"/>
<path fill="#FFFFFF" d="M225.442,166.32c-1.225,0-2.216,0.991-2.216,2.216c0,1.224,0.991,2.216,2.216,2.216
	c1.224,0,2.216-0.992,2.216-2.216C227.658,167.311,226.666,166.32,225.442,166.32"/>
<path fill="#FFFFFF" d="M228.128,100.807c1.225,0,2.217-0.992,2.217-2.216c0-1.224-0.992-2.216-2.217-2.216
	c-1.224,0-2.216,0.992-2.216,2.216C225.912,99.815,226.904,100.807,228.128,100.807"/>
<path fill="#FFFFFF" d="M122.86,200.191c5.494,0,11.408-2.385,11.408-7.62c0-3.206,2.248-4.514,7.759-4.514h8.141
	c2.558,0,4.99-0.895,6.847-2.517c2.575-2.251,5.359-7.166,7.091-12.522c0.895-2.769,1.708-7.078,2.482-13.102
	c1.466,0.632,3.08,0.986,4.775,0.986c2.183,0,4.228-0.589,5.998-1.604c1.28,1.312,2.822,2.249,4.548,2.708
	c4.639,1.236,6.388,3.728,7.585,7.089l1.136,3.184l1.133-3.185c2.086-5.863-1.272-10.227-4.833-13.722
	c-2.919-2.866-3.18-4.489-3.277-6.864c2.735,1.467,4.743,2.725,7.799,6.714c2.61,3.409,5.88,6.751,10.612,6.751
	c0.766,0,1.568-0.088,2.413-0.275l3.3-0.735l-3.021-1.516c-3.188-1.601-5.447-3.641-6.106-8.397
	c-0.104-0.752-0.277-1.451-0.489-2.119c2.758,0.317,4.558,2.318,6.422,4.443c0.381,0.434,0.753,0.858,1.126,1.256l2,2.138
	l0.082-2.927c0.249-8.778-3.929-10.226-8.354-11.758c-0.626-0.216-1.271-0.439-1.93-0.692c-0.479-0.185-0.896-0.354-1.275-0.516
	c1.163-0.029,2.35-0.249,3.522-0.738c4.431-1.853,7.336-0.944,10.334,0.987l2.843,1.83l-1.046-3.215
	c-1.925-5.918-7.247-7.326-12.2-7.923c-4.271-0.516-4.488-0.78-5.899-2.503c-0.278-0.339-0.594-0.725-0.976-1.162
	c-0.444-0.511-0.964-0.937-1.519-1.32c1.519-0.495,3.22-0.9,5.297-1.235c5.892-0.95,12.184-2.883,14.19-10.006l0.917-3.253
	l-2.768,1.942c-3.607,2.53-7.147,3.795-12.708,1.727c-2.481-0.922-4.601-1.068-6.424-0.799c1.506-2.365,3.295-3.094,5.303-3.881
	c0.657-0.257,1.311-0.514,2.057-0.883c4.248-2.63,7.053-4.367,7.297-9.754l0.151-3.376l-2.252,2.519
	c-1.038,1.16-5.309,3.423-10.929,3.655c-6.546,0.269-10.44,4.879-11.388,6.634c-0.562,1.041-2.101,2.04-4.224,2.758
	c-0.088-0.001-0.174-0.013-0.263-0.013c-1.451,0-2.851,0.224-4.168,0.637c0.34-4.397,1.783-7.155,3.997-7.567
	c4.446-0.825,10.573-5.681,10.512-12.653c-0.052-5.931,2.339-8.831,5.947-11.362l2.766-1.94l-3.371-0.246
	c-7.384-0.528-11.338,4.724-14.235,9.941c-2.582,4.65-2.991,4.776-5.657,5.598c-0.506,0.156-1.079,0.333-1.742,0.56
	c-5.556,1.902-7.253,7.95-8.376,11.951l-0.009,0.034c-0.976-0.452-1.958-0.899-2.976-1.317c-0.142-0.456-0.299-0.901-0.468-1.34
	c2.78-1.793,5.604-4.71,8.004-11.575c1.435-4.101,2.383-6.81,7.022-11.633c4.139-4.299,8.009-9.624,5.332-16.524l-1.222-3.15
	l-1.045,3.214c-1.362,4.19-3.435,7.327-9.12,9.015c-6.713,1.995-8.197,6.745-9.28,10.213l-0.076,0.243
	c-1.587,5.065-3.47,8.401-5.996,10.576c-1.001-1.028-1.729-1.649-1.834-1.736l-0.554-0.46l-0.668,0.271
	c-0.138,0.056-1.362,0.56-3.091,1.426c-0.996-4.766-0.329-8.282,1.854-9.278c4.115-1.876,8.884-8.072,7.138-14.821
	c-1.237-4.784,1.604-7.854,4.351-10.824c0.474-0.512,0.937-1.013,1.369-1.511l1.918-2.211l-2.918,0.221
	c-10.43,0.791-11.628,5.922-12.898,11.354c-0.184,0.784-0.373,1.595-0.596,2.422c-1.323,4.926-1.98,5.356-4.154,6.779
	c-0.537,0.351-1.146,0.752-1.855,1.268c-2.978,2.166-4.493,7.099-5.951,11.887c-0.072-2.922,0.506-5.384,0.869-6.332
	c2.538-5.665,2.011-10.58-1.524-14.215l-0.115-0.104c-5.203-4.123-4.736-6.667-4.196-9.612c0.131-0.72,0.268-1.463,0.323-2.239
	l0.005-0.086l-0.005-0.086c-0.361-5.085-0.623-8.758-7.255-11.654l-3.012-1.315l1.45,2.949c0.712,1.449,0.555,6.516-3.036,11.663
	c-4.238,6.075-1.489,12.14,0.506,14.125c1.063,1.057,0.796,5.433-1.555,8.663c-2.159,3.231-3.491,6.371-4.313,9.215
	c-1.178-4.611-2.469-9.225-5.194-11.412c-0.683-0.548-1.274-0.977-1.794-1.353c-2.105-1.525-2.74-1.985-3.831-6.967
	c-0.182-0.837-0.334-1.656-0.48-2.448c-1.012-5.487-1.968-10.668-12.348-11.949l-2.904-0.359l1.811,2.299
	c0.408,0.517,0.848,1.04,1.297,1.574c2.604,3.096,5.296,6.296,3.834,11.017c-2.061,6.658,2.41,13.072,6.431,15.142
	c1.942,0.999,2.55,3.969,1.725,8.063c-1.569-0.771-2.672-1.231-2.81-1.289l-0.708-0.291l-0.564,0.516
	c-0.112,0.102-1.062,0.992-2.317,2.493c-3.06-2.129-5.247-5.649-7.04-11.371l-0.077-0.245c-1.084-3.468-2.568-8.217-9.28-10.211
	c-5.685-1.688-7.757-4.825-9.119-9.015l-1.045-3.214l-1.222,3.15c-2.677,6.9,1.192,12.225,5.331,16.524
	c4.64,4.821,5.588,7.531,7.023,11.633c3.118,8.92,6.898,11.041,9.684,12.552c-0.019,0.053-0.035,0.109-0.054,0.161
	c-1.829,0.737-3.575,1.542-5.27,2.387c-0.007-0.015-0.017-0.028-0.024-0.043c-0.289-0.626-0.566-1.613-0.886-2.755
	c-1.123-4.002-2.82-10.048-8.376-11.951c-0.663-0.226-1.236-0.403-1.743-0.56c-2.665-0.822-3.074-0.948-5.657-5.598
	c-2.897-5.217-6.865-10.475-14.235-9.941l-3.371,0.246l2.767,1.941c3.607,2.53,5.999,5.43,5.946,11.361
	c-0.061,6.972,6.066,11.828,10.512,12.654c2.423,0.45,3.927,3.834,4.054,8.896c-0.464-0.046-0.934-0.071-1.409-0.071
	c-0.089,0-0.175,0.012-0.263,0.013c-2.123-0.718-3.661-1.717-4.223-2.759c-0.948-1.754-4.84-6.364-11.388-6.633
	c-5.622-0.232-9.892-2.495-10.928-3.655l-2.253-2.52l0.152,3.377c0.242,5.386,3.049,7.123,7.404,9.813
	c0.639,0.31,1.292,0.567,1.947,0.824c2.009,0.787,3.798,1.516,5.305,3.881c-1.823-0.269-3.942-0.123-6.425,0.799
	c-5.56,2.068-9.101,0.804-12.707-1.727l-2.767-1.942l0.917,3.253c2.006,7.124,8.298,9.056,14.19,10.006
	c2.076,0.335,3.777,0.74,5.296,1.235c-0.554,0.384-1.074,0.81-1.519,1.32c-0.381,0.438-0.697,0.823-0.975,1.162
	c-1.411,1.723-1.628,1.987-5.899,2.503c-4.953,0.597-10.275,2.005-12.2,7.923l-1.046,3.215l2.843-1.83
	c3-1.933,5.906-2.839,10.334-0.987c1.173,0.488,2.359,0.709,3.521,0.738c-0.377,0.161-0.794,0.331-1.275,0.516
	c-0.658,0.253-1.304,0.477-1.93,0.692c-4.423,1.532-8.602,2.98-8.353,11.758l0.082,2.926l2-2.137
	c0.373-0.398,0.746-0.823,1.128-1.257c1.864-2.125,3.661-4.123,6.42-4.441c-0.212,0.668-0.385,1.367-0.49,2.118
	c-0.658,4.756-2.917,6.797-6.106,8.397l-3.021,1.516l3.3,0.735c0.845,0.188,1.647,0.275,2.412,0.275
	c4.734-0.001,8.003-3.342,10.614-6.751c3.054-3.989,5.063-5.247,7.799-6.714c-0.098,2.377-0.359,3.999-3.278,6.864
	c-3.561,3.495-6.919,7.858-4.834,13.722l1.133,3.184l1.135-3.183c1.199-3.361,2.948-5.853,7.586-7.088
	c1.725-0.46,3.267-1.397,4.548-2.71c1.771,1.017,3.815,1.605,5.998,1.605c1.647,0,3.217-0.333,4.649-0.932
	c0.772,5.998,1.584,10.287,2.476,13.047c1.699,5.256,4.392,10.091,6.859,12.315c1.945,1.756,4.462,2.724,7.086,2.724h8.134
	c5.519,0,7.77,1.308,7.77,4.514C111.453,197.806,117.366,200.191,122.86,200.191 M161.665,148.796c0-4.536,3.212-8.523,7.639-9.48
	l-0.008-0.037c1.883,0.949,4.003,1.496,6.252,1.496c0.394,0,0.78-0.026,1.165-0.06c2.162,1.436,3.68,3.688,4.172,6.226l1.182-0.229
	l-1.182,0.23c0.118,0.604,0.177,1.228,0.177,1.854c0,5.349-4.351,9.698-9.698,9.698
	C166.015,158.495,161.665,154.145,161.665,148.796 M189.949,164.582c-1.414-2.058-3.623-3.89-7.42-4.901
	c-1.205-0.32-2.271-0.93-3.192-1.798c1.331-1.17,2.408-2.619,3.126-4.266c0.584,1.045,1.455,2.173,2.78,3.474
	C188.132,159.927,189.636,162.254,189.949,164.582 M200.221,159.344c-2.271-0.596-4.397-2.373-6.857-5.587
	c-3.479-4.544-5.702-5.853-9.33-7.775c-0.36-0.19-0.702-0.379-1.028-0.568l-0.015,0.026c-0.585-2.023-1.691-3.864-3.198-5.329
	c0.489-0.157,0.963-0.344,1.427-0.552c1.238,0.218,2.805,0.764,3.262,2.124c1.166,3.471,5.622,7.789,11.137,7.324
	c0.294,0.715,0.524,1.495,0.646,2.373C196.804,155.273,198.351,157.689,200.221,159.344 M198.647,144.359
	c3.525,1.221,5.91,2.047,6.564,6.111c-2.163-2.32-4.928-4.562-9.309-3.904c-4.808,0.726-8.381-3.392-9.14-5.65
	c-0.334-0.994-1.103-2.186-2.79-2.998c0.862-0.655,1.655-1.396,2.343-2.231c0.081,0.091,0.173,0.174,0.239,0.278
	c0.866,1.348,2.388,2.695,4.257,3.643c0.978,1.688,2.088,2.595,5.83,4.032C197.326,143.901,197.998,144.133,198.647,144.359
	 M199.396,134.206c4.019,0.485,6.631,1.412,8.298,3.065c-2.378-0.771-5.244-0.873-8.869,0.643c-4.49,1.875-8.953-1.245-10.241-3.25
	c-0.246-0.383-0.541-0.719-0.878-1.014c0.884-1.568,1.472-3.321,1.692-5.188c0.611,0.333,1.144,0.752,1.597,1.271
	c0.363,0.417,0.662,0.782,0.928,1.104C193.698,133.007,194.37,133.601,199.396,134.206 M195.381,118.262
	c4.918,1.828,8.53,1.343,11.521-0.013c-1.904,2.6-5.215,4.084-10.698,4.968c-2.737,0.441-4.917,0.99-6.843,1.726
	c-0.312-2.3-1.181-4.42-2.474-6.225C189.003,117.581,191.662,116.88,195.381,118.262 M182.152,111.264
	c0.767-1.419,3.944-5.149,9.368-5.372c4.104-0.169,7.647-1.327,10.014-2.582c-0.816,2.094-2.605,3.203-5.54,5.025
	c-0.581,0.282-1.176,0.514-1.774,0.748c-2.607,1.022-5.55,2.188-7.639,7.088c-0.456,0.21-0.885,0.438-1.293,0.674
	c-1.504-1.469-3.337-2.599-5.378-3.272C180.829,112.958,181.645,112.203,182.152,111.264 M187.095,126.82
	c0,6.367-5.179,11.548-11.547,11.548c-6.367,0-11.547-5.181-11.547-11.548s5.18-11.547,11.547-11.547
	C181.916,115.273,187.095,120.453,187.095,126.82 M133.094,118.916l-0.258-0.42l14.095-3.673l-8.161-2.127
	c2.099-5.273,6.679-7.489,8.36-8.135c1.024,1.138,3.401,4.436,3.029,10.184l-0.068,1.054l1.037,0.205
	c3.511,0.691,9.449,3.957,11.648,5.214c-0.513,1.163-0.861,2.409-1.039,3.71C153.354,121.823,143.742,119.793,133.094,118.916
	 M84.052,124.578c-0.18-1.107-0.475-2.178-0.9-3.183c1.873-1.083,8.253-4.662,11.956-5.391l1.037-0.205l-0.068-1.054
	c-0.374-5.774,2-9.053,3.028-10.187c1.686,0.639,6.287,2.846,8.386,8.193l-7.953,2.072l13.48,3.513l-0.32,0.521
	C101.766,119.629,92.143,121.555,84.052,124.578 M111.968,104.445l6.158,3.775l-0.544,1.901l-1.947,0.507l-3.753-6.123
	L111.968,104.445z M133.986,104.324l-3.768,6.144l-1.336-0.348l-0.71-2.233L133.986,104.324z M139.693,114.823l-11.581,3.018
	l-3.723-3.267l3.561-2.811L139.693,114.823z M126.892,110.163l-3.688,2.915l-3.256-2.546l-0.396-0.348l3.481-12.16L126.892,110.163z
	 M118.468,111.776l3.611,3.169l-3.681,2.907l-11.622-3.029L118.468,111.776z M115.146,118.89l2.483,0.648l0.338,1.06l-6.196,3.799
	L115.146,118.89z M119.589,119.395l3.646-2.852l3.661,2.865l-3.46,12.087L119.589,119.395z M128.848,119.535l1.86-0.485l3.277,5.347
	l-5.555-3.405L128.848,119.535z M168.624,114.721c-0.413,0.237-0.812,0.496-1.196,0.773c-2.095-1.312-6.627-3.439-8.383-4.25
	c-0.015-0.615-0.066-1.221-0.147-1.818C162.437,110.98,165.694,112.75,168.624,114.721 M163.539,108.434
	c1.046-3.726,2.478-8.83,6.837-10.323c0.636-0.218,1.187-0.387,1.672-0.537c3.237-0.998,4.112-1.436,7.053-6.73
	c2.697-4.856,5.219-7.465,8.312-8.371c-2.29,2.353-3.978,5.585-3.932,10.831c0.054,6.047-5.632,9.723-8.544,10.264
	c-3.121,0.58-5.191,3.683-5.826,8.564c-1.788-1.155-3.705-2.226-5.702-3.238L163.539,108.434z M159.68,85.684l0.077-0.245
	c1.024-3.278,2.185-6.994,7.667-8.622c5.029-1.493,7.625-4.053,9.202-6.932c0.041,3.222-1.714,6.397-5.566,10.398
	c-4.773,4.96-5.929,7.842-7.561,12.507c-2.146,6.14-4.521,8.653-6.717,10.139c-1.133-2.212-2.521-4.111-3.782-5.605
	C155.857,94.848,157.96,91.176,159.68,85.684 M148.554,96.14c1.921,1.785,8.289,8.286,8.082,15.843l-0.021,0.804l0.732,0.328
	c2.524,1.132,6.264,2.953,8.168,4.029c-0.583,0.604-1.116,1.257-1.584,1.959c-2.136-1.223-7.467-4.152-11.327-5.22
	c0.129-7.77-4.192-11.468-4.384-11.628l-0.48-0.401l-0.604,0.164c-0.319,0.086-7.77,2.191-10.727,10.063l-4.061-1.058l4.698-7.666
	C140.999,99.676,146.621,96.998,148.554,96.14 M135.772,91.113c1.352-4.435,2.749-9.022,5.092-10.727
	c0.671-0.488,1.249-0.866,1.758-1.2c2.674-1.75,3.674-2.637,5.161-8.168c0.229-0.854,0.425-1.689,0.613-2.499
	c1.07-4.576,1.827-7.818,7.519-9.056c-2.667,2.955-5.421,6.642-4.016,12.083c1.517,5.855-3.11,10.797-5.805,12.026
	c-3.487,1.591-4.576,6.191-3.062,12.637c-1.46,0.815-3.066,1.803-4.637,2.943l-1.355,0.831c-1.265-1.399-2.118-2.959-2.666-4.555
	C134.866,94.037,135.33,92.566,135.772,91.113 M117.926,83.462c2.825-3.882,3.447-9.592,1.279-11.748
	c-0.989-0.984-3.927-5.741-0.23-11.041c2.949-4.227,3.91-8.461,3.796-11.368c3.192,1.986,3.375,4.259,3.673,8.43
	c-0.051,0.617-0.164,1.239-0.284,1.895c-0.592,3.229-1.262,6.888,5.006,11.884c2.782,2.902,3.119,6.77,0.977,11.557
	c-0.633,1.646-1.789,6.987-0.293,12.294c-0.015,0.042-0.028,0.089-0.045,0.131l0.09,0.035c0.582,1.988,1.551,3.962,3.056,5.734
	l-7.435,4.556l-4.581-14.403l-4.208,14.702l-5.68-3.482c-0.111-0.728-0.358-2.86-0.037-5.839l0.099-0.031
	c-0.023-0.073-0.043-0.154-0.066-0.229C113.46,92.976,114.692,88.3,117.926,83.462 M99.562,84.701
	c-2.633-1.355-7.022-6.511-5.232-12.287c1.662-5.368-0.915-9.181-3.441-12.259c5.626,1.506,6.23,4.779,7.083,9.4
	c0.15,0.818,0.306,1.663,0.496,2.527c1.223,5.594,2.182,6.527,4.77,8.402c0.492,0.356,1.052,0.762,1.698,1.281
	c2.261,1.813,3.439,6.461,4.58,10.954c0.335,1.322,0.687,2.664,1.06,3.947c-0.183,1.77-0.174,3.253-0.109,4.391l-2.79-1.711
	c-1.753-1.279-3.624-2.402-5.291-3.305C103.671,90.423,102.681,86.307,99.562,84.701 M97.183,96.16
	c2.023,0.905,7.797,3.66,11.445,7.064l4.879,7.959l-3.656,0.953c-2.942-7.919-10.431-10.032-10.75-10.118l-0.604-0.164l-0.481,0.401
	c-0.191,0.16-4.513,3.858-4.384,11.628c-4.055,1.122-9.727,4.294-11.619,5.388c-0.506-0.784-1.086-1.516-1.735-2.182
	c1.934-1.082,5.592-2.862,8.073-3.974l0.626-0.28l0.078-0.682C89.964,104.193,95.423,97.978,97.183,96.16 M80.63,92.79
	c-1.633-4.667-2.789-7.549-7.562-12.507c-3.852-4.001-5.606-7.176-5.565-10.399c1.577,2.88,4.173,5.44,9.201,6.933
	c5.481,1.628,6.642,5.343,7.667,8.62l0.077,0.247c1.944,6.203,4.391,10.095,7.86,12.55c-1.128,1.549-2.325,3.46-3.342,5.666
	C86.436,102.518,83.361,100.603,80.63,92.79 M86.75,111.199c-1.659,0.764-6.232,2.904-8.401,4.245
	c-0.386-0.274-0.784-0.529-1.196-0.764c2.996-2.008,6.327-3.81,9.952-5.382C86.964,109.919,86.843,110.553,86.75,111.199
	 M68.09,101.672c-2.912-0.54-8.597-4.216-8.544-10.265c0.046-5.244-1.64-8.476-3.93-10.829c3.092,0.906,5.613,3.515,8.31,8.371
	c2.941,5.294,3.817,5.731,7.053,6.729c0.486,0.15,1.036,0.32,1.673,0.537c4.358,1.493,5.791,6.597,6.836,10.324
	c0.349,1.242,0.65,2.314,1.019,3.113c0.02,0.044,0.047,0.083,0.068,0.126c-2.14,1.165-4.154,2.418-6.033,3.753
	c-0.135-0.043-0.273-0.078-0.41-0.117C74.093,106.653,71.912,102.383,68.09,101.672 M81.841,126.82
	c0,6.367-5.179,11.548-11.546,11.548s-11.548-5.181-11.548-11.548s5.181-11.547,11.548-11.547S81.841,120.453,81.841,126.82
	 M51.622,109.083c-0.598-0.234-1.193-0.466-1.666-0.688c-3.014-1.867-4.824-2.987-5.645-5.084c2.366,1.255,5.909,2.412,10.011,2.581
	c5.425,0.223,8.602,3.953,9.368,5.372c0.508,0.939,1.324,1.694,2.243,2.309c-2.041,0.673-3.874,1.803-5.378,3.272
	c-0.408-0.236-0.837-0.465-1.294-0.674C57.172,111.27,54.23,110.105,51.622,109.083 M38.941,118.25
	c2.992,1.353,6.605,1.839,11.521,0.012c3.719-1.382,6.379-0.681,8.493,0.455c-1.293,1.804-2.163,3.925-2.474,6.225
	c-1.926-0.735-4.106-1.284-6.842-1.726C44.155,122.333,40.845,120.85,38.941,118.25 M47.018,137.914
	c-3.626-1.515-6.494-1.412-8.868-0.643c1.666-1.654,4.279-2.58,8.297-3.065c5.025-0.604,5.697-1.198,7.474-3.367
	c0.265-0.322,0.564-0.688,0.928-1.105c0.453-0.52,0.984-0.938,1.596-1.271c0.22,1.866,0.808,3.619,1.692,5.188
	c-0.336,0.295-0.631,0.631-0.877,1.014C55.973,136.669,51.507,139.789,47.018,137.914 M40.63,150.47
	c0.654-4.064,3.04-4.891,6.564-6.111c0.651-0.226,1.322-0.458,2.005-0.72c3.742-1.438,4.853-2.344,5.829-4.031
	c1.871-0.946,3.393-2.295,4.259-3.644c0.067-0.105,0.158-0.188,0.239-0.278c0.688,0.835,1.481,1.576,2.342,2.231
	c-1.686,0.812-2.456,2.004-2.79,2.998c-0.759,2.259-4.328,6.359-9.139,5.65C45.555,145.904,42.793,148.151,40.63,150.47
	 M52.48,153.757c-2.46,3.215-4.587,4.992-6.859,5.587c1.871-1.655,3.418-4.071,3.957-7.964c0.122-0.879,0.353-1.659,0.647-2.372
	c5.503,0.466,9.97-3.854,11.136-7.325c0.457-1.361,2.024-1.906,3.263-2.124c0.463,0.207,0.937,0.395,1.426,0.552
	c-1.506,1.464-2.612,3.305-3.197,5.327l-0.014-0.025c-0.327,0.189-0.67,0.379-1.029,0.569
	C58.182,147.905,55.959,149.213,52.48,153.757 M63.565,146.67L63.565,146.67l0.211,0.041L63.565,146.67z M63.313,159.681
	c-3.796,1.011-6.006,2.843-7.419,4.901c0.312-2.327,1.817-4.655,4.706-7.492c1.325-1.301,2.195-2.429,2.78-3.474
	c0.717,1.646,1.794,3.096,3.125,4.266C65.584,158.75,64.518,159.36,63.313,159.681 M64.78,148.796c0-0.624,0.06-1.248,0.178-1.855
	l-0.001-0.001c0.492-2.537,2.011-4.789,4.172-6.225c0.385,0.033,0.772,0.06,1.166,0.06c2.249,0,4.369-0.547,6.252-1.496
	l-0.008,0.037c4.426,0.957,7.639,4.944,7.639,9.48c0,5.349-4.351,9.698-9.699,9.698C69.131,158.495,64.78,154.145,64.78,148.796
	 M103.683,185.649h-8.134c-2.028,0-3.971-0.747-5.472-2.103c-1.784-1.608-4.387-5.718-6.181-11.27
	c-0.88-2.717-1.718-7.291-2.498-13.562c3.131-2.189,5.187-5.816,5.187-9.919c0-4.925-3.036-9.329-7.463-11.179
	c3.066-2.512,5.039-6.301,5.114-10.547c7.58-2.919,16.627-4.817,26.903-5.671l-5.745,9.373l13.23-8.109l4.909,15.438l4.297-15.011
	l12.533,7.683l-5.692-9.285c10.026,0.96,19.077,2.964,26.954,5.97c0.187,4.088,2.124,7.727,5.096,10.16
	c-4.427,1.85-7.464,6.254-7.464,11.179c0,4.049,2.005,7.631,5.067,9.829c-0.783,6.316-1.626,10.918-2.511,13.651
	c-1.827,5.653-4.522,9.825-6.384,11.451c-1.417,1.238-3.286,1.921-5.262,1.921h-8.141c-2.78,0-10.166,0-10.166,6.922
	c0,3.422-4.528,5.212-9.001,5.212s-9-1.79-9-5.212C113.86,185.649,106.466,185.649,103.683,185.649"/>
<path fill="#FFFFFF" d="M171.363,141.737c-3.892,0-7.059,3.167-7.059,7.06c0,3.892,3.167,7.059,7.059,7.059
	c3.893,0,7.059-3.167,7.059-7.059C178.422,144.904,175.256,141.737,171.363,141.737 M171.363,153.447
	c-2.565,0-4.651-2.086-4.651-4.65c0-2.565,2.086-4.651,4.651-4.651s4.652,2.086,4.652,4.651
	C176.016,151.361,173.929,153.447,171.363,153.447"/>
<path fill="#FFFFFF" d="M171.363,145.864c-1.62,0-2.933,1.312-2.933,2.933c0,1.619,1.312,2.933,2.933,2.933s2.934-1.313,2.934-2.933
	C174.297,147.176,172.983,145.864,171.363,145.864"/>
<path fill="#FFFFFF" d="M175.548,134.872c4.44,0,8.053-3.611,8.053-8.052c0-4.439-3.612-8.052-8.053-8.052
	c-4.439,0-8.052,3.612-8.052,8.052C167.496,131.26,171.108,134.872,175.548,134.872 M175.548,121.176
	c3.112,0,5.645,2.532,5.645,5.644s-2.532,5.645-5.645,5.645c-3.111,0-5.644-2.532-5.644-5.645S172.437,121.176,175.548,121.176"/>
<path fill="#FFFFFF" d="M175.548,130.25c1.895,0,3.431-1.535,3.431-3.43c0-1.894-1.536-3.43-3.431-3.43
	c-1.894,0-3.43,1.536-3.43,3.43C172.118,128.714,173.654,130.25,175.548,130.25"/>
<path fill="#FFFFFF" d="M74.479,141.737c-3.892,0-7.059,3.167-7.059,7.06c0,3.892,3.167,7.059,7.059,7.059
	c3.893,0,7.059-3.167,7.059-7.059C81.538,144.904,78.372,141.737,74.479,141.737 M74.479,153.447c-2.565,0-4.651-2.086-4.651-4.65
	c0-2.565,2.086-4.651,4.651-4.651c2.565,0,4.652,2.086,4.652,4.651C79.131,151.361,77.044,153.447,74.479,153.447"/>
<path fill="#FFFFFF" d="M74.479,145.864c-1.62,0-2.933,1.312-2.933,2.933c0,1.619,1.313,2.933,2.933,2.933s2.933-1.313,2.933-2.933
	C77.412,147.176,76.099,145.864,74.479,145.864"/>
<path fill="#FFFFFF" d="M70.294,134.872c4.44,0,8.052-3.611,8.052-8.052c0-4.439-3.612-8.052-8.052-8.052s-8.052,3.612-8.052,8.052
	C62.243,131.26,65.854,134.872,70.294,134.872 M70.294,121.176c3.112,0,5.644,2.532,5.644,5.644s-2.532,5.645-5.644,5.645
	c-3.112,0-5.644-2.532-5.644-5.645S67.183,121.176,70.294,121.176"/>
<path fill="#FFFFFF" d="M70.294,130.25c1.894,0,3.43-1.535,3.43-3.43c0-1.894-1.536-3.43-3.43-3.43s-3.43,1.536-3.43,3.43
	C66.864,128.714,68.4,130.25,70.294,130.25"/>
<path fill="#FFFFFF" d="M122.431,167.183c0.007,0.011,0.019,0.017,0.026,0.026c0.031,0.049,0.08,0.085,0.12,0.129
	c0.069,0.075,0.137,0.152,0.221,0.208c0.006,0.004,0.008,0.01,0.015,0.014c0.033,0.021,0.072,0.022,0.107,0.041
	c0.101,0.05,0.202,0.097,0.312,0.117c0.053,0.01,0.105,0.004,0.159,0.006c0.1,0.005,0.198,0.011,0.298-0.01
	c0.065-0.014,0.122-0.045,0.185-0.068c0.07-0.027,0.145-0.038,0.212-0.079c0.012-0.008,0.018-0.02,0.028-0.028
	c0.059-0.038,0.103-0.095,0.154-0.144c0.064-0.062,0.133-0.117,0.181-0.189c0.007-0.009,0.017-0.014,0.022-0.022
	c0.309-0.488,3.199-4.668,9.004-1.116c2.482,1.558,8.453,4.321,14.402,4.32c2.72,0,5.436-0.577,7.809-2.112
	c1.26-0.888,2.645-2.92,1.295-4.879c-0.913-1.326-2.051-1.473-2.647-1.429c-1.007,0.059-1.97,0.688-2.453,1.604
	c-0.312,0.588-0.087,1.316,0.501,1.627c0.589,0.312,1.316,0.087,1.627-0.501c0.092-0.173,0.296-0.315,0.465-0.326
	c0.204-0.027,0.396,0.207,0.525,0.392c0.471,0.684-0.657,1.514-0.659,1.518c-6.435,4.159-16.547-0.346-19.596-2.259
	c-1.762-1.078-3.333-1.57-4.728-1.716c-0.013-0.018-0.016-0.037-0.029-0.053c-1.319-1.545-1.591-4.074-1.647-4.993
	c0.184-0.191,0.358-0.393,0.52-0.605c1.079,1.094,2.568,1.739,4.167,1.739c3.229,0,5.857-2.627,5.857-5.856
	c0-3.229-2.628-5.854-5.857-5.854c-1.051,0-2.011,0-2.894,0.148c-0.651-2.286-2.429-4.194-6.013-6.592
	c-0.367-0.245-0.841-0.27-1.231-0.062c-3.884,2.052-5.775,3.991-6.331,6.627c-0.89-0.097-1.88-0.121-2.681-0.121
	c-3.229,0-5.856,2.626-5.856,5.854c0,3.229,2.627,5.856,5.856,5.856c1.599,0,3.088-0.646,4.167-1.738
	c0.205,0.27,0.435,0.515,0.676,0.748c-0.09,1.219-0.478,3.486-1.642,4.85c-0.01,0.011-0.012,0.025-0.021,0.036
	c-1.439,0.121-3.071,0.614-4.91,1.739c-3.035,1.906-13.146,6.41-19.542,2.279c-0.012-0.009-1.181-0.845-0.699-1.546
	c0.127-0.184,0.325-0.403,0.524-0.391c0.17,0.011,0.374,0.154,0.466,0.326c0.312,0.589,1.042,0.812,1.627,0.501
	c0.588-0.312,0.812-1.04,0.501-1.627c-0.485-0.917-1.449-1.546-2.455-1.604c-0.593-0.035-1.736,0.104-2.647,1.429
	c-1.348,1.959,0.036,3.991,1.336,4.906c2.353,1.521,5.049,2.094,7.755,2.094c5.943,0,11.927-2.766,14.404-4.321
	C119.233,162.519,122.119,166.696,122.431,167.183 M118.203,153.146c-0.014-0.001-0.028-0.001-0.042-0.001
	c-0.482,0-0.92,0.289-1.109,0.736c-0.541,1.277-1.788,2.104-3.176,2.104c-1.902,0-3.448-1.547-3.448-3.448
	c0-1.9,1.546-3.447,3.448-3.447c1.514,0,2.783,0.102,3.394,0.271c0.35,0.097,0.728,0.029,1.027-0.184
	c0.297-0.214,0.48-0.553,0.497-0.918c0.081-1.648,0.504-3.32,4.587-5.61c3.622,2.518,4.449,4.061,4.612,5.821
	c0.037,0.389,0.261,0.736,0.6,0.932c0.341,0.195,0.754,0.212,1.107,0.047c0.774-0.359,1.9-0.359,3.325-0.359
	c1.902,0,3.449,1.547,3.449,3.447c0,1.901-1.547,3.448-3.449,3.448c-1.388,0-2.635-0.826-3.176-2.104
	c-0.194-0.459-0.64-0.766-1.151-0.734c-0.499,0.017-0.935,0.341-1.097,0.812c-0.609,1.776-2.277,2.971-4.151,2.971
	c-1.874,0-3.542-1.194-4.15-2.971C119.138,153.487,118.702,153.163,118.203,153.146 M123.45,159.337c0.929,0,1.819-0.199,2.64-0.546
	c0.17,1.072,0.508,2.438,1.171,3.687c-1.734,0.442-3.006,1.416-3.812,2.217c-0.782-0.778-2.011-1.714-3.671-2.172
	c0.665-1.234,1.01-2.591,1.186-3.666C121.741,159.164,122.58,159.337,123.45,159.337"/>
<path fill="#FFFFFF" d="M114.403,138.007c0.423-0.423,0.471-1.092,0.114-1.571c-1.762-2.365-4.853-4.112-7.957-5.072
	c-0.042-0.017-0.085-0.021-0.128-0.033c-1.71-0.518-3.419-0.806-4.905-0.806c-7.795,0-12.518,6.688-12.715,6.973
	c-0.36,0.519-0.257,1.229,0.236,1.624c4.427,3.555,8.553,4.798,12.159,4.798C107.763,143.919,112.6,139.809,114.403,138.007
	 M105.095,133.989c0,2.092-1.702,3.792-3.792,3.792c-2.091,0-3.792-1.7-3.792-3.792c0-0.102,0.022-0.189,0.028-0.287
	c0.568-0.217,1.164-0.394,1.793-0.522c-0.064,0.201-0.109,0.409-0.109,0.631c0,1.149,0.932,2.08,2.081,2.08
	c1.148,0,2.08-0.931,2.08-2.08c0-0.26-0.054-0.506-0.14-0.735c0.598,0.084,1.214,0.208,1.842,0.371
	C105.097,133.627,105.096,133.819,105.095,133.989 M91.512,137.976c0.727-0.826,1.984-2.082,3.677-3.134
	c0.421,3.013,2.987,5.347,6.114,5.347c3.301,0,5.982-2.601,6.165-5.94c1.688,0.699,3.276,1.647,4.424,2.82
	C108.398,140.204,100.874,144.803,91.512,137.976"/>
<path fill="#FFFFFF" d="M144.927,143.919c3.606,0,7.733-1.244,12.16-4.798c0.493-0.396,0.595-1.105,0.236-1.625
	c-0.197-0.284-4.921-6.972-12.716-6.972c-1.442,0-3.095,0.276-4.754,0.765c-0.348-0.037-0.693,0.064-0.945,0.303
	c-2.872,0.996-5.656,2.65-7.29,4.844c-0.358,0.479-0.31,1.148,0.114,1.571C133.534,139.81,138.37,143.919,144.927,143.919
	 M148.318,133.99c0,2.091-1.701,3.792-3.792,3.792s-3.791-1.701-3.792-3.908c-0.001-0.091,0.002-0.224,0.007-0.352
	c0.597-0.166,1.183-0.29,1.759-0.386c-0.073,0.213-0.122,0.437-0.122,0.674c0,1.149,0.931,2.08,2.08,2.08s2.08-0.931,2.08-2.08
	c0-0.257-0.053-0.5-0.138-0.727c0.659,0.11,1.279,0.287,1.878,0.496C148.29,133.717,148.318,133.844,148.318,133.99
	 M138.366,134.377c0.204,3.235,2.875,5.812,6.16,5.812c3.179,0,5.775-2.414,6.129-5.499c1.828,1.082,3.195,2.419,3.965,3.288
	c-9.36,6.823-16.884,2.226-20.378-0.908C135.322,135.967,136.792,135.065,138.366,134.377"/>
<path fill="#FFFFFF" d="M119.116,181.525c0-0.665-0.539-1.204-1.204-1.204c-3.239,0-5.875-2.035-5.875-4.537
	c0-2.501,2.636-4.536,5.875-4.536c1.845,0,3.55,0.66,4.68,1.812c0.225,0.23,0.536,0.359,0.859,0.359
	c0.322,0,0.633-0.129,0.858-0.359c1.129-1.151,2.835-1.812,4.68-1.812c3.239,0,5.876,2.035,5.876,4.536
	c0,2.502-2.637,4.537-5.876,4.537c-0.665,0-1.203,0.539-1.203,1.204s0.538,1.204,1.203,1.204c4.567,0,8.283-3.115,8.283-6.945
	c0-3.829-3.716-6.944-8.283-6.944c-2.067,0-4.028,0.639-5.538,1.778c-1.509-1.14-3.471-1.778-5.54-1.778
	c-4.567,0-8.283,3.115-8.283,6.944c0,3.83,3.716,6.945,8.283,6.945C118.577,182.729,119.116,182.19,119.116,181.525"/>
<path fill="#FFFFFF" d="M130.959,175.744c-0.022-0.665-0.574-1.179-1.243-1.163c-0.059,0.002-4.347,0.217-6.497,4.87
	c-2.151-4.653-6.439-4.868-6.497-4.87c-0.654-0.06-1.21,0.492-1.237,1.152c-0.028,0.66,0.486,1.219,1.145,1.254
	c0.22,0.012,5.385,0.379,5.385,8.805c0,0.665,0.539,1.204,1.204,1.204s1.204-0.539,1.204-1.204c0-8.403,5.139-8.792,5.382-8.805
	C130.465,176.959,130.98,176.405,130.959,175.744"/>
<path fill="#FFFFFF" d="M102.301,109.413c0-1.01-0.819-1.828-1.828-1.828c-1.01,0-1.829,0.818-1.829,1.828
	c0,1.01,0.819,1.828,1.829,1.828C101.482,111.241,102.301,110.423,102.301,109.413"/>
<path fill="#FFFFFF" d="M145.763,107.585c-1.01,0-1.828,0.819-1.828,1.828c0,1.01,0.818,1.829,1.828,1.829
	c1.011,0,1.828-0.819,1.828-1.829C147.591,108.404,146.773,107.585,145.763,107.585"/>
</svg>
