<?xml version="1.0" encoding="utf-8"?>
<!-- Generator: Adobe Illustrator 16.0.0, SVG Export Plug-In . SVG Version: 6.00 Build 0)  -->
<!DOCTYPE svg PUBLIC "-//W3C//DTD SVG 1.1//EN" "http://www.w3.org/Graphics/SVG/1.1/DTD/svg11.dtd">
<svg version="1.1" id="Layer_1" xmlns="http://www.w3.org/2000/svg" xmlns:xlink="http://www.w3.org/1999/xlink" x="0px" y="0px"
	 width="162.34px" height="54.883px" viewBox="0 0 162.34 54.883" enable-background="new 0 0 162.34 54.883" xml:space="preserve">
<path d="M135.164,4.434c-5.129-0.156-10.945,1.194-17.063,3.489c-2.673-3.244-5.496-5.344-8.467-6.562
	c-3.243-1.332-6.625-1.611-10.06-1.162c-3.347,0.438-6.701,1.568-10.018,3.09c-2.844,1.305-5.768,2.68-8.496,4.507
	c-2.728-1.814-5.649-3.171-8.491-4.457c-3.315-1.5-6.668-2.604-10.014-3.018c-3.432-0.425-6.816-0.123-10.061,1.221
	c-2.955,1.222-5.766,3.305-8.43,6.501c-6.032-2.196-11.767-3.464-16.835-3.285C7.357,5.313,0.294,16.466,0,27.894
	c0.161,11.425,7.09,23.126,25.702,24.743c6.605,0.783,14.422-0.876,21.873-3.57c2.036,2.026,4.158,3.44,6.359,4.35
	c3.089,1.277,6.304,1.564,9.563,1.162c3.178-0.392,6.361-1.438,9.51-2.865c2.707-1.223,5.39-2.725,8.054-4.322
	c2.665,1.611,5.35,3.129,8.059,4.371c3.151,1.446,6.336,2.519,9.516,2.933c3.259,0.426,6.474,0.159,9.56-1.106
	c2.208-0.903,4.335-2.321,6.375-4.366c7.572,2.756,15.495,4.492,22.124,3.735c18.606-1.495,25.48-13.428,25.646-25.078
	C162.041,16.228,155.035,4.856,135.164,4.434 M90.834,5.091c3.048-1.404,6.081-2.44,9.036-2.827c2.869-0.375,5.692-0.139,8.41,0.981
	c2.531,1.042,4.984,2.853,7.366,5.642c-6.498,2.662-13.257,6.284-20.087,10.283c-1.084-0.895-2.146-1.777-3.183-2.638
	c-3.279-2.721-6.318-5.219-9.043-7.173C85.837,7.795,88.308,6.254,90.834,5.091 M81.059,44.745
	c-2.217-1.689-5.822-4.447-10.136-7.517c5.003-3.223,8.571-5.947,9.843-6.938c1.124,0.867,4.886,3.698,10.248,7.087
	C86.778,40.395,83.243,43.086,81.059,44.745 M68.759,35.705c-3.26-2.268-6.842-4.636-10.533-6.833
	c3.062-2.217,6.018-4.563,8.833-6.864c3.812,2.346,7.355,4.636,10.526,6.577c0.25,0.153,0.5,0.308,0.751,0.459
	C76.548,30.404,73.165,32.896,68.759,35.705 M84.036,29.024l0.75-0.46c3.125-1.914,6.611-4.17,10.361-6.495
	c2.785,2.28,5.705,4.607,8.731,6.812c-3.637,2.177-7.166,4.514-10.387,6.751C89.146,32.836,85.808,30.374,84.036,29.024
	 M83.497,26.451c-0.757,0.463-1.516,0.928-2.273,1.392c-0.017,0.009-0.034,0.021-0.054,0.035c-0.007-0.004-0.014-0.009-0.021-0.013
	c-0.759-0.464-1.518-0.929-2.274-1.392c-3.336-2.042-6.648-4.065-9.939-6.008c0.816-0.674,1.62-1.34,2.409-1.993
	c3.598-2.984,6.902-5.704,9.713-7.666c2.808,1.95,6.11,4.661,9.707,7.643c0.818,0.68,1.654,1.373,2.503,2.074
	C90.032,22.447,86.776,24.442,83.497,26.451 M53.845,3.405c2.719-1.129,5.544-1.382,8.412-1.025
	c2.954,0.367,5.987,1.381,9.033,2.765c2.525,1.147,4.994,2.672,7.495,4.224c-2.727,1.966-5.768,4.471-9.05,7.194
	c-1.007,0.835-2.038,1.692-3.09,2.559c-6.845-3.975-13.616-7.545-20.122-10.141C48.892,6.24,51.332,4.448,53.845,3.405
	 M26.375,50.152C11.435,49.39,5.441,38.936,5.145,28.53C5.201,18.127,10.952,7.771,27.642,7.258
	c11.883-0.422,25.835,6.511,37.16,13.375c-2.851,2.322-5.839,4.677-8.918,6.871c-10.725-6.137-22.423-10.9-29.156-8.453
	c-8.77,1.828-14.055,12.097-3.62,18.868c9.997,6.059,21.47,0.418,32.901-7.479c3.734,2.195,7.299,4.485,10.523,6.658
	C55.673,43.808,38.972,51.632,26.375,50.152 M53.626,29.07c-8.207,5.549-17.429,8.59-25.044,7.705
	c-8.852-1.033-8.143-11.514-0.816-14.397C33.463,20.174,43.754,23.515,53.626,29.07 M71.788,49.999
	c-2.893,1.314-5.773,2.277-8.581,2.626c-2.724,0.338-5.409,0.096-7.997-0.978c-1.784-0.739-3.532-1.875-5.241-3.485
	c6.992-2.753,13.53-6.311,18.774-9.559c4.491,3.096,8.167,5.825,10.36,7.479C76.666,47.537,74.222,48.894,71.788,49.999
	 M106.915,51.801c-2.586,1.062-5.27,1.289-7.995,0.933c-2.808-0.366-5.688-1.35-8.584-2.683c-2.436-1.121-4.881-2.493-7.32-3.959
	c2.167-1.628,5.781-4.301,10.201-7.351c5.311,3.233,11.912,6.787,18.946,9.567C110.453,49.929,108.702,51.065,106.915,51.801
	 M136.013,50.438c-12.64,1.427-29.432-6.633-40.292-13.402c3.186-2.143,6.699-4.404,10.376-6.577
	c11.43,7.95,22.908,13.731,32.891,7.615c10.419-6.852,5.145-17.314-3.618-19.138c-6.728-2.462-18.426,2.396-29.147,8.568
	c-3.043-2.184-5.997-4.519-8.817-6.819c11.361-6.94,25.401-14.083,37.341-13.718c16.688,0.413,22.395,10.966,22.453,21.561
	C156.897,39.126,150.948,49.77,136.013,50.438 M108.478,29.082c9.87-5.59,20.113-8.885,25.851-6.771
	c7.277,2.781,8.001,13.495-0.812,14.586C125.914,37.833,116.683,34.67,108.478,29.082"/>
</svg>
