<?xml version="1.0" encoding="utf-8"?>
<!-- Generator: Adobe Illustrator 16.0.0, SVG Export Plug-In . SVG Version: 6.00 Build 0)  -->
<!DOCTYPE svg PUBLIC "-//W3C//DTD SVG 1.1//EN" "http://www.w3.org/Graphics/SVG/1.1/DTD/svg11.dtd">
<svg version="1.1" id="Layer_1" xmlns="http://www.w3.org/2000/svg" xmlns:xlink="http://www.w3.org/1999/xlink" x="0px" y="0px"
	 width="65.872px" height="24.481px" viewBox="0 0 65.872 24.481" enable-background="new 0 0 65.872 24.481" xml:space="preserve">
<path fill="#FFFFFF" d="M51.189,6.96c-1.115-2.809,2.856-5.32,4.571-5.822c2.829-0.754,5.042,0.903,7.095,3.037
	c5.652,5.51,2.905,14.092-4.438,18.076c-11.367,6.006-22.497-1.405-31.188-7.129C21.469,11.741,13.246,3.52,6.592,7.152
	c-2.298,1.234-3.33,4.248-0.684,6.152c-2.388,1.915-5.329-0.954-5.822-4C-0.443,6.16,1.573,3.151,3.651,1.648
	C8.2-1.543,13.959,0.395,18.31,3.272c5.111,3.497,10.176,9.183,16.054,12.413c4.434,2.473,9.83,4.957,15.101,5.245
	c4.42,0.404,12.179-3.018,12.554-8.733c0.364-6.992-6.733-8.653-10.636-4.944C51.316,7.155,51.254,7.059,51.189,6.96"/>
</svg>
