<?xml version="1.0" encoding="utf-8"?>
<!-- Generator: Adobe Illustrator 16.0.0, SVG Export Plug-In . SVG Version: 6.00 Build 0)  -->
<!DOCTYPE svg PUBLIC "-//W3C//DTD SVG 1.1//EN" "http://www.w3.org/Graphics/SVG/1.1/DTD/svg11.dtd">
<svg version="1.1" id="Layer_1" xmlns="http://www.w3.org/2000/svg" xmlns:xlink="http://www.w3.org/1999/xlink" x="0px" y="0px"
	 width="65.872px" height="24.481px" viewBox="0 0 65.872 24.481" enable-background="new 0 0 65.872 24.481" xml:space="preserve">
<path fill="#FFFFFF" d="M14.683,6.96c1.116-2.809-2.856-5.32-4.571-5.822C7.283,0.385,5.07,2.042,3.017,4.176
	c-5.652,5.51-2.905,14.092,4.439,18.076c11.367,6.006,22.497-1.405,31.188-7.129c5.76-3.382,13.982-11.603,20.637-7.971
	c2.298,1.234,3.33,4.248,0.684,6.152c2.388,1.915,5.329-0.954,5.822-4c0.529-3.145-1.487-6.154-3.565-7.656
	c-4.549-3.192-10.308-1.254-14.658,1.624c-5.111,3.497-10.176,9.183-16.054,12.413c-4.433,2.473-9.83,4.957-15.1,5.245
	c-4.42,0.404-12.179-3.018-12.553-8.733c-0.365-6.992,6.733-8.653,10.635-4.944C14.556,7.155,14.619,7.059,14.683,6.96"/>
</svg>
